<mxfile host="Electron" modified="2024-07-21T02:54:45.502Z" agent="Mozilla/5.0 (Windows NT 10.0; Win64; x64) AppleWebKit/537.36 (KHTML, like Gecko) draw.io/22.0.2 Chrome/114.0.5735.289 Electron/25.8.4 Safari/537.36" etag="lwk6ChMdxDF8KtE1sINv" version="22.0.2" type="device">
  <diagram name="PÃ¡gina-1" id="DcxSB3hKRuo-JCfL93JV">
    <mxGraphModel dx="1418" dy="828" grid="1" gridSize="10" guides="1" tooltips="1" connect="1" arrows="1" fold="1" page="1" pageScale="1" pageWidth="1169" pageHeight="827" math="0" shadow="0">
      <root>
        <mxCell id="0" />
        <mxCell id="1" parent="0" />
        <mxCell id="NHU2UIcd_U3Wp1XOQGjW-1" value="" style="rounded=0;whiteSpace=wrap;html=1;" parent="1" vertex="1">
          <mxGeometry x="20" y="30" width="1100" height="780" as="geometry" />
        </mxCell>
        <mxCell id="ehg9ZRiTmpM_Ezbu78ZU-22" value="" style="group;fontColor=#000000;" parent="1" vertex="1" connectable="0">
          <mxGeometry x="338" y="191" width="180" height="76" as="geometry" />
        </mxCell>
        <mxCell id="ehg9ZRiTmpM_Ezbu78ZU-20" value="&lt;h1 style=&quot;margin-top: 0px;&quot;&gt;&lt;span style=&quot;font-weight: normal;&quot;&gt;&lt;span style=&quot;font-family: Roboto; background-color: transparent;&quot;&gt;&lt;font color=&quot;#000000&quot; style=&quot;font-size: 14px;&quot;&gt;Total Sillas Disponibles&lt;/font&gt;&lt;/span&gt;&lt;/span&gt;&lt;/h1&gt;" style="text;html=1;whiteSpace=wrap;overflow=hidden;rounded=0;fontColor=#e06853;fontFamily=Roboto;align=center;" parent="ehg9ZRiTmpM_Ezbu78ZU-22" vertex="1">
          <mxGeometry width="180" height="40" as="geometry" />
        </mxCell>
        <mxCell id="ehg9ZRiTmpM_Ezbu78ZU-21" value="&lt;span style=&quot;border-color: var(--border-color); font-style: normal; font-variant-ligatures: normal; font-variant-caps: normal; font-weight: 400; letter-spacing: normal; orphans: 2; text-indent: 0px; text-transform: none; widows: 2; word-spacing: 0px; -webkit-text-stroke-width: 0px; text-decoration-thickness: initial; text-decoration-style: initial; text-decoration-color: initial; font-family: Roboto; font-size: 24px; background-color: rgb(251, 251, 251); float: none; display: inline !important;&quot;&gt;1.000.000&lt;/span&gt;" style="text;whiteSpace=wrap;html=1;align=center;" parent="ehg9ZRiTmpM_Ezbu78ZU-22" vertex="1">
          <mxGeometry y="26" width="180" height="50" as="geometry" />
        </mxCell>
        <mxCell id="ehg9ZRiTmpM_Ezbu78ZU-26" value="" style="group;fontColor=#000000;" parent="1" vertex="1" connectable="0">
          <mxGeometry x="538" y="191" width="180" height="76" as="geometry" />
        </mxCell>
        <mxCell id="ehg9ZRiTmpM_Ezbu78ZU-27" value="&lt;h1 style=&quot;margin-top: 0px;&quot;&gt;&lt;span style=&quot;font-weight: normal;&quot;&gt;&lt;span style=&quot;font-family: Roboto; background-color: transparent;&quot;&gt;&lt;font color=&quot;#000000&quot; style=&quot;font-size: 14px;&quot;&gt;Total Pasajero A Bordo&lt;/font&gt;&lt;/span&gt;&lt;/span&gt;&lt;/h1&gt;" style="text;html=1;whiteSpace=wrap;overflow=hidden;rounded=0;fontColor=#e06853;fontFamily=Roboto;align=center;" parent="ehg9ZRiTmpM_Ezbu78ZU-26" vertex="1">
          <mxGeometry width="180" height="40" as="geometry" />
        </mxCell>
        <mxCell id="ehg9ZRiTmpM_Ezbu78ZU-28" value="&lt;span style=&quot;border-color: var(--border-color); font-style: normal; font-variant-ligatures: normal; font-variant-caps: normal; font-weight: 400; letter-spacing: normal; orphans: 2; text-indent: 0px; text-transform: none; widows: 2; word-spacing: 0px; -webkit-text-stroke-width: 0px; text-decoration-thickness: initial; text-decoration-style: initial; text-decoration-color: initial; font-family: Roboto; font-size: 24px; background-color: rgb(251, 251, 251); float: none; display: inline !important;&quot;&gt;1.000.000&lt;/span&gt;" style="text;whiteSpace=wrap;html=1;align=center;" parent="ehg9ZRiTmpM_Ezbu78ZU-26" vertex="1">
          <mxGeometry y="26" width="180" height="50" as="geometry" />
        </mxCell>
        <mxCell id="ehg9ZRiTmpM_Ezbu78ZU-29" value="" style="group;fontColor=#000000;" parent="1" vertex="1" connectable="0">
          <mxGeometry x="728" y="191" width="180" height="76" as="geometry" />
        </mxCell>
        <mxCell id="ehg9ZRiTmpM_Ezbu78ZU-30" value="&lt;h1 style=&quot;margin-top: 0px;&quot;&gt;&lt;span style=&quot;font-weight: normal;&quot;&gt;&lt;span style=&quot;font-family: Roboto; background-color: transparent;&quot;&gt;&lt;font color=&quot;#000000&quot; style=&quot;font-size: 14px;&quot;&gt;Total Carga Disponible&lt;/font&gt;&lt;/span&gt;&lt;/span&gt;&lt;/h1&gt;" style="text;html=1;whiteSpace=wrap;overflow=hidden;rounded=0;fontColor=#e06853;fontFamily=Roboto;align=center;" parent="ehg9ZRiTmpM_Ezbu78ZU-29" vertex="1">
          <mxGeometry width="180" height="40" as="geometry" />
        </mxCell>
        <mxCell id="ehg9ZRiTmpM_Ezbu78ZU-31" value="&lt;span style=&quot;border-color: var(--border-color); font-style: normal; font-variant-ligatures: normal; font-variant-caps: normal; font-weight: 400; letter-spacing: normal; orphans: 2; text-indent: 0px; text-transform: none; widows: 2; word-spacing: 0px; -webkit-text-stroke-width: 0px; text-decoration-thickness: initial; text-decoration-style: initial; text-decoration-color: initial; font-family: Roboto; font-size: 24px; background-color: rgb(251, 251, 251); float: none; display: inline !important;&quot;&gt;1.000.000&lt;/span&gt;" style="text;whiteSpace=wrap;html=1;align=center;" parent="ehg9ZRiTmpM_Ezbu78ZU-29" vertex="1">
          <mxGeometry y="26" width="180" height="50" as="geometry" />
        </mxCell>
        <mxCell id="ehg9ZRiTmpM_Ezbu78ZU-32" value="" style="group;fontColor=#000000;" parent="1" vertex="1" connectable="0">
          <mxGeometry x="908" y="191" width="180" height="76" as="geometry" />
        </mxCell>
        <mxCell id="ehg9ZRiTmpM_Ezbu78ZU-33" value="&lt;h1 style=&quot;margin-top: 0px;&quot;&gt;&lt;span style=&quot;font-weight: normal;&quot;&gt;&lt;span style=&quot;font-family: Roboto; background-color: transparent;&quot;&gt;&lt;font color=&quot;#000000&quot; style=&quot;font-size: 14px;&quot;&gt;Total Carga A Bordo&lt;/font&gt;&lt;/span&gt;&lt;/span&gt;&lt;/h1&gt;" style="text;html=1;whiteSpace=wrap;overflow=hidden;rounded=0;fontColor=#e06853;fontFamily=Roboto;align=center;" parent="ehg9ZRiTmpM_Ezbu78ZU-32" vertex="1">
          <mxGeometry width="180" height="40" as="geometry" />
        </mxCell>
        <mxCell id="ehg9ZRiTmpM_Ezbu78ZU-34" value="&lt;span style=&quot;border-color: var(--border-color); font-style: normal; font-variant-ligatures: normal; font-variant-caps: normal; font-weight: 400; letter-spacing: normal; orphans: 2; text-indent: 0px; text-transform: none; widows: 2; word-spacing: 0px; -webkit-text-stroke-width: 0px; text-decoration-thickness: initial; text-decoration-style: initial; text-decoration-color: initial; font-family: Roboto; font-size: 24px; background-color: rgb(251, 251, 251); float: none; display: inline !important;&quot;&gt;1.000.000&lt;/span&gt;" style="text;whiteSpace=wrap;html=1;align=center;" parent="ehg9ZRiTmpM_Ezbu78ZU-32" vertex="1">
          <mxGeometry y="26" width="180" height="50" as="geometry" />
        </mxCell>
        <mxCell id="ehg9ZRiTmpM_Ezbu78ZU-37" value="" style="verticalLabelPosition=bottom;shadow=0;dashed=0;align=center;html=1;verticalAlign=top;strokeWidth=1;shape=mxgraph.mockup.graphics.columnChart;strokeColor=none;strokeColor2=none;strokeColor3=#666666;fillColor2=#008cff;fillColor3=#dddddd;" parent="1" vertex="1">
          <mxGeometry x="350" y="282" width="720" height="208" as="geometry" />
        </mxCell>
        <mxCell id="ehg9ZRiTmpM_Ezbu78ZU-38" value="" style="verticalLabelPosition=bottom;shadow=0;dashed=0;align=center;html=1;verticalAlign=top;strokeWidth=1;shape=mxgraph.mockup.graphics.columnChart;strokeColor=none;strokeColor2=none;strokeColor3=#666666;fillColor2=#008cff;fillColor3=#dddddd;" parent="1" vertex="1">
          <mxGeometry x="440" y="556" width="388.11" height="175" as="geometry" />
        </mxCell>
        <mxCell id="ehg9ZRiTmpM_Ezbu78ZU-39" value="" style="verticalLabelPosition=bottom;shadow=0;dashed=0;align=center;html=1;verticalAlign=top;strokeWidth=1;shape=mxgraph.mockup.graphics.pieChart;strokeColor=#008cff;parts=10,20,35;partColors=#e0e0e0,#d0d0d0,#c0c0c0,#b0b0b0,#a0a0a0;strokeWidth=2;" parent="1" vertex="1">
          <mxGeometry x="880" y="558.5" width="180" height="175" as="geometry" />
        </mxCell>
        <mxCell id="ehg9ZRiTmpM_Ezbu78ZU-41" value="" style="shape=image;verticalLabelPosition=bottom;labelBackgroundColor=default;verticalAlign=top;imageAspect=0;image=data:image/png,iVBORw0KGgoAAAANSUhEUgAAAbsAAAGMCAYAAABDFgwLAAAAAXNSR0IArs4c6QAAAJBlWElmTU0AKgAAAAgABgEGAAMAAAABAAIAAAESAAMAAAABAAEAAAEaAAUAAAABAAAAVgEbAAUAAAABAAAAXgEoAAMAAAABAAIAAIdpAAQAAAABAAAAZgAAAAAAAABIAAAAAQAAAEgAAAABAAOgAQADAAAAAQABAACgAgAEAAAAAQAAAbugAwAEAAAAAQAAAYwAAAAAnlLjiAAAAAlwSFlzAAALEwAACxMBAJqcGAAAAgtpVFh0WE1MOmNvbS5hZG9iZS54bXAAAAAAADx4OnhtcG1ldGEgeG1sbnM6eD0iYWRvYmU6bnM6bWV0YS8iIHg6eG1wdGs9IlhNUCBDb3JlIDUuNC4wIj4KICAgPHJkZjpSREYgeG1sbnM6cmRmPSJodHRwOi8vd3d3LnczLm9yZy8xOTk5LzAyLzIyLXJkZi1zeW50YXgtbnMjIj4KICAgICAgPHJkZjpEZXNjcmlwdGlvbiByZGY6YWJvdXQ9IiIKICAgICAgICAgICAgeG1sbnM6dGlmZj0iaHR0cDovL25zLmFkb2JlLmNvbS90aWZmLzEuMC8iPgogICAgICAgICA8dGlmZjpPcmllbnRhdGlvbj4xPC90aWZmOk9yaWVudGF0aW9uPgogICAgICAgICA8dGlmZjpQaG90b21ldHJpY0ludGVycHJldGF0aW9uPjI8L3RpZmY6UGhvdG9tZXRyaWNJbnRlcnByZXRhdGlvbj4KICAgICAgICAgPHRpZmY6UmVzb2x1dGlvblVuaXQ+MjwvdGlmZjpSZXNvbHV0aW9uVW5pdD4KICAgICAgICAgPHRpZmY6Q29tcHJlc3Npb24+NTwvdGlmZjpDb21wcmVzc2lvbj4KICAgICAgPC9yZGY6RGVzY3JpcHRpb24+CiAgIDwvcmRmOlJERj4KPC94OnhtcG1ldGE+Cs+OiooAAEAASURBVHgB7L0HnB1Xeff/zN2+q131Llm9WLYlS3KRjW1wA1dKMN3UAHYSwIT8E5I3hVASEpI3iR2/CQ4OYCCGgAMYbNxRwL0bY8u2itV735W0Rbt3/s93dp+rs7Nz753bdu+W5/O5d2bOnH7OPL/zPOc553i+kozQSA2M1MBIDYzUwEgNDOEaSAzhso0UbaQGRmpgpAZGamCkBoIaGAG7kY4wUgMjNTBSAyM1MORroNIt4VNPPeU+BvennnqqHD16VA4dOiRHjhyR48ePp/zU19fLsWPHUs9RN2PHjg2cp0+fHvV6yLhRR1BDQ8OQKVOpCvLAAw/IkiVLhD5x8OBB+c53viOXXXaZbNiwQa644gq58cYb5ZprrgnelyoPgy1e++6qqqoGW9YLyi/f1caNGwuKg8CTJk0KfgVHVCYRuPUCj45D27dvz/ub2rNnT8DbwAHS7ujo6JVk3DysXbtW7rnnHpk3b55cddVVctddd8nChQuDuHiHWy7EdxH1TVj9nHXWWanoeoFdyrXnBjCDYODGxK2ggBiMKgrsSHzUqFFB59q6datMnjy5J8ahe7H6GbolFCnkY3Hr5fzzz5c77rhD9u/fHzgDbAykjK677jq55ZZbhGttba05532lz0KDtY34zmzQmHclDNKAtBlABbOlj8BX8qFt27YFA/WhMuimXsL9mX4ednPrKt+yA3DUPzRnzpwAMM3NQI8ByYwZMyKBx80D9wAdA1v4ST5EOUmftOkbUWBHPVRXV/eKPiPY9fLZ8+BWslVAlD/cyAzIm6kB0oUdbO7DYeTd3t5elGYBwK699to+cS1atChw4/0NN9zQ532+DvZBFtIP040g881T3HCvvfZawETi+h/xF10DML5cmT1MlR8MNR1lA5h04QpxJ03jvW6fNsAZM2ZM2ujzya+blqVHGvwM9EiQQVmmunIz9eEPf1huu+22APhc93T3pEP85B9i8AfwZqJwPWQEO2PgURG2tbX1Umm6fghHxmCOxsDc94XcEy8d1yq9kLiKGdYkk6E8Ap82bVoxq6zf4spXGrAM0tfXr18fjCBpX/pef/W/WbNmFUW6tbIMxqvVdSHtaN9ntvLDTI2x4jcT8zb1ajammy3NXN9TH1Fpklf4I5KO1Vk4bsrGLxfgJz4GjFG8zUAvnE62Z8IxlXHnnXem1JjhMOAIErkBnL1HggwDmb1zr+E6yAp2oHpUg3d1dbnxRt4X0jndCCk0nZWGRCUaLoTrd6DuwyLzQOWjlOkWQ6VYyvyliztKzZHOb5R7a2tr4Ew/tFEuDqj5S9Uf6eswl8Fa51H1OBjcaF+XuabjNajg8BfFGweqnHHyAsjRj3Mh4qW8cQAml3gvvfRSWbNmTSoIqk3m6yGmNkgv3BZxVaXEEW47z11nF2WgAqOIks74GDPpXGEESAJRHysFCGeEzI1QedcA7Z3LiLCcSpMp73z8DN6i+ipleP311yPnpnmX7vvgXb7E95Hr6DvftAZDOOoDKaqQOTvKGceIArCzAY3xKAYdLqMnP/zigEvc+rV0ibOY8aZLn/xDVsZ0/swd/3H9WphCr6Rp0nO+9WJ2J+Qlo2SHBxvNhhsgzujAmEe4onKtaPIxGIgOG66nwZDvuHks1pxd3PSK6S8q79a3TfUTNagjD1FGWJY34kDNaX3d3Au5VlRUDNpBRSHlLoewcZgqTL/YjJ906UvFjjddnZKOzfHF0Xz0V77c/NqgA5VtMdKPtc4OZpArwSCYXAfY+HhdKZARmhkN5BpvOfunQZAChioN1jk72iMq70hzBoIGfOG2s4FZ2N19bm5udh/zvi8FcOadmTIKaIyukGkReE6cthzIYqM1sbL2Rz5yUQmy0VZ//5DKWJbgSmeF1EsssAszAsDPUDdT4oRj9MCcB0wFwDPDlkyj5UxxlvM7OurcuXNTWbSyphwG+U0xpZf+roqovONGe5k0Tp+GIdK/GbTQX+MwyHwGg+Hy860wOGRgOEJ9a6DQwTFAGYdn9U156LpkkugAtmQyGfwYFNp9f14nTJgQfA+k6eaBvOVDWdWYFikftDGFurq6YK6CDzQOwTSoWADOGEOx0DpO+gPhxyTZwTrHFVVnlGmwlidd3gEz+jUDFSy/bI6A/sk8DUyWvpupr/OuGKpM1KiZGFBUmwwHtzBI0Vb8qHfjJ3HqYTgYkcWpB/zQ7/kmbEG3Gw5wMbBzpTnXT3/fe54n9kskEsE911woNthZxzILMUbELBiPK6GFmUUhKolcCjhQfl1Q4IOkvIOdkZnKb6DqtJB0w3nnYzdgo11oH9Q6gJvbVjBVBnc7duzI2NdZIO+2eS55pX9EmXXnEsdQ9gvvoH7ChiJW5riAR9vS7rTpCEmv/mr8Gc0CYFdZWRnUU66AUup6JW8MLDs7O4OkcslfTtDojrBgEABevgwcsXS4EMwTFdVgp6h5r8FSpnDejeGZYQAME/Cjj4dVZqg7s4ERc0L5EKPrEYkjc83RHunW1jLAsLbMHMsJaSabv+HwHmtft94YBNCHkeTgzfT5XICkv+qMPJE38mhSZ9y0cwI70N8FPBKxEUHcBM2frV2y56F8ZUAQx+y53OuATjZYKSrvqCoBO3fARn/mww9TNg1GunDheMLP48eP78V0wu9HnrsXdqNFYsDIgARG7ZLLtF33qHt3CUHU++HkZryb+uQbQJqz+bFyBDprG/Jmc3gAXlzKCeyIFLAztUEUU4ibcDbmETeeweTPOtdgyrObV6SQwUpReZ85c2ZQHAM8U0NGSWmAUjYKM+Fs/nkfBcJxwg0nP4AZbWVqSOZWX3rppZQBUS5gN5zqLVNZ6esAHDwJfk4d8jPJLlPYcnhnkl0ueckZ7IgcwENvimrBHRXnkjAVbKBJOOIb6jTYlyWE570GU3tF5d36LipKtuXKRIASoJiJokAyk//B3h8yla3Y72DOTAe4Kmb4B5Kezb3GSZM6L2SQHieNweaHdWyAnKkxc5GWBqqs5NH9xclHXmDHaGDz5s2BKMmkfr7EaNtAbziYXMMsAXUGC4NRygvPe+Xb7gMRLlveATNrk3RaB5MA0+Wf8COMNF3tFO4O4DHAznVQ4aZMeNSh1tbuu3T3tGl4+iad38HmbgM+8k0ZDUDKvRz55DMvsKMi6CwAHsTIwK20wDHmH4BHJecbPmYyZeENCQKmSlkH48czmFVuueQ907KYbNJdLqpMd01mWXTQMs+EqdqQ8PIlwI6fKyFmi4s2zQUcs8VXru9NHQyQlDvlk8e8wY7KoAOgQqDjZGMCmSqPeIbTiBjQs/mhTPVSbu+i5r3KLY/p8pNL3jOdv0jbZQJDVzWfLi8j7vnXQNRu/7nGlgvQETdGLYPxe821Xgrh4bmmNRD+CwI7yzCMhNFSIeSOiIfDKIq6opyDaUlC1LxXIW3e32GzDahMPWYj3HT5ywSGhIkLeCNzdulqOLM7gGdtldln9NtcwS5bf4hOZfC5om06fPjw4Mt4zBwXBexICwupQlSRMAgDueHCBKgv5jwHi0oz27xXzD43IN4YtWYbkNXU1AR5ywaKMD8kPJfcvp9uzs/1P3Kffw1Q/6eddloqAoAvF/BDDTpcACxVSTFu+EYYCGTr/zGiKksvRQM7gMrAKt+SwvQx4CCeuKPjfNMql3DGOAutu/4oTy7zXv2Rn1zSAIxcQIoKa+rJOB87ai2LDybhgl/cvjsyZxfVCvHc+G5MpQl4ufN42SQ3CxcvpeHla+LEiYNmIMCuRkyj2feKhjH87LZe7O3C3EClumd0Zgwn2yi8VHnor3iRXvlAYZIwTRoKpmkMtL/ykUs65HGwzl3YB5FpRG99Lu7AA7AC2Gi3MMDx7AJgLvU84jdeDRjghZceAHb8XAC0GAmTqQ+Yv5Fr/Bq47rrrIj3fcsstke65+o+MRB3RNMEvbQF8mDeFNxAommSXLkO5uMNkTKU31DskjBJwN5WtyzABlXKkoT5nZ30um0oMIEMDwYdGu0Hsn+lSGPzcd3ZvbW/P5X694447gpOkOU36iSeeCLJ71113Ce5GdtK0PZf6SpuFJTVX0jPgIx/cW3uVOl/lEj+DvLiDt3LJc7HyYd+zxVdWkh2ZomHKWbqxiivGlZGJnYXmMk5GJDDCclNzDeY5Ozp+nLWcME6T8MJtDOOwuemw1OaqeHkH2OE//MGF4xwsz2vXrg2yesMNNwRXQG3x4sXBPYMz3kftoN8f5aOOmfumbcJkbQnQ4WeotEe4nO4z/Y6fCQ706f7gqekkOTdv3If9pZP0wuFyfQ6DfNmBnRWIkbPLQMx9KF0pX1QZ+SDLDeio96i8Dqb2iJP/KGYI4wAoeQfTSAf6qOCRKvAD2GFhHBWf1Vk5trHlLXwFzJYuXZpynjdvXoqZXnzxxXLPPfcMqIo7XT0DcitWrAimCcLML1WYEt4g9Zqm5uyzz5ZVq1YFQER9mfs111xTtLpDpQvAo9Iz0Cth8co6aso/evToVB7LSo1puaJT2oJ1cxuOVxprID7QdHVtH2e69+Xunm/+aQeTwAGodKDJkgTUZNZmAJ7dl3vdFJI/mKsBXiHxFBKWAYZJcW48Nm8H8wf4+pPYv5O+gjTM78knnwwGQKtXrw6kYtw+/vGP91IDF5o/+p/NXdkAgP47nIjy2s8td1mCHRkcDkzCbYioez7eclqH159zdqaCiaqXfN3i5J90w8zBJDW0DZnImIvrJ1M5BtOcHSrKF198MVW0DRs29Jr/4lQPBhPr1q1L+envG5i82wYwfle1Gp7bK3X+Nm3a1Ct9k4apOzsFhfyaargY+XHL794XI+5yjgO84FtjgIF0yy88b162asxyrthc8kYjwCzzIcLNnz8/n6AlCZNOfVfsxKgzOmqxjQni5L+pqSnQKiDBWbsxBwcjZ6f1OOQauFAOG2nHCVuufgzszAAFlVzY2g0p5fOf//yAFQHmDqChPi5F/xmwguWRsEk21Emxv6NwdsJzcOH32Z4LCU850bq4m5KkS28E7NLVTBHci2FkYiqzcpjDtLwUoWpiRVHsMsfJP34WLVrUJ3/Mx/FhFXO0PJjm7KgQ5pbCdNVVV6WcqJubb7459TxQN4CwATEj/P6W6KzcDBBcwx0kuvPOOy8Y/CCBIN3Rp2699daiSndIOPwYpA1U2a0OSnllnR0DS8/zgl+2tMoa7AALzrGyEXa2wpTTe/JuO3IUI1/r169PqT6KEV8+cSDd9IeUQntjObd///6ipldI/pn74cMq9Sg5n3YpVphig3mx8jVY4wlLw6gxAeHLL788ALiHHnooKFrUIKKQMlsftWshcZVrWICOwTAHzsal+D7jxligPxidmW6z7RJzVjTaYGo4GqHYo3bUmcWWdHJtqjhzXrnGmc4/UgLMt5hUSP7JD6PlOIAJMMbZMqwYkn8x64fyQUNJGhjoshiQ0ZexwETdBuAVc54uqg8MJn4Zlf9sbuzhmU2YCBsslQ3YAXA0kElx3PPxoXu362BZJ5NNXQbDpJy5dEiLcyABL86cV7ZOmst76qeQOc9wWoXk39SX9EeYlT2H0xjMzwBDsQcYg7k+ipF3q0/6iwFfMeIdiSN7DYS1UGVjjYmKKGwAALNj/gQghOmhf2c0zP1gJoDORtG5loM6GigLTQPcXPNciH8b/BQSh4UtNP+2lR2Ll4vRB4st/Vs5C7kONRCHZwwkAXZDrU4Hsj7jpg1mhOu9bMAO5oEeNopAaEDPmE2Un8Hmli8TpwGRcIvBbHOtMyTSwUyF5t/WbFH3W7duTVsV1rZcw6PLtIFGXgzJGshFe5NLBdAHTWrMJVwp/LIDSiG7oBQaPqpMZqDkvisbsCNTzHMguUURjIORMD9jJlH+BoubMc588gvgUQeo1PqTCpnz6s98pkur0Py7I8VMc3LMFdA+s2bNyrgZdLq+ni7/uKPGRivA1ai/+4GlOxiuAz1nV6o6Gmnz9DXL9+d+q+azrMCOTMFECh2BW+HK9WpgVWj++nt0V8icV6FlLUb4QvMf9QFF5YuPDU1EoWrTqLiJE2kBLQjfCaN7GN9Q/2ai6mI4u9HuYQOM4VwfbtmjpDrelx3YkanB/vHGUS8UY2TGAug4mxtTp8WgUjDvYuQrbhzFyD9qSeYDMqnU42oeCpmzIyx5AYDtPm49ZPNH/x3oua5seYz7fqiUI1zeYg2Yw/HyPBBTJFH5yNct3aC0bKwxwwUDDFA75coQ+FAx7x3IuRLykK7CKScAVQxdfjGYd7jeMz0jPQxkvWbKW5x3NgjJ1DbZ4gHo+A1VcoEOdWkx+ulQrSsrF3XGrxR1BfBEDZ4K6cOWb7uSBnPQGAl2dnYGfBcVfK4UnrdLtzNK2F+u6WTyT72kq5uylOysMJnm8MxP+MpmrwAlFovG3MJ+SvkcZ1QESBVLBVEMCTFufRQ65xU3nVL5o2/092bAmcqSz5xdpvgKfecCHXEBdgPxDRVaDjd8oXN22SRDq7NS1RP9NcpyOx1Dd8se9x7r4lLlP24eiuUvU72UrWRnhTfAiyvhMeoGAAhHR2W0VYoRl+UvfKVjptMZu34zNYrrL9s9Ze0vSaPQOa9sZSn1+0KMgkqdt4GO35j2QOejHNOnbqK+V7fOSvUNMiguJRARd6Hxp5Pg0rVlrv7TxRPlnonXl7VkZ4UBuHKR1DhqxQjwYQTtWq/Zu2JfkeoAn6gPo9hpWXyl+sgsfvfa32pTN+1i3KMOilIJFSPufOKIO4DLJ+5cw0RJD8TRn3051zzH8Z9NMssWB8wzUx3wnqVAcQa42dKKek9/zZR+VJhc3IaSYVMmoKNOBgXYkVGAhI4bp3HoHC4IAJb9cT4eHTOT4QLlKDa55Sx23OH44tR9OEy5PZdjGfpjIJatHaIYapRbtniG2vtMdcA7GGypgM7qMlMezE8+VwY45aTWz6cMbphsvHDQgJ0VCskpDsOiE7qjeMAyTjhLJ98rG1f3J9Fh48wTFiNPg33OjjoopzLYnJ3tikPfHigyxs1O/DZCzsY8BiqvuaRb6JxdtrRQAfINMhAvVB2YLa1ivodnpJPmi5lOf8VFX3X5fVS6ZT9nF5VpYwqZLAMpOB+tCwaEw+KIiolTOVFpZ3PLVuHZwuf6nnJgSdUfKrHBPmdH3ZZbGUyqo6/W1dXl2vxF8w/YmQRhYFdqiaVome/niAA1LL5NKjKQA/AAV6vHfs5WTslhlDKUyPpspjINSrCjQHEAz0ANwMM/oxkb0eDG+0yAmaniyuUd4NofQEd5B/ucXTmW4YUXXgi60sqVK7OOTAOP/fQXh3n0U1YKSobv3AXygiLrCZwuPniLAWAx0ilFHOQRXmgAXYo0+jtO2iOOkDFowY4KpdFQS2U7844Plx/++TGHZ+FNAgwcBvGfSQilBCTUwIN9cFBOZaAfYiGKtgHpHMOqgV4jOog/gcisY80Ig+8PgpdEMV2AZSClPZNEuWYDY+qrPzeqKEa7xB2YDWqwo6LMUtMALVPlmaQHwwP0IEZ+dFDeDWYC5LBYjTplu1jlKqf5rnzLVE5lAOQAO370Q/oyfXGgmWO+dVuO4cpFFQvPgUdFgWEp6y3OXCJAPHHixECNzsCgnL6RbHWDQWDcgcSgBzurDJgFABbnzDukExqUMC0tLcHIGobT35aUlne7kp/wKCXKzfyHr3xIZvQQfles51LHny2fJpUX0lalKoOBVb4MjTIxpxglnSO5R7lnq69C348Ab6E12L18A4nJBtjhb7zwFPrGQLsBdJkIkCAvXH3fl2QyKZ7nBb9M4crhneUzl7ocMmBHAzAqoYEBs2ySGvNcrnoDBtVfc1/pOotJnu77gc6Tm5dyuOcjhuKO5vozzwASlpVx84bakvLQD5Hy0gEd4IyfUkrt4XoiXwy03PqmXPYL+y/XZ9TC0EBLePAXY8y0Zb4Dojj1TJtlAjra0EDO4jPwsCv9uFzVmahiE4lEsAsVQgp5jkNDCuyswKgM6FDWucw9fMUPRIVxD1MZSHDJBtDh/A/H57hAMhB1k6vk5QIHzJiTDKL6H/0TqSAXKb+Q8pMOP5dgoAZ8uFves31jbhwj9901EAV0VrfF6N/pgI64wyAXbhOAA5Brbm6W/t5oPpyXqGeAbv369QHY5dr3hiTYUUl8rABYOoMKRuE2Z2KVihqKTleMDmdx5nKFoYUBz1QfYfdc4h1Kfm2AEsUwyqGc+Q6Y6HM1NTXy0ksvBep0k/IoL2XlR9z0h1JJePR9BorZjBioZ/zar9Rr2Qpp1/6S6OA3tGE+vIM2NoAifDZAylQfFo/rBxUqcWarC4AOiQmwI0+7du0K+gJSHj8IdacRRlWtra32WNIreSJv9i1UVlbKuHHjYkt1ZG7Igh2Fs528aegwWDAKZ8Rs5CV9qTh4TOqqD0uyokW8cSoejz3x3vyV8hoFdqVMbzDGzQAFCrdnuZQFwMqXGJjxA0TY8ceAjn6KyhOpDzACEFn8XUyCSZJurkQYGH2uo+xc0yln/1YH+YI+DJywtC2UD2ASLtyGcUGOsJCpME19CbgAKjaf1+3rxD99HT/9QQbEBsZcN23aJFOmTIldX54WJAXVTz31VH/ku9/SYMIfac0YpIEbjJIOxkeaONIuk3/4vFTtbZHkND2nbMp4ka6k+Hubxd+2XyovXyGV117QL3keAbvs1WwMOV+GkD2Fwnz0B+OHKdJXADzqo9DlChZfISVH2uSbKjfqjzk7G5QMZNnpd/ygXEEunG8MVQzguNrP9bd3717h118E2EEGetw3NjYGgwTu05FryDakwY7Rpo04YQ4AH9cU+L1+QGb//BU5cto06aqrCkxvqUCX/C37JLlpj9Te9LsiNeX3Mbt5Hbkf+BrIV42Za84BKDQXkA3iwtKeSQrjx49Pa8kJWLqqL/s2sFLmW7C4s+WPwUe+kk22uAt53x9gV0j+ihGWMtqOKAzk003d5JKWC3DcG5kUCy8dKALw6Jdx+tuwATsKGjXhT4O1rtsmNf9wt7SccZJYU7JdUxjsggZtbpWuFzZK7S3Xl7R9oyQ7Ro2M2IrRgUua+X6KnPqAylGKIF/9BXakRT82CRfVJjR//vzA0AVmBONjngZGaNJHeGkOQEe/s3k6pAJ+kAGf6xa8SPMH87H8pPEy4lzkGnAHK6UccAB4rvRY5GJkjc4kOzzmAujDHuyosPaP/5skzj9ZkjpK6DjeETAOM7dlJBwmJLzEzAklVWmmY5Tp3MN5HA7PMGaIDj8UKGqAk2+52FQAUEsHOhhl2VwgjBG/Bw4cCJLLJMEZ6GXyY3kOS5fmPnItTQ2YCpoBycKFC3NKhPYHLBnoEB4w456+wQ83rriRjg2IckqkyJ5zATqSdsFuSBuopBO1fVVLehNHq3mOWvhohdRW1AYfPpZF6SZcvZMmSOcvnisp2KVj4FHSaZH70KCJjg9wqJAxKsqTru1zKWs2K02MssyPjdLjABh+YHRxQG/t2rWB1A2TNDLGORDS+FBXY9rgL0rzA5gh1TOVQxsYYNkzYfme6Hu0DVoAwI8f9VYO4GZ9iCt5jSqn6yfT/ZAGOwpOA4crqOtpXacxb0pKfYk/GAFgl4mZejPGi3/wSMmsNNMxPDotNBDMIki4jP5on3L7CN3qoa2QxA1U3Hfhe/pluG+G/RTzmbwBcsYgc4mbeucH4PGz53ActA0/GKZLcerD9T9yn70GbK41rJq2kLSDARtu4b5m9gzmnyugyI937mDM3oXb1Q1b6vtCv/shD3Z82IiyLpAkdxyQxISmXm0DkGBya2a3vV72PHgTm8Q/UDqwI69uPi0PqFf379/fp7Pa++F0pZ0KBX3Ufffee6/ccMMNQdX94he/kHnz5gX3t99+e7B+B1X2hRdemHOdk7coJjKQbWQjdRfkAKw4Ul043xaG8DAfew77c59hnoW2mRtfLvfZ1pblElc5+WXQQrvS19KVkXovhABH2o2BjUl9BrCFxFtIWMrslsvA1668c9+7afXPIgk3xQG476PO7FTT2oh8UEmZwO71zZtk767dQcjvfe97wXonHriHgUKM6m+88cbgPtc/OnAUIXUOFLOIys9Au1HHhRJzVYBcmM4+++wABK+55hpZvXp1+HXsZxdYYgcqgUfqyoxQihk9IOdKepniTsd8MoUZeZe+BmDs8ArqNdPAClWkaYXSx5b5jQumBiiZQ5T2LeWmP/PDKMvucbd35o5k6tKwALvwLt7eGB3xdHbvCOBWRnVVdUZQGatze9ubuyf0kbTsLDLuTU3z2GOPCVJBuKLddNLdZ+q4vKMxR6g4NQCorVu3Lm07McCgXfMhpPMoCT2fuAoJA9D1Gej1RJhNIgPI6HOZ+iR+LB6T9KLya4wo6l2p3WD4Nm9X6rT6I34ABwZP3bum97gzX2pkvGKoDZIpp/2srFFX/IQHnMMC7MIffGLZLPF3dFv1uRWVqMhcHY2HO+TVfdsDBrlkyRI3aHCPtRt05ZVX5iUVZGOQNucSJDKM/4plsPOhD31I7rjjjqLXJO1kfaHokceMMAroAKRMoGRRIzFg2QfQxQEKAI8fak3ij6KBBLyo/AxWNwMxd/4Nxo5miXazJSiAIcYpzz33XMptsJa5WPke8nN2VlF0CFOnVKzQEw/++S6pUAvL2HSkTSp06cHeA3vkN7/5jSxbtkx2794tTzzxhCxYsCCIxiQ9OmQ+UkG6OTvLo9vBza3UVz4i5rG++MUvppJC/YdUhKrPwAK1IHvV4TYQ+UxlLocbBhcMWh555JHUnJ0FB6yilqDY+2xXNtJFOhwIQqvAAM+Ax6Qvu2aa6OcbMYmBeDL5DZctDHiWnvnjG+xvSjef1d/5KEZ6tAd1GDZIQdJDs0TbwUMAPPo2bkh2PPMLLwtBErznnntSc9d33XVXavkC7kb2TQ9E+1keinHNLMoUI4UyiaNXQ7Hn2/vPl64XN8fKHRvVdD3yilT/0dsCBghjh6GfeeaZQWcx44Ynn3wyYPgbNmwI/AGEuVBY7E4XlrIUqotPF3c6d7csAB1EHWDkcdlll4nNdfUH0BVjzs7KeemllwZtZs+0IXOugDgGKvmSDazyDZ9vOBii9SPAJgw4xMuoP4pgkAZ09DGLJ8pvOre4qs104Ufco2sACZv2QNp2Adz4gPU3AI0f36GpMA3k6BtRBMiFCZ7Gt3355ZfL448/Hn49KJ+HjWTHKNedf6i8cqX4r+8OAK9i6az0jadze52rX1age6t4o+uDDXmR6CCbp+NKR0ISuOKKK4J3SAa33HKLrFq1KniO85dNjWlxwFAYcVtnNvdSXZFcAQHKAughDa1Zs6ZUyZU8XtrL2o7EzCqTe1eC5Tkfol36q23c/KFRYAsxAzjyYMzQ/PEd2Htzg1HS91wmauoy85Pr1dIgPfqqPecaTzH8R0k1xYi3v+Jg4EF7wL9cHkb6qCqR9LIRgIcEGCZAjcF5GAhxAwS5ItlB9JNeQkM4siI8G2iXIp1hA3aodQAgV7VU9ekrxLv7Wem8/WFJnHqSeLoRNAvNkeT81g5JrtspoksNar78PvFmdu+qgiTgkjFHRlLXXntt6hXpuEw09SLDTVywM2ZKebAeLTVjRT0JMbIE9K677roBBbtizdllaIqCX1FXcduz0MToB6hNjSGSLuACyIQZnAs6MBaYpzEYNx8m4QGWxEPc+TAgywegF5WOm2ap7imL1U2p0ihlvAxuo3ZHoW1oE2urfPPw4Q9/WG677bZeqnz4GWlOmDAhkOwAvHD70XdIP59+EZVXA/Nwn43ym4/bsAE7KodD/+gYbqMh4VVevly6ntsoyRc3ib+/RXxVcyamj5eq698iiTmT8qnXvMLkyiABOubUkFJKDXio9O6+++5AenUHDHkVdCRQ0WqAEblpLcL9IF2fAAxhLOneu5nDDz++G1RpgAbgl41g0ISzbw3Vc1jKzBZHsd6TB8tHseLsz3jStVNcqS5bXpHo0dbceeedKVDlGwfsADIGuBBt6pL1IyRniD7lEu0dlfcogDSgc8MX+35YgR2Vx4fap+MruFWcMS/4FbuCc4kvV7CjI8HgWHQOEyrlfBlxY3RjKo1cylVMv9QR1F9SU755z7Ut800nW5uzMTTtRn7YXGHmzJmRDChO+jBFfvQ1fi4ZoNjVfYdfJDxAeSCJgUG2+hrI/OWaNqBRqFRnaaKxcqcmUF/aeuGLL7448GaDF5PkDMgsD334qkUeccU4xgZNhAsDZUSQgp2G9BE/UbUTluyi/AyUG53IRsQDlYdyT3ewg10m61bU3jAYmIsZFfCcTh2O+hKKK2mnG2nn2+aAB4zKneuLiguwo19zBfC4h9GtWLEiynvJ3Pi+kE6HAuDZHFsuZUE9aMCUbyXTh+jDRi4/NetOe4fRGvP8n/rUp1IW6+SXATN5MdB04yCsSYoWTyHXs846KxV82El2YVE8VRNlcJPLyCic3aE2ag2Xz57LXaKzfBpzTzdixdDHjJfMutXCPvTQQ8FRPdlAjL1coWz+LF5G4sWUOOMyWqsDFxSLydCsfOErzNT9prh3n8P+B9MzRnL9PVigfuhDtKdJ9oAWdWogisHLVVddFVQlAzX6OAZu4QGbAV24Tcy9FG0xbJYeUHmMKmkkgIGPfqDmENI1JCN1G62n8xPlTgcxlULU+xG3/q8BPuJ0/cusW8mVWbe6Obz66qtT6xdd9/A95y/yy4VssMA3AKNKl8dc4szHL/XDt0geuCJx0Y+LlR/isvij8ke6/AYj0XaTJ08esKwDdliAWl+irvm5RHu6hGUnP9z5mQozbEnKIJH4iZs+UkwaVpIdlcho1BoHwOODoGLjjlKLWfnhuHIdqVv48OjI3IfidbCoMal79ywtty2yWbdibcq2c0g/NX6bGk29Ll5St7erGSV+wwTxKqqC6OJKdG7adm/93cAFBgrxjfTHwIk+666XdK1EyYcxunRX/GQiwpm0EeXPfWfACB9wpc+ocOXgxjdgau6Byg/1xI9+5A4a3Lk+d37frEmtbxmo2bOVg2f6oBH8mV8xaFiBnVUYH4L7EaESoAPZSMX8FXLlAyJeGBfS2o4dO6SmpiboHOmeSW/atGmFJDsswrKMhLaCUdscEO0Z9xnGGv7I8qk4AwricvsP7hgNZVKZZ7RuPbpP3pd4SI7f/kcysWKsJO5+Ti2E9VNtOywVh7bqfYV0XvTnsmviqoIHaVYPNgi0ZxgYTMe+kzj1Q5+n7Iza7Z74XGAhHt7xM4ALG67Y92n+uLpEvcJozZ/7Lp974iGPlg5lsHrIJ75ShiGPmfpVnLRNsrK2tWucsGE/AJHVG+9cNabr18DO3Azs7Jkr+XIHG8RbLKAj/mEJdhTciIYGkIxxmXs+V0DMRts0lK0Hw83uiTfbc65pM0J24881/HDzDzDByNMNOrINSlAh0b4waQYnxAdzRDpCmuMZdz7edIwEcImybl159GHxbv66VCy+TJqXf1A2qdXa5GlLU02UlHN0EWhSOn51s0z3/q/IJ3Vbp1o9iLgI5ObVmH82xm8MiWsUAXxIqMRHXDAvU2FF+cefmw/XD2kAwoQ3JgjTpC7ThXHDZ7u3OGg/A1TSNPds4fvjPeWnjgohAMXajXLmUz7akjj4jlxJzPKFsQrp8I45abPspK2Q+MKDCb4V4nPBzrQNFmeh12FljQkjygQKfEBRDRdVyTQ2zM6kBGsYwocbMip8Jrdc8kE8wwnsAKj+WEifqX1K9u7HnxbZv0FkzhtiJeGppOc//0ORz+q2dI1TYoXJ1RN9ESk63KdhTrzLBFxuWjBUfoQJk0l2JumZXxgx6Rozhhm6KjM3nmKr9UzKKAa4uPks5B4AoS4AjHyoWGWB9zEgiOoXli/a2drR3NwreWG+jvalrlkzaAMdGxSRRqE0rK0xM1UelWzSGeDF0UCM0JHEws80hMsA8u2AUfmJC7gWFkmEvENsF5UJ0C3MYL2a5FzO+actAAFj0rHy+vBN4u1bL/7c8zJ6h+FbvH7taPFWfkDk/71R/D99VcOx909xKdwXMwFOppRNGiE+viWXkRnIGegRD+m4ZGV23dz7YjFyi9MkDAA3G5FXGxQQjvZ3eUO28HHe2yChED5DnVOeQuKgrPwyAR3lcftNVH1Yf8AvdUZ94Y92DLc9fopBI5JdMWqxyHHQ6HTuXDslTIROVuwPrcjFKyg66gamyMdWzoTqLryjSdr8Hjsg3k3nin/GB9N6yfgCAxYFPv9t/5TRW74vYT4GNvkwIxuxu+lbH3dBj/cGeAaAbphs9/SJXL+ZbHHa+7CkQv7Ju8vUzW8pvkPiBBSsHSytXK/Ew0DMBZs4cSB9WVvlGjZT/PQt6rZUADesJbvOh9dI113PSnL7fvF8bYbaakmsnCuV15wjiUnFmfvI1Lhx3tH4+RwvYx86nRIjDnuOk+Zg8pMPI+zv8uWkVrv7z0R0ji4uueAThBk/V+Tp28S/8u/Eq8wuicRNx/zB6JAISNeYUlxQAgyiGDQDMvonDNxldta2ceO3PHKl3xNvFAC5/vK5B0jJp6lWAf103xdlAlCKNeikzomP9AsFGvIcd42jATrpQrQj6eNOfozIH/VCuXMhwlGP/UXDRrKr3tUs0779pFTPmybeXF2jUuksMTx8TLp+s0kqdDNoNoceCsQILt3HOJjLZ6PLcpfsrI7Jb7a8el+ZLf6qT1iQrNfOzk6prOxtW+bteVX8lSoZLnpz1vC5eoApweCYV4HJwdhcMsYXds9F0oKhGlO1uAE8Az9zM+AMM1x7zxWGbP5c91zuW7qS8mxLqzzf0iab247L4c4u6RI/sOgbU1Ups2srZXlDrSxvrJdRLi/JJZEMfvl+6TtWpwCJC+LM3910001y8803p2KxUwpsJ57UC71xF3UTN5SOP9DetAXXdGR5wQ91bc/p/Ee5G5gymLI+FOWvELdhJ9nVbj0ok7/7lLSePU9qJnTv4N+rAvXonooLloi/ZZ+0/Z//ktq/1XmQASKbMyw0+XQdudB4Bzq8ffwDnY+46WcFu8528cfMjBtd4M/3UUn0Jn+cWuhtfLQkYAczg0FGgQ+5gFGFQQnmlwsDjAtOtD99G0bpblvl1oYxYNctzn2n1ust2w/I/9t+UBoSnixuqJEZtVUyoapCJurPKKmgt729U55sPiSvrNslnfriBj0V5aNTxkjC84K6KvT7o9/E0Q64O/Gwxs0lF+Bcd/KGdBfOIwCXDXhoUwYxxZBaSwVwblnd+97DQ/fNELn3dIQ2RSW65lWz9fSezBP4np5cntAz7o7ftlqqPnzhgNQA67OKRYVKd7bo1wxeyu25WPVUyniySXXSqftbjjqxiDZOXgCdPvFW1oh3QE/tSBPB9773veAwWhgcB9MuXrw4YKbcL126tNeJ1eEoAA+YbxjQzJ/rbqP8uOBlcaS7whDdAQ75IG4kHeqA5zBlkkjCfu3573Wg+3UFugvGNMgHJmeezkioIVCTnjiypJ5fTVDnD+xrkS9u2C3vr+yQa0clIiUVAJqDn6mvTPWDP2tf1HzpVJdvetObMp4ziaQHscYtvM6N9G1QECVVW73YNTx4sX0wDVBJizToX7feeqsFC5YZuKDaH9JcKvHQzZAHu3H3vSLHFk0OOqT70YTqIfWIirPr/hek6n3n65kW/V89mT6CVCZj3uQ7+rKlDAZyllw5PPOx8Mu3bFaW/roa00qXns4jdC8YT+chwj1dnH4XMkY0cfoBlrowHlNjITlwz7qne+7R9XppKKxeNG9hICJfLmMzf3GuUf0+3feKOhWw41co2K051i6/89stsrKxTj4+NXejp5aWFmHnIzbvev/oOlnv18kHWjvlp/Omy5y63upeA5dsdRQXrLFMJi6kMY7h+fjHP97r5AIDuCgJGzeAlDaLqkO3zVgiQF1HESBne2HyfvXq1WIbQJOvRx55JMgjZcqmGo2Kv5hu/c/Ni5n7GHE1PrtVDqtUlwslTjlJup7fKBVnL8glWEF+bcQT1THzjZiOXCy1aL55KHY4M1xIx/DjpEedINGwqBtDIHYzId7bb79d2MrL3LIxpThpwUgy5dXXrb+89ua0EllUGl3JpFTosVS9SBeae/Vj0saDZSjnEXLETy4nzcOkAB3AiCvlMWYcBrtC+65JG1Yu0qNdokCPPOA/HIawuMWh23Ydkn9Qie69aphWperHXAnmzd6kE8arRqiiuz2WayQna/tc9uJm+TsdOL9jYlMqWvIcZ5Dm5j+dVGeRnnPOOcHBq/RVNxzvDezMr3vFr31Lrnv4PhPQRZ1yft555wX5YRBw5plnpoCQQVV/qy3DZQl9MeHXg/xZR81d9SdGVyxGjkOedv7ka92TuHH8F8MPH04mpphPGnxYuaxLA3DplGEJLp+0SxUGxhfF/HJJ75e//GVwqgAqmCuvvFJ+85vfBMEZkeKGpMMItRiUbdQsVfUiBzbnlNQxZZoAdi86slf8Kaf1cnIf6FuAO2UF7GCOzPfAsDIRTBG/AFl4dB9WX8Zh5JnSov/FJfNLvsJMPvwcFec/Ksh9Q9WW78sD6JI6NWJA19jYmAI6S6dWByIfmjxGvrppr9y644A5p9SGKYc0N0hEcckGZIBemNi1xH7hd0h12b6jTEBn8XHKOQNHI/oI39DUqVMD0DPLz0L7hsVfyHVIS3Zel6qIak4UMTbYVVaI33yskHrNOax12pwDxgjARD4Axnygu0cnI03qxBbN28jcRs0xou53L3EYWbZMwRi+853vCKPPM844Q6644opexg7UB8BQDMo6gEGiqFMVESrIihN9NVPaMFgIhm9MxNv2nMhFn08r2eEfiZU5I/qazdNdfvnlvIpN9I0oKrRdKEsuI38rN+maObxJndnq/D93HJQ79zXL5eO76zGqPOncALrde3bLhAkTUnWfzu/bVKr7hqY1Tq03f6dHwotTT5TDBhbp5uyQ2kxys3kz8mH3dnXzZnVs6sRMYBcH6IibfLqnnD/wwAPBMypy4rjttttiGdq4+SzVfbyvq1SplzpeNUjx1GoqV/IxElFLrP6kUqobUWHR0WHirtTmfngGtnbtz7LnkhblgIzZ5RLW/MIMYQaMOgE9DkstJD6LN+qajfEGYS7/kni//Jr4894YFUVGt0AVO1pPQ+jSdU+jp2f0y56ebE4ueoLComlj5Afrn5FFY3WpTctuSUgyY1heukCHCsyV7GKVM0MKWSVgJyz91u27vKL9bLDmeO1z+8KRNrlx2355Tx5raul7+/btiwV0lvBbJzTJn6nhyumjamWySqHZiDp2VZfhcsYJb2GIy20zQC4OxQU6i8s95fzcc8/tY6Bi/gb6OqTBztdRc8XR9lQdx2Vo/t5mqTh3USpcf9xs3rw52HGjVGnFLTvplxJ4Cy2fzTMUwlzd0SfgDuBddtmJRd2UP59F/VFlg4lny6u/4BJJ/PLvFU32BUf4RMUT5Uabkk/vhR+KfOgHGaU6wl865YgeA32jeP/4VfHHzpIvnK0GGfd/UeTYQflMxxaR//td8S/6E5Hl741KrhfjdD3AXHPpX25Yu3eZsrnZNTw36IKB+Yl7vUaNUT6oSwRyJQO6yZMm91FbZovrPZOa5G2a7hOnTM3mtQ+IxwFwN1KT2miTTHXqhnHvCWdSpesevnclS965kqR7zzumRvLJC2GLSUMa7Kioo0unS1Vzmxxvqo1db8k1W6U6YnE55tum3jKLo1/84hfBrt5EDuNhDigbc4vKCKMpOoSNyqL89Jcbqk5XAuyvdOOkk0n1Eic8fs4///yUgQrPzNEBoli0sUM77YjRSjEoDtiRTtdH7xTvH3TObdk1uqvPCaOGbHnwXrtfF6R/Ug5WTZGDaU6/8PdvlMS33yH+6JninfpW8b3uqfreyxTO1R2F1OWF/xbv/i+JfPTH4k9a3Ct5l2G5Ul1Un42z6NmYYiZmGG7vQoDuL3VZ0Xm6tKAyB2MUyoyqn3bMB+iowBqdw1uimqKvbdghX1x6wugtnfk+YXhnVo5m1m9qS95nI7etsvnN9T1xW/x2tT7As90Tr+s313SK7X/Ig92+K0+Rk76qDOG8+fHqTlUcFWeo35qqXv5tjZl9oEz8oh6EkAq4Ry32+OOPB3NAvQLHeKCDmIouhveSemFj6XIl90PKN4+oc6+99to+wb/4RZVyikxxBz5edb14n3tW5GZd8jJ9uQJNFs3C8TbxXrpT/HOvF3nD7wtG81gGhqVyb/1q8X74SfFPf48upanLKP2hCZGZZ4g/dakkvvU74l/1dyKnvDVVI8bYUg49N5naJLXoWdWsW9atkeCrQuXaQ0gipsIkHuoLSc5UboAdAxEDvUxpWZxR11a1kPz+nuZg4XfUe+biWttag3RMSjVGTX6oW7O4jAqfzW2p7rZyy9Yj8gX1GLYKDJvvZ4sr3XvLb7r3xXI36dGNz+0b7r3rZ6DvhzzY+brzwd73nSETf/qieJeO11Ft+ir3dx0UXyeUa258Rx9Pr776amBKay8WLFiQ+iDNbcuWLQWpc+hE5TBnVg55sDoNX21AYAwp/D7OM3EUEj5OGuYnLtjh38dQ5Y9/K3LvX4n35H+KP/NMkQnzBSBECgtOKz+i8y5qjMIuKv6Hf6Tby58ARUAcSgHejhdF/uf3Rc76SOAe+0/310zqaQrePX8hfv344Mgh10IwPF+XDoDecdZsmXaPgvGDh+VY1Vh5r1cXAJf37z+XT+xeK943fymVZ35GCzY5MGYw9RntY2AXO89ZPGJ9edGY+l6+SAcgsysvYdRIcoAr6+dskwe79oogx4cL1CDmP9QC9PrpJ3ZxijLfJ1p2QwEE7T6TVGf1ZYOGIFCJ/voLUEuR/SEPdlTasQUT5dhHzpfKb/xKKpbOEm/GBP3ATlSnp3vfsTempzsn1Nz4sRMvYt7de++9wg/1V5TEEDOanIEOK0s+CqwJv/CFLwRrxEgLg4s4Ww2ly1eKWabzMIDu+c7ZUabm5uaA2bJJNmcbYrCRjlEXq4hx1Zi90rvsS+K/+Qvi6/Zf3qZH9QjnreJhrQkYzlolcslfiDRN6RXEfQjU0Lo/pPctVV2e8SH3VW73y94t3n99QPw/W5dSW4UjMImrl7tugTbj/j+QyYd2ye6xi6Vt/mL5rS55WLFihax77jk5afHZ8tvDY+XsKadK04N/LnXVTVJ33c9TUTAQoV2KKSF8a+ch+V1dNA4w0BcAuXQAhjtAB3FvZSRsIYOkk1WV+a+qOXLBjjQw38dq0V0GwoDTAI78hom6YQBCfoo5MKCM6Yj0WNA/WGlYgB2NM+qsRVL7xuXS+fOnpeve50UO69ICFoLqkDlxss7rffYqSbBBdBpie6XHHnsspbpkbgcTdsDG1JioNgsBikLCshjaVKzMLbJjho300xQprfNQm7OzD5jJ/lwn/NNWUswXeYEdcScqxJt3gYj+kOpyIdTQ3oN/IzJXVaIxlzNExR+oNRe+Wby7/1SOLr4u5cWdr+vD/NWyk+OKjk8/T3YnpgXrrVjbx3KJPn5R3Z5ypdQQ5u91b9rPPKaH0HZ/g7QTZvfFoBd375OJam0KKABy+RLA16cMOUTW0twidbrnJptMN/YsQid42HwfN75dAzvm71yiPxerbtx4uad+iBsbAisrwFoOi8LDec31ediAnY3gq952lvDLlTDYAOwANAgDlbCK6uqrrw4MH/KV7ooFMgBfIdadQ23Ojo/WPtxc271Q/0iRtv0acdncL/3JHZ2TP5iYAXOmg4NhPPYelZs7skdiDdSBT96a00kKacs5bpb4T9wqHXM/ol4cdUhPgF7Sl0p0wbl8Oj/YqSb+cmx/AHJ4ZeeWKAp2ghk9NZhTDMJ+fo2eSFITSHZIVIWAE+kxj/6DVk9OUrVvR8fxQEVJneVK8I98wrnpAGAL/A55Rk9TuFANZVxyzfdd96j7UktXtClaIwCPwVqvNo7K0CBxGxZH/MAAytW60O0nMLFc5stcNSYgbJIdFqKoRMyAxk1jsN8bGAwUeOVSf4BQf0uS5K9920vi/eTTUn3yJblkt5dfYM1PqupUDTs6Nz0lm0/+qLSOXxL4Cc/Z0c9oj0BtOnpGRhVrKhEsP31dz8pVpVjBQrR5l3iHt4n/0Z8E3kxtZukxuMzl+4BJI6X8YUtCZic7pF7zmA+RbjH6G5qbY0lfpo1qkD86SedC8yD6lDu4ySOKYRVk2B3x46pdyrmlc/mQM5WDXTIuuuiiTF4yvstXnerurM/96aefHswdmloV034DZNxYgJrrICTfObuMBS7RS/JaCNgFmxto3jz2wczBXL52z4vS3HiSnNgoL2YBFXi8rU+LbH0mMIDxanWHEd27s6L9mMxe/UcBIB2adYm8Pve9GuGoVKRIX1V7X9FjxtV4Rq05M5Ia13ibn+g2uKkhDoVVTn7oOCb+xAXBgnfBsGba0kBCNUk4V6AjDyaRbFFMna8p2vwbEpqBl83H2XO6vLPkaP369YFGBz+oFpmjZ5E+c7/c892gskXrE0WkO0pxfVNbb1UqgDxH51izEeUZAbpstZT+/bBQY5oKM301lMebfEGG3ANwpmLFQCXf+Triyled6u6sD3N44YUXArDjHtUuzALmBePCLVegI2/GnLgvd8qnfMmHHxX/wdXiH2vVXXzUelCBzsNAQVWc3srlkrj6ym73DIX3D26WxknRasN0wbxdLysHf1Bk7Em69EDX+ynZXGHbsaPidx6XI9POlqpje+X0X10vh2e/RXYt//3AH0y44b6/zrwDzLED4j13u/iNU/rEH0TCX/sR8Q5uEv8HHxP53DOBM+0NmOQzEGSgwa/jsddk8sTJgUoOUCqEADmbSyMe2hiAI176Nt9AOjJAbW49sdEFft0+/ZyqOL+4cY+8qJth1Gnbd6hkXavze+9prJIP1Gbf5SZd2iPuqh0f6pVABxssYJcryKA+MlVlMdeI5TtnR17cnfWDramcDsbibds09kMfys9KkLZkUAC5c1eAe388I63B4IxxOcUr6NZ/ba10feNb4s1VK0oFtb6zYwo+hw5L55e/KolVZ0ni7VenT0/nzgLVYHofvd54r9yjYpBuJD1jRS93e2CZg9ezndjx+olycN5VUndwncy792Oy4S23BhKUt/15XSqx0oL0unoYoPzmhxJsVI3KMh2ppJecdnq35HfPX4pc/uXAZz5A1zsJryjtxSCNOSz2VDWi3+FuEmg2MKXvdoYwy8r3iVe3y5pjHcESibOadKDj0PN7D8g39nbKv472ZF6FDUMcDyO3WWtgyIPdYFFh0lL5gkzWVs7Rg318OQZLSWyMdJctWxaoeFhUzJpECMaA8QxSKAwiH2LOzgwFwvnsz2eYFvmweTnAD7DFOMQGVzBGKFtZk6t/LcnVv5LEBedlrBJvzGjxzl0l/uYt0vXPN0vFH34qWJYg6x4SUcnMazscnI2X0B1Tmv0aGTVXwadnt5R0EXuv3qsSlR4xxEnnaahCLQjVAD/1NjAaGbtAqnTJwPx7PiobLvtPnadLsxUW837P/0CSM5Zr+CgIT0V74qZ+nHjr/1fanvlvGTs1c52cCJTpzk8Z/hSiPSEF+jX9221TVJAP6gbIF8aYOgj6TU1dn8y+9+Wtova3csW4E+ph80SY+Xpi+mzd1P6G5g65pbFLpmcYM1i4kWvvGhjyYFfsEXjv6ivuU5hZFzf2+LEVwhAY2drO+pxnxRlx73//+1OJu2uJUo453JTLnB1AR17cNuMe8DOwQz1l80bpiui/+JL4v3pYEmdES1VR4bxZqmrcsEaSf/QeqZizU3dcOT3YU5NF6cCJ33pYRm15Svxtj0liysniL7xUcaYv0Hh71aS9ZZf44+dFJZNyq+xql/baSalnys78lzRMlorOYzLt6X+UZK0CccqHc7PmF92iDqheAABAAElEQVRzcdFvHY/ObZXu9LLgIqn+xR/LmD/SucAciPqnzhkUmSVnQvEWLQMAVYh6n2wQfuLEifKabjJhUhw8Zpz2+zhxt7Yek0TPzhbWN+492imHjnfJ+WqhyU4u4Z1aqG+L+0OjkvI53fziv5u0UCOUUw3ozPfQJhtdD4ZSAjLlQKhT8yXmV4xMxWpXcy/kCoC4cxyFxFVIWBicO7q3uMwgBaYLs7Vne9/rqowt+e3vibfi9F7OWR90bs3b+5j4VVMlOfqNOg+mdd6jHkTB5U+Yq7ut6BzfzBXi67Zi8vC/irQe6hutqi+zAR2BKlr3y/GGE5IbzJcftEsXje84vENe80bLPkf6C15iaXlwi6os1NAlBwI0kxq2eczJMmpd9y4i4eBI0SwrwLiDusZyEzcDOwYi9ptXXytTZvQ93DQcZ9xn1NiAWz40ZvIUWTxONwdQYlDE70/XbpeWx38VuBnQMTeIQRdEX2OOm2f22ZyqEt76rsihReB/5C+6Boa8ZMcIj99gkPBynbOLbtLCXQtRp7JeyKXwXCLAVwj4mdTkplGO94AcjDeTlJy8W+fKTlmcW/Zf+YXuB6Zqx0kLNZyqF589LJVXdW8TloqosrbbmlJPL/frx0qLborR+NS3xVv1MWnu0DAqlY1t3aobQ0+Xtp6dQmp170co6rm6/ah0cciskklL3x53hnyj8XSZ2dks05rOkaoju2RP5Wmyzhsln+h6Xf48qRJZ60HxRqtBShAy/l9SLTN37lYJebJKpU99S4R9PR0C4Ewq4mr3eDHJn3tU5kjbl+xvlc26S9K06vzZHVKcSXLEHba4DD/jJ4p26JFj7550Yj6uU0G9TnHL00pi/Rxr26DwIN3mv4MTwMc2yaP798r8vtrQqCRH3HpqYMhLdpTT/QDKueULAZlilstVzRUz3mLEZYOXYsRV6jgAvExSsv9r3Q5MVWJhYhTPDj1G3L/4oprj79T9XY/uV5Ca1vNKDUdqVMJqC1k88HbRW9REd2Pgr2FUkyR1ay55+jvBIu9g0TlLDBonCSBnQIfn8HNd2x6pOFnj6qHK6hq5Ztq75anqafKBo2vkgvZtulD6qJzSsk7elNwTAN0rXqOsqLxEgf6oSnXxT3AgiY72dvHbWmSSSkBjxk9UCVZVrT0EqCHNueBm70yKQ+pnnh7pi37M4Igz5V491tsC0sL15xXp85WjbeIan7SpdD9Rz92cNXt2IJmSH0APVakRfR6QY75w69at0qBce78uvB+h3GpgWIAdu1gMBioXkCkXdWpUmxlTi3pXjm4MYCLrU6Urn6UFMYg50Dad6+EEg6TuaNKLRleKv6+jl1PwgD/Uh3pWXUJVjomqmkCSk9cf7vbbdkSvmVVhXrtaHap61J+4MKU6fu/Et8rCjv1yaue+VJqU0Yf5qkQGney3yBv9fXL+uPdp+PjSVFLrpKujVbyxM09oYlQ6hZCSkehcQsq0/gDA8UO1jObAJGv8L66vltfVyrEcaG9nl55c3q0CDvLDXKpKd5WVlcFAhL6COtbdcQapju3WAHmzBC0HVX451GcueRgWYDdYJLtIpphLaxbJbyZppEhJ5B1NuczZpS0AqsPjreLrmjHRJQDTp01LGRf0CnO8U1V82aUemDyj/EX1zXLMMRKxuLwaPWP8cPTmvf7Sd4p3RM3+Ve0JdVQ2iqeLunVrFF3clVkH5nXo2roDm7qPBtKwzNHdWb9QanTXkxnSGsTHX0LnkCqYL9T1c6Jr5Iwm+O0yN9ksN417kznFutYc2SHefCeMWpPaXJxFYAAH2BnIcQ/QzZkzJwWULiBco5u87+zoa9RRoccNVXW2SiXLNXqA1dIp9nW3LtD/yIRua0uAi1+tWrru6RHMATgsPcP7iFJ+wBCJH1q3fYcs1KUJbvmKndehGF/8YdcgLj1qALbW4sNAegJUYOiMSIv1zAJqOmsh8VkVT+thkHRy2wMRa6w4z6g52Lkkrf+2dpnWoiPJV3fK0Y07patdt1HSCfPKOZNl34wGOTa6pmyWQFh9uNeynLPDEOOxfxPv0X9TYUkXgWMwUqGSznGVdJp3iq+WinLxn4qc5hwdBWNVBpaNdu3aFcw9jdq+TvZXTZbQ7Jymh2SQPhb/7I/rYu7/EqS0ysapcrx2rFS27MkocXlqockCbznnuqA8xA6o/fOolfL21hPqVdxTqveahu6s6DIGU12e5h+Wfx5/iXz68KN4zU6ax+OVDbLvaFLqki1SW1UpyYbpwfwVYMYPCg946BNIcmHmz7cIoDBg+Gh1lbxrR5u8a1y9TNvwkFz28tdl3LGd0lI7Qdoq6qRCDXoa2w+q+X9SHp57jTxyykdlVNPoYL6fOAB7QAhe4j7DS8xSMlsBH21pk3+ZPSHljXig9h7rTOKHXKkOSQ53W8hO+j9au1E+f3qjjNF6omwjFK8GhsXemFQFHwO/UhGLSpknGGjKlI/jP3hEOn/2tFQsmq7HHI0XT9fuBHwSZn1E50peVzP0vc1S9anLJbFy3kAXJTJ9Pnao2AZHDIY4psm2M7P9RUmL5RMYO0AYIqxatSq458/b8CuR739EZM4bRDCoSL05cXPowH4Z07xO931Uo5CP3akL72Zh6SFd/3KzeIsXnfDYc8cIHtXlHJVSnn322SDtOdvukl2VU4LdRBjlG3kqrHj1ukJrYe+Nhe196rr1WfE2PqImgBOCpQDejt/0Pok8qUsJdD4w2Jty1tndRwmlAitDVkl0RfWb5aojr6UsMT0FWhh9grV8ulVYIJGxS4rWQwD2Wht3tVbLr3d8XarYBzMDJXVLMtn9iuyc/04N5QXAVXdog+wZf4bsnXVZEJLBapioo7gDoD/5zUvyqfs/pvOco2Tr5DOkUyWtKJqo6c7e/rjc/aavymuzehtchf0b+AXzoOGXzjOLwpeMHyNfijhZ5Wf7WoKjf94U2hzaCZ66bdU5vnv2t8izZ80PgG4E7FJVE3kz7PbGpBZQfZQS7JDGyoGi8uHrXnztn/u2JKaNk8ordaFxD6UYM9JBY614y2arVZgv7d9ZLRWPvCrVN+jWVGVGppKOMvsvNKsADCDH+YAuAXBht+D94/8h/uO3iHf27+qhwFqHaaihsUmON66UqmnLxPv3i8V//3e7weRA96LzNMGEw4CRTqZPnybefp2PGjU2OJPPgJdwvq7R8qb3kff6RNmlp597+qvY/bIaurzUDWzsU6n5DvqBgqBo/vylv6Po2bcsflW1jE+2SY0agPCa0woAJTQPdbWqEu04IodaFXkXv0vGvPojXdIwV1r9KpnQdVyBsl2qFKCjLD3JaJ2nyyT2bZD9i94pVSoRYy1KO4/b/bzsW/HngUYmXCAADqCLS54C6dd+dqV8c8plMn+cljXV+fvGsHfMPNmnv/OfvlEm7X9VHl7x6b6eelwYdIXBtqq1Q0YfUMlU5wmTWldHmurkhbYu+VEE0BHNWyc0yv/oIPNFPSlioY5jTFJ0B3asv2vWk9R/dKhN7l8yNSWxps3YyIs+NXBiiNjn1dBywEiFzlNsicBqyTqoPQ/UtU8+dEK8/XplyDoS9EZnGf2TaeVkLXrY7ZgDx6T9az+Vmj95+0AVJTLdsKoq0lOejoAalo+oi13CDRCEUqDHziNPfENEwSED3wzCnOhzKkmc+RE9EPVa8f/gV4GBiqd7H7L/pUthM/fuuSQvOHCWEzxc8g8qUIyLllBcf82HD0vT6NEq1akkOWmx+OR/yZUK0r3TdsOk7nVey1/7a0nM1jMhD74c7NJCP/FUWqtUIBPdMNrTecrR41V9q+S/4Q9EfvsTqW/dKckJZ0pi7zppGzO7l9Un/uqqNG2dFxRdHuGd/ympOXI0ODQVleHUljWy64w/lIZR3ao9/EO0PwOAMMBg6Ug7VKl/ZP8KzR9nx1WRT9YYfuNy/QY+Jm/qSMovDx6VhfWqZs5AxPXa7EtkwaaHpKV+sryw+N1pfVv7zv7tZrn4jsd0AX61HJw8Rto0jYQOHg/va5ZnDx6Rjvuel+o/vFo8tQ4N0216puan1u6Q+5tb5SIdWIyq6G4XVJ2svXtZNS8v61ji35qS0rF9q2wMRzDynLUGhg3YURPo/K1jZq2ZHD3AIPkIB5rC+Wj/6/9WleRc6dJTko/26P+z5RE1mTdvrPgvbZHOXzwnlVesyBak396HmVyxE2bPzu985zupLc6IH/DptfOLSiveHdeLrPpEVqCz/HV2dgZGBoEEuPy9It96u1S84zbpuucBSSxaYN6irwASBhQh8jpUthqjQKem62HqUhAF4EwCZt4HacxTa0d/7GyRc39PvNfuFZ8lCZloy9PBXpVVY2bJzrrJ4necmHMKQF6FOg8wVIMWAC6YlyS/ahzj63l223fulVpPdwXZ/YJ4bCmm4IMBj8cpB2NmKOBeFUiFnMrepNJhXUe7JHTT6M7RJ0nD/FW6L3Vv6S2q/Z9WgPjcur2yVzednFt/SJoqK3QDZT8wSNmtRimf2XaH/OHp7xZfD7Kdq/ndpm5bVfqaqaCUjdad9Ca54Ol/kldnv1naasek9X7Ffz4o9XsPyytnLtA+caI9XletypL5U6VepTvRNDv++DtS+f7zpeLSZX3iunnhNFmjG0CzEfRTzcekAi2LSrlNCtrX1Pryd41BjfcJN+IQrwaGFdjFq5L8fKHOKQdy85F8cbNa4jHybwx2/AbsbcI7U15tojxx6knS+V+/loo3q/pNGUg5kKvaKUV+AIclS5bII488kgI41IbuQnjvga/odlaX5JQ87QLgBZI3J3SPmiRe9Q5JqpvqpNhOI2N8bMQcZnX+dgWGt5wAHzcCX8GurmehOO42z3dky8vym+bJcu77fk9af/onUtsDdr6CT4K1d6ruC4AVC0tASRmur3tVVqm0MeP4YelIVEm1GnP0IoxSpi7VcG0ij309GASwZKGrbpwkmiol8Vdbddfu5xXg3yky+xyd21ysjP+weK/cLb4CJCDo1Y1WIKyQyubtwfZnNTrvV/3oV8X7H1W7KjD7F32+V5L2cJ1unvxbBYhLxzdJdUhCDvwc3i5P18ySRaPeIvd1PSyzdE3gBaPr9T4pWxWIYgHe7Evlskf+Sn56yU2WbK/rO75+t0xM3CVN45+UWTtUktSyV+ghrZsrT5Wq8R+RM5vGBDu8MK+XuGRpMG+ONN+2am4QD9Ib/doWkn9ZpdeOJreOwy3fK/mRh5g1UPHXSuY3rL4x96Fytd0JSlEeGIsxlFLEHzdONx8dX/2xJJbpyFhHhhBzIa09O2ZkUgfClLG+Cwh1j06gJ07WUXgZUHNzcyChu4y8GNnCKARmw6bVSHEs4rbjWjBc4dm2b5qpjE8WXpxTstQ3gGf1Hkg5aszh/d5NkvyvH4g3ZYoiUvoBRbB8AOmuolsa8bfqRtTLmnRNWrQKk/bjtALb1ssym1j7gLw0632ycNFieeDpV2XhUQWh3Wu6DW3YJWXMzGBTZ0/TIryMUoMWDZxQq9Jlza/IP894pyzqOGEBiPrS170sZZSqMHXnFgHINz2qgLVcHjp0VL6s81Rz6zTPSHXnfyZYnpD49b/omXlPazj1W60grxId24r5Gha1sEyYr/pIjZO8zFgpHvm760/VmOctOig4sU3X21/cooKiJ+cqeKG2jCLv1XtkYkOjLPaOyucqlsnb/R0yRhWdY4+1yOt798vr7bq275Aa5mhgsyw9oH0BAKrvGYB0aD5P3nivPLXs4+qrdzoX3fcjOf3QX0pL3UTZX32KHK2ZJ81Vs2S9P0smVFfIKc1qCasg3pqYFQx0ALUjo6vF/9kz8uoET3Zp2rjZsiOzOI0qy0C6BX1hADNAO+dDrratMp8IRsL0rYE+c2V9vfSLi+XD15Grr+odqewBLU0dFS5gx4eMUYHtwxfO2GHUX2PGBu+7Jjaqqu058a9aEYCMMWsMCPhIm5q65x8yLeUIPnD1T1jUUPk8A0SEY3RM/rE6dZeOAFa8i4o/XL6o5/A2ZmaVid9eW55hkv90fsZIrgrOV0tAjx1OanVe5wv/R5J/8zWReXPFmzwpKnviY+351Ld1x5VTJblFVVzLddPnGekNU2Ce1JertveO7JXWSUt1nq4bVLfWLtDNLe9Sq1ydy+s5w47EATBRv96oiUFePFX/damfpW075OJdv5Ynxi6VVR0qran6MlheMd1Rc1erxWTVKHlh08uyaMpCuWRstwWlHVDqbde+pNJdcJyQWoCq3BhIdEiC6cjXOUYZp3Vzq6o83/tNkTnnyVc27dWu7cnJPXNvBhbW/1NxsYyiaZquD0zKh5Jb5C0V58lrnfcFr1dW6WBgxkS5a3+dtLccksaevmwDwlQcerNfT3kYdXS3tDTooKSHJh1YK2ev+4psGXeZlsITvrQ2lagP6jz54oZqqfe13sZeIhUHH9C9NGvkcMs5wrfFd5A8dZrMvmettHzq4qA/W5z2fdnzQF0Bt4EGOLfsbl4AvnzA7wQndGMegvcuwpeieOUiFafyoTp/b0rvOQYYAR8Tv47j3WuWouqCOSreB8xS1ycldKsls4K0eU/UfVi3Eic/256J+MLPhCVNmD1Alc8zYc0wgXTD6dm7cPzhXTeiypuTm577JrqnZD5kDNnC+g0KJnoEjsd82t99WRK6yNx/5DE9PVfX5vWsKQv8KgP1W9oleXyO+Lt0L8xLVQU6Mz3QEYa0gpMJLDGuL/9M9p7/hcDFV8ntA3tvFDnro2ogokfq6IGvRr4alKC67EMKSF/d+SNZceB5+Z8GlWJUU+CrBOdSmwLpz8Ysl2m7n5VbFqs055D30xv0EFid3+M0c+b1MP1XSXXt+g2B1IzkzFZZEBshYx1r9OSzz4t/xofE+/5HpGXfJvnurkOyfFTmOsDk0kfa7KFqNag50z8g/5BYlGKW81Tq/Pj4OmGO8yW1htynfRUjIAZxLapFMDqkG2E3HVXgdOi9P/+o7K84R45jBKbhmR9Ewjy7qUFG67x3pQ4uOzuPS2fjmeLt+Ja0HTsUWJYSd+PUiTJqf5swKC03StLfFOy40of4oe0ZyJ/lw81brvU2bCS7Uo+YykX9kMqHmj0nGlUVFKJs64HMO4Bl5Ono2QwdzC2XqxsW0HIlnFyfs6Ubji+b/1zfe5wi0LMpcq5h3TolrKdqO5/1bT1bannvfqdUvPPt4r+mYLNuvVoqHtT3SZWwGiSxeKHIO98m3jffrGo/lYLqMkuXDCh6qe1f/LH477hJN3RWtSFpf/sa2VizWE5lS7FT1EJQ191xhpw/bragwhTm0BxKjaTVOOdL674u127/ufzpuTfKc94YGavzUyiZDno1ulXYYfl617OyvO1xkU1PBFIc0TTteVb8Lc+oQcoVTqxaRLZCU2C2jZQBvAkTouchFaHEX/4+uem+b8uFKz/ZK55w3fIyqLvQWrqT/SPy7xXz5Hfl8WBjCTQGqMTfPWeOVNQ3yE82bJHdukB+jBaoRk39GymYCp+dlTpNgRFOD43d/5oaweiuLHX10qKANVlV0CvVCKVbetAASiy1YK/RLuZlR62Qqd7D0jnm/cEgEuZ9fGKDdOzcr+suVX1bJmRgQhvMnj27l2agHLLIAHzTpk2yb9++AIxT0y0xMjdswM5lsDHqJWcvpVzDl0tmLB+BGkIt0vhWC6bubzcyGlNPRb4sA8c5ysSKSewBGaj58owUAyEYM+pFrBIPHm6W6tr61ADgoEoT1bNmSsOSxUEK1C8DNSRXpNY9V39XZvz0A1I1cY4cn7A4cLPdPSxL+LOjlgLgevF/xL/0L7stH3UZxdjmtbqjSrPs66hOzUMS/8zzdT3Zul8G0iZqTF+NUTxdBhCAhkqgSGXBnNmM02Wh7q3541cw1LlIFI6DpFl5Z+RPUHDe8L8SGKSo44TVfyH+yg/Y69QVpuWCMgMj28sWKY/3UEq1WFUr/zP5fPmd/S8F84IWEUwQ6qW2VXDUA+LMS+o61VdVvlclrEm1nUl4SRyz9myTM1VzcFgl1NfUenLjkVHSrN/RJC3vTw51yHOJg1Kj1q+f3fpr6fKnyzxdn8qWX1GEmh2g41vs0JnC6v2rZY9ckvJaVaeGLEc7pLNMwM5UhQBeOQIdFUf7kjcW09PvyXNqIJaq2eibYQF2NvEcXQXFcS01mMbNpeUDqS6J+XLcgBn8+WWwY3yG7PXvK+axmnfoAmy1PsyDYNomhTCHZlJduqhcsKZt58ydL/K5J8W7/0tS9cx3Zcy8C1StOicIDsiZ6qlBNYTe+kd10blKDh/9iYhu5gxhgLNg9f3iz71A3rTohPTOuwCqdB2ez1ycSnweW5rBTPRdh+6gUqmgK0f3ibdzTQDUqGCP73hZqpTZH2/Xeb4JsyUx51w50FUn+xWkFkzsjt/foCex61KCYKcVEopJ7Jhimgh3p5CDVU2S2PhgLxUqZbf541T0qir1dN/LExDc/WaGr+rKRK10y7gp38GJAjBSA99ZylAPHdoXAKK3bbO8+xxVR47vrmvvQKt0qpTsadnNTlZnklKRJRVkzQLXjIQSugWaSz4gqUBaLgRwWP9xBw3lkj/LB3lDMgbkkOxGwM5qRq/9YSUZXt/mJN+vt6l8sK5HTzSWpbMKSh/Tc093eEhHLjNO58fcYUgYssBwjcgvcySuqtPe2ZVjXUjHgNzc417vuusuecMb3hCZBukjSbh5yhgvar9DapyRhXyTqkOjfsrJhwpAMPcXLnf4OV0y/pv/Svw3/X+S0B1c5Pnvq0HJHl2IjCTRrVL0FHT8y7/cZ9uvIL59qiKde3501Dqv5alaFRYcLDjv4d9eq24HtnOzgqAanKiK06sfI8mjB+Vo7VQZM2Gy7FDVUk1zu0xd95CM0aN9WsaepUDTLeslHvt3OTR6gfRWjHYnj7oMCc52hUGteNJJJwUvATpzd5kvsfqBFaeqFbn2UKRKiyOGAG3mCHtIZ9Kkfsw4WThaRwRG6mdevc5z79QT3jfqIESf1b5UJqNibn9ZT484EJzGkPKuKuhErdaTfh9gXLuqYmvZSaaHEjq/WacqzjZVhQIgAXm9ZQukOl8NWcqJDPDKKU9ReaFOg7qPepnGrXftp/E02J3zZZK5lDs1V5ZLoBL4TeVDRz2ebg8melik6MnG+VJy816pcLYYyzcewgF0N954o9x8882paO64447A1P+qq9TSLg396Ec/kmuvvTYAJMJfc801OS3gZ+kA1pYukAC8t956ay8jiHe9611y6qmnyhNPPBGoz9LlyecwUQW8tXtaA6A2ScDfqoxtzRGtc2Vu1coBtQ183bGDiZzEAp13qz0oldt0B3vdKUS5qk74nyryl18S75STJXHhG5WzRlti9qkWVHMsvtYk/HN/X+SCGzS+bmZuLB2wiiSdc/TUpD/te+a4dF4uMP3viYAz5ao4vmd0b4OTLlXpJvCrxICyWuenFBIUSCbK9L2PqKXSsuCdv+VJSSyJ3oEEMENVybpGAA11qkm+QeCIvwA66scHyyGSLFNQ4hsPDKo0Dpew/PR0jZ/fND3l3OLpDiUKeEbMVXp6ViCH2fp6egNXlzzd0Ns/vFO8v9UF45d/RQR17LTTdZ3gM+Lv1+UTqkVB1YxlqSvdEYcBXULnNTsq57jRStXeIzqHdwIge73s5wcXOCzP/ZyFnJJz80je40h3+XPBnLI2sJ5RgfAhucyu2DmyubK48doWVGbijvQBQ2aC/sorr0zlFebOrh5x8+7mo/oTl0rHP/9cEqu6VVhx82b+lJdK18tbpfr/6GLgNFTMOTvqhHkUtn5ypT2ADnfe81uzZk1qmQHZwg3/MEojkyKj9grFz+rVqwOgs2UF1D+gShzr168PjlNJScnqH4kDpkx8DZd9Ufy/XSQHdd0WxhUTdLurqicUwBoqdB7NE93IQ0f13So86tDbd0CSLx1Ui78GPV1igi7yVxln32bxVnxE3ypgtRyRrv/4ZrC/ZsX1v6uSdISBRqcuI3jodql87pcqDTQqU9aBTIXudNOh4HV4n+4OovLKhe+WzmUKmhnI0wXhfl1vK91e3mtVEmKROFdIF5n7KuV4WsYwsX4sISfmxMapFe92ldIAvk6V+MYd2BxsqYakaBsVhOPgmXkzd+7M3Fy/ZsASvNPz8jpVwq7UHVpE5qcMPnjnSoA8C2rZtQ8GC9f9HvORTVIvk/QIIlGDE++pbyuIT5NkyKo0CNvz5+/fpG31HrVQ1TV+z98uousj5SN3iPeTGyS59+QA7PDK/Fxl5QmwRZVpVN3xmhxqVJDsIY+lQXquXbJnWzBzH+grwOECX775wfDo/vvvl8MH90rL/telacIcWbzkdDnzzDN7bXaQb/z55HNYgB0VCuOC4oJG4DmHv3ykRzoETNaVIDie59FHHw3cYLBQLnl28+Hpgl5vpi4K3nFQpby+zCpb8bqe2RCcgICE0h8EsLPsgdE+AHb99dcHkhbuDApsf0rAjl1OIFc6QxUJMNLW//Ef/5ExyzaPa4B24YUXBoMNTj8gbej5558PwO973/te4Ea+aLPPfvazsvGka2XW2u/LlhZldusPiTevUXbv3yOtu3TuSgmGP22y1v/W7YGJfpfuA5lMtkvDRjVUaHpZjp78WanqWQfnNapqcNlpCjLt0vWPN0rFW68S79yzg3j4q3jx11J91zeka+FK6TzrspR77xtdM/b8agXE78vmy39fJp0cPaeIRBfsitI78Ikn5up0Xs4fPUNBdLvO3+kOPKq27FTz+sqIRe8mIXJNKqMcq0C9e9dumVylVqunqfXow/+qCeqcXk9ZTySU/931yY3yvcoZsrKrOZBQI+frnOg9tgp74YfBLi8tOjjp0nP2qr3DIk9+U91Ok/2HmqX14DaZPmNGANYWFCvNCdU6OJg4vxvoeDH7XPEObRO5WdXAZ35QKh9/UI4fbpDOOt1ZprrGggZXTPWhRJda1aqlakfVvOCZv4ZX98ied3ZLvinHIXLz29/+Vu6985ty0ZyXZfnJu1KlenH7JPn20yvlre/9TK+BacpDiW9M61HiZMojehgbH0YpyMA0l7gZ5WzYsCEFxIRFjYYb9Mwzz6RMsgOHGH/hfFTrRs7JLWpZt0c/7hyIfTHZLqzi3MUZQ82ZMyfj+1xfokoE2DhGhzMCXTIpmM2YkcB+8pOfBK+RzgAg1I8MEJDaACZzd+Ow+3PPPTdQi371q18NVKuPPfZY8Ey6tAvhGYTQX5g7In7Sx53ByIqP/I1srD9dlh+aLlULmqRZd+TA+ISzyGbNmqWaQGV0m7bKcdUotKtkhPFEk4JaRc0G6Tq2SurrpvSRQjy13kucu0qSDzwkyUcfD7IKeFU98lPpPPsK3dOSWaR0pIYSMxdJ55JVMuPHX9Otv16L9siJ4oFEFP0aV58jiPTAV1+ZerCNV+DVYO1EuC4Fwr2JGnny8DHZXt8UbFa88bgvh5p0Y+euI3LTwYTcNvFC3dxgl7TqQMA7ooMCfm06N+ZIPSdijHf3juQ2eTGhc58q2UIYgDBfFzlnp++D9YxqNSq7XpJHqqbJJ177sXQ9/p+BkRESccrSM4hNjTwV9PjVdhyUtuO6lnDBxT1vui/s6enrzi7tGADNmaZq6VekJsIUjLnZyq49Unt8newb+8epOGq3HZK2uROkfWbuA9BUJGV6w2AQoPvEWU/I8ukngI7sLp26Rz64bLXc/9Ov96nz/ijOsAI7KrRUYJeaK8ux1VBRMm/lEtINoIUEc9ppOuLPgaLyUXvTx3VuoSXY2DmrjNZ+XJK/XiPe0tlS9bu9P/IcspG3V5O4ABg7mTldZHbuG5IfmzdDqBpxt42b00nFSMBIgV/+8pdTe2EiZYfJJOV/+Zd/CUCRj9mo8bCqMnWHGW+HHpWjC4ahnTt3Bm03WRcYd+jho5U11YGU13pIF4of3STto9VwY8YsST79nEXT5+otXyb+XfdK5a/ulIq1z0rXojP7+EnrUKUSxIpLpOZ7fxMASx9/bDeGZJKB/EVvCbbo4jQCIxdIgL29HbpOTNfjeXWNMrW6Uqaq2na07tbTqNLf/M69snnaubJCT0mfe2Cbmuj78uCBXfLK9q2S2LRGKl7TMxWfvk+qHv6JVLz6lC6D0PnAHOm2gz+XnyRmBqFQkTKHg/qbpR0QkiTP/Lg/Pna+rJ17hcw8vE4+ceQ+nVvUBfyqXmXhOCpwl4LlGnoMUqJpimxqWhG8Il6LC9V1S6XuMKRWq96ya8R768ckceBu/b0gieNqrXp8vyT0kNv6o79SS81a2TX+qyqBqtWgxtSwfq906XKFvW/V+dohSPfdd18g0TVVRwsV9ZVtcub4x+Tpp5/u99KPgF2RqtydK8slSpgxKjm38VGpIZ0AesZs48YZmQ/9ymq+8n6puGy5dN73gqp0Noqv522JjlpVp6PqMwW4HQek6+FXJPnbzVL9F9dI1fvOi5VkPjuUuAMOFzxiJRjyhOoSSY8fkle6ObpQsEB9jCRI/V966aVy3nnnBYe3hv0x6MDAxZXsAj/KXGccPSYHVN3nn/dpleAaZFrXLl04fEh/x1Rqa9f1WDon1LpNGhMHpGr0LDlY/wbZurtZjqukF3A+ZZoBI1ZmHCZv+WlS9cB3A9Vl+F225ypVp7UtOVdqvqvWmFE0a5VKVzovl46Q/jDbdxZRG9ixHdZ23Vxcl5rpaeIdKlWdmKMiuoZje3Wnft1eq1MBpLpWz0nUdXO14+WSgy/IM9Xj5L8bTpJk0zhJTpopXTP02CmVyCpV/Vr520dykvbesPPX8plpTfLDXTofCpRoPAyQbG6QuTueMXZBwlqr4LxdTyX/yuLlUn28RcYmVbW4Z6106iBktBa3Ttfeebo/56TjO3RRn6r9V75fjk0/oUomXuKzOUGeqxZfrHt2fl7kjZ8W+dpuSc74nHSsnSvJjjPlUM27ZffEf5Lmpg9LRetxqduk8PrkZjn4hrmy55rT09X8oHff9PprfSS6cKGWTNkr69aMgF24XgbNc66g5BYMZot6zAgVHfNG7qS8vct2zZSPijeeIg++e65s17mCiiUnqf4nIc898ZS06Aj9Xj2d+bYFbfK3TZvlph//Vy/VarY0474HiABw1I8sJ2AuDGJZQC7EvBqAefHFFwf1hCTHz+b0bPAAmEVJa5bWPffcIw88oBsja16Qot3lB4CwqxJGpYxfm8+TPXqkjDJSRvlt7R1Sf+pl8ljlmfL6pIvEbz1JdnvzpbXxDDlYe7ZsOn6KtKn6zLUY88aOEX/3noARw4zDVLPrGd21Y5yqADOAUjiQ8+zX1Eur5itKnRlYFKrRRlrS5QuBEQubO+v8HcSc3TEdGB1Q0BilSFen69cO6xZaLjUd3qIgekRenXqBhm8IDG54v61poYxqPyCzdWl1jQLTf3onDHCSKol2Tda+qNfKR3+m82Fq9h+DfD3s9Y06F/iPsyfIt3Yekhd0q69OlSDDtFeXgPz4UKtMV+nzwdNny9iXv6+S1ply7MxPypq65bKnaYkkZp0l23XzZv+0t8tzo84Tf9m7xK8dHWgJonZzMWtRUvPH6zzclqeCZCuuf69U3/L3krjqPWoQM0cSR3S+U4Guc1yD7L/6VNn0F2+Ro0unh7M4pJ6TrbtjlaehKlryixU4T0/dSu88A48EO1EDMEbXGvDEm+g7GKvLXG0+ynyblaA9x73GyUfn+AapWLUgmGV4QlUvZ3/yCnmbXBEwcoDENZjJlm4uc3YAMRLS3XffLQ899FAAfJ/85CdTBjjUh6mUXCbjuqN6xGJ1+fLlwfwm+bO4AD/SYPDAgl78oc50w1t5KCNpYHkJ0OEPiRriisoKAxX8YShjaTCnh6rVVzCcrLucvLxxY8AUWX6wcuVK2fz669LW6eua7CapbRilPx1TqLEKc4lIBQB+pao3fV+N1NUKs3aWMvoIqtJNojvGLRR5fZPI6dHGJhHBUk6BBLJouST+90fS/sG/SLkHNxPmiT/rbPHYA3Pigt7veFJTe0+tMTHD91hXt+dVtfaslcMV9VKv6x1YbF55nLV0GlYlvNq2QzKueYtsa5gr2zjqJ0T7R80Ub8/j6lUNWNTkHwOZ2/Xu/dJtgIX3ZI1KgdPnS+WaJyS5cIV0TUgPCkG+z71O6HtzNOzrU8bLf+uc9C3bD8pG3fWkQvPYpSBXr4O5q7Wvf3dip8xorJBXdQu9pxQUX55xtUwYPUGO6cr7q6eq6X+DL8cqtqTW7NFvIKR+dxDKAIjTLzBc4Uf6Tbq5wIvf/rz8cvTbgzD88S13TG+QvWoFPtyouV3V5DHoGJJ/P9OwAzuzkCp2PUfNlRU7jTjxlUs+0uUVBgJgRZEL+ICKUdjdfYdBD78wxQFs4nHjsjgATDePUWn4z70gDarWcqVvVFunzJmrqmFltKNOfMyNTY26o36jRa87WOlhppic91jr8QJwJd0ApFTS7lKrSL9SVYQ7d4EnKUKixV8sqta9GtMZqrzz38S/6Vw1G1WQGds995WKUw1P2CoM8lmCcNJZsnHfDjmpbY9Ud+lSBzUu6dDTDabue0mlzxrZVX+SbFCJtqtO/aah5uqxMvPgS7Jl7Gm6cVaXHNE5rGd0CcAZ4szXaUG7ps7WOb1nFfx031BVgYaJ8/+8davFe9+3er16z6TRwi+Kvvz6bvmmWswuaTgm80fNk8YJU4UZ1uZF58ife6PkFa9JPnXOQjk7qacY6Gn1YXItSRmssEwCt1deeUWWLV0q0zo2BwDnhnNV9a77UL8/fcUqeXXfOlk8If288Gt7xsv8k8/q96oYdnN2jPjTEmoQrK/Uko4dMHKhyLmyXCIokt/+zkc+c3ZFKurARqOLiD1V7YXJo3+xrVYWOq4qxuM6/wXThFwAS+ghqL7OAQakfsJkRhhh98jnmrpe6thefj79iO7EvDGlhrN3nu7+EWwV1uOwGVVczVhdJzZDOhPV8vSpH5EnTvuYPL7sE/LswnfLTlXRZgI6ommvrJekAmjTsW4LvRl6ptzDCjQK+5Zs6grgVf7mV4q0J75BW0ScfOFH4n3wdvXrDgFSQXvd7GjvlJOfXCf/P3tfAiBHVeb/VXfPfWVmMjknyUzuBEK4EsIhBAPKJYqoyCG6Ky646oKrq7jq/sVjdd1dBe8DL8T1AAQ1AeQQUCEk4QoJ5CB3MkkmmZlkksnc3fX//arn66muqe6unum5eupLeqrq1atX772qer/3fe87tmKN8SaY3pxTViQToCUagmF9ITzFTILbsPMiDfKh8A44tC6XxaGLpUFyLRG53k8L1Oekx5yUUIuTNcyPtFricorMVcw9VsHu/PPPl0e3zIZfhd7JnvYZt53hHFnXcLal8WxPH4r9McfZsVOds+PwY69I130Qs3BgKY0+JPN4G2beUB1++1IJXdV3tud8OBysnOU68wzFsX3QdLsfRXcUVdpFqG75/LQUPVABroN2kIXxHjDoNDmVXSK5umA3BmuUYWDQJFkcnd6STpcBOCT7Oh+P+Xy5TmjnNpieiEyo52vZFKXyutiEiF5Xbv6zCFyOGU9CY5Bx6RAhnGFxosopVZAvwscj1u1mttdLU8l0ef6UD0bdiPXc0KjfC9V+d47KXqei8An52enflfc/9y8WkDYXTZFaGHY/B+7uPPB5cYS1OLNiogTfeBkKOqgTyFKQefVBCa34pAhj+6WgA9CGPfelHXI9uL0CctE2UmUbW5KcZB6TGeAyl+RcJC8UPC4dR+vjRJj2vM59wi4dQpDs4ncrYYz94VLOSWdeLt96pkOuPHm7zKs6FOuBbQ1V8qfXZsqSCy/JiGF5rGCPO2MS7NTrR+EJqId/5lcQ01QKlTfcJouRzXXS/r67JO+L14pROyFpt1KESHFUOmt3SQvsx8lUa3YU21ExRA243cQ26dy2FusWAyHOhtlnVDBhXVg/tkHNMajQctVVV8VxPuncL1V/eC2LM3Zdz6RCy/qXXpb37tkrb5xosdbjuIbD9Z2p9I9ocWNRsEpYPqIdGLNmxk4r52ABE1TiDQCeRTbuRjOrgoQeJ9saEEkquFGErI4K4q45+2Yx8TNeXxX1ELL/1aiz6/Zmac0rk5biWlk38y0SCcVzrEYbQApakL38V1ypljkAOSSCATk75vv5Od+Sq1/5ipQ3wIVXxWJ5MVgk5yHsDqkbEhUuM1jhuApgk1i3QyKzTxUTdoHtL/xWWt/6X1Kx5Ebr/aXzBYqX+f5wDbW+vj4meuazumjvCXlfzWQpQP2U2Me56I9gz0RC03VbbHbLNZG9clHuBbK25BFNtiYL+nw0kcd85lbbAgV9Jo86+dX8Y2FLTvdnP/uZVBx+Ui5r3imBv3fJ7kmTBMIFxPKDziwUsi6VRtn05CH58l//Kp/4xCeGFPTGJNjxxdv34kaZ9v1nJediqAEn8R1pTB8vwakV0nHHbyX39ncirljihXMOJvwNJ3lZs7OvR9nrSm5vKDk+FflofQjABDsCnbpIYx5qb2oee3297HvpDy/laB6CJ5VVbrrpJmn5/o8Fhl2xdR4qL1TPgrcNcF6SF+XY9Dr71oCI3ERwXMPGFapGJsEugthpRmcLzo+XbhhMP/v007J8+fJYEQxsStDi5IAiTSrYkDj4LliwIMbJWYnwoWmnZO+nufByEf5IP75MpPp0efhIl1TCrRUhgwO7nYwj9bgpFFhciCBHDoq/yhN18kr1W2O5Hjj1szL78Fp566YfSEn+JOlCJIkcxJBj3vweN2ucMJiFGJ7W/AyTzGWy8ZJfYX2wULiSS8fRNAMg2NEBA9d0+e6oZOULm3bLqZOqLaAjKLFPuSVHnIOJRDIqAeDNAqf5XXOG3Cb7Y1k1cgH9u7LvVUEFIc4hxp0m9+D+SqzPWAS7vwLAziz5g5y58IAVwL5+Hd6azkMC5V5hr4cqAjLh9IjML9kppzQclYcemiXXXnutdtugb3unPYN+q5F1gynf/7s0nzFNugKJ5qW2+lLsdNEp0vml+8SETZoXsock8ZI/U3l0Fp+p8lKVM5A1O3JKKv7hfeyKKDooE3zJ9fWXMtkf5EDphoxAx8Gs7KMflimHGhBV+w0LdE6BsgLFmqnMBUxEIjfOiIrntF0cTHVARSwdCdDGDTPlzvHwxwjSCN7ct3NnBLrFixdbwEeNUCpNKNFYOzJzsR7GXRdLTLSDiAnG9mfkAN53Rt+mV38nGfDX6fb1OJXAZhzZIC9Of1vc5duqlsp3z/+p/G7BLdJO7vXgOgns/5vI3mfg2+9vEm7YBAP8mRIoXCHmDf8ns046zdKc5WSDWq98FnaiuQndVJEexyRh6YRov9nXzqhAZExaADYTNqZJaH7bQflWYbxWKYGYnPtyTDo4yeCzZnnm/g2y8IYvW+8u31/7O5zkFll5iv1/ypTot8r4xpB6x1FxNZaze/S0Zo2Hr9k6SBCGkMYk2JU/uUXa4ZA3AnshDhyc9cURlVOc4iN88IGz5kj397HG4YE4GPLDHGrifX3q7YFM9gdBl+D7HFyLWZSfJyWfuFVmHqyX3Tt3AvS2gv2Baj6egUFv0G60v16M2bNgh9Xz1ffkIfdhiTB7jruq5ovRdEA6Jk20zBX0XSLoVVVhLc1GKtbkYGx3fRXY8ap0wTk0Sa+3XZZ8F+6w6Ph4fEcDxIsQ/zmUbgJ090VtURdSjo6npjZvkedrr4b+pftQc6R0tryx8Ca4pfsylhK+Ef296X8wGfg3cJYrYAAOtgDEyQ/7n+YgBDZydrSjVE85Z555pgWGz7y6UaYHevue+Uixvp0GLcCje6y0RH/o13RSZ7PsaenlinWd1HmNUf+6HKlYZAUT5QTX/nPmzeZjmmUUdL4mucHo82JbS2vgrxXKvqQAXpXSGfFTo/HBnXFRR6I5B++v+xs4ePcbESWXPQcbpqpeUKCoy4QHke5VL0r3Q2ul+5GXpHvlC9L10BqJbNoXq7NRWSLhF7f3BcJYjt4dDrLDsXaX9qDWW+V+7Q1kza6mpsZaB9MbUxSlpNwLxZhct+svZbI/OLBSnEpuiuWybmsaoI7/8Y/JwmZ44t8dHUSNUxZhfQIiPhsZJ+ChA74yjQXzxJjuUPVHPk647JOujoKZEoIHFozSVikUm3HA5X3pfzMVGSeOilmMmHPwVELiu6jccqpr9bx5429lxYFnpMjogqlE/BqkSa6ux3uKU3ORYEcqB4cUgE3e2ulv1yL7bHMNU7p6whPZTxKcCOIm3JFF10DFeg90TZwSAToFCM+cK/+1u0E+i3BLP6+okc/XHZPJ48pcOU6Wb8XBo7F8Eu4uByC+IKdL9oVK4zQznRNjY89aEcQV5DOxg9xwSXXs/TfU+xQnz6qEwpaNMO+LARyBzylBJnenfoBtlw3a7pgDuwDUkbvLsGJqo+A6LIQjlE0AEQI0UoAxY4IEZiK2VcMxCf/pBUszk5dYUQSaHNpjtrLcdnVtyu1cptMyvUaV6frZy1P7OIIcf6osw3h19HXJNBr4UkGlvzQY/UExJtcVaXNFX5x33X+ffLd6ohSeuljM1WvE3LAxqmW5F2s+dVC1370Xa1vQcLzoQjESxKyz1pN6gA2oJ7Jpi3S+7zNStusVq+mcVJBzJOjFuJSeTuG1JGt2jfNcJAm+tlo6rvv3nhy9Gw7YTjFj79n4PQM2dJdf8Gs5acuDUtLWEH8SIEZXX/ayuK/HE47vktKWA/Kd2o9b151AgNx6cD7HsMbYCC5AaU/9YQkBON3IAn8am/c4jZ6IKBJKRydWy4/OfZvc3Z0nzfBAMxVrpHNKi6QDa5S7Yef4rX2NsvFEL2em11nbk69E2KU3sAbZywHGncfBOJhGtMNukP3NZ6x9rIDHKPOdzYdla/l5zkvH5DGdM5wyxfGOoCeKJmH5Gsx18ZS+3TKz8qjFjfc9MzgpyVdrB+eew1oqowOHy3p4a9SkaFO9mDAxaAcA5vYsqsdVELY5RmG+dD/8koSuXCLk7swjUB7A1itR9MXZ31Bweplco/LSPtVs9ZLXLY+b8Tf7KVNrH5nqDz5D/kjk2rV+bvW3opRjgA7f/XNwEHCWXFsjqUgBzICUIfzcGgl97lMShliy8aTlMv3FRyUfok+KKCnCsxOP169fbyVxYF5YUy2hF5+Q9g//DxZI4PTRQeTuyHl47ZejOePkf9/1hNz4xC2wUdsou6eeA6WZXOEkwvpewAUpJ8c1x4LuVpl14FnZXrVE7p0HoEOdO5CXIDF58mRoQgZkz969lhiS62mt4D4nh8ARxEu4rFoTYHLpu7WH6BmHdD+8pXxp12H58BxE5SD70ENcs+yonCA72ztlCrzUvAjzocPQ8LxwXK8Ux8pqBMU8/ToxXvq1GFMxQUkgYmXJbBv7isCrE6fjB3ZK+cHnJfRv6yW0D6LmZLa7Wrks376x6SW55s3HrFYeac2X8sLeNd7KhfEPd3tjucUFVhS2ScPrXLe7dkh6Z8xxdgi6BRumaLMDcB8Uam6T7uI8S02aH5dTJMOnwCCLRnkRolBDpEmbHdsH6PUpDQXQsS6ZXKPy2raRnG84+sNgCHGs+wRvuYnyQyvCgYkBPxlZIrs9eyWyfoOE7vgsbPAqrOyVl10vOe//LIK2PiFnQ/JQUhwduJULppIE989CpITTCrolr7FO2j7xo6ThgBTo7MobbnXj+cWQorbCZdgvLrtHVp5yq0zf+3dZvAXR5Y9vlQrY3pV1NknFif0yo/FVOaPuz1LSflh+feaX5Yl5aDuInN4BRIJQoGMabdEojjwGv5+Hisph3O3O2bFtARiAQ4bKyyza1toh/7HzkLwH9nN2oNPzOeA4O7jmDpqZnyO74D7sdTcOr6hKthSfKZF9LyPqQnSQ3le3D5EconU50GnK3pchpuwhnYwUNG2VwsPrpfWfn5WjLW2WmFPzjNUtJ/LVxZBggNq7Q7LxYLyJViAqiY91zwt7Jsf2uW7H64eCxhxnF4GZQQAfAKlgZyNCf0BtyEaqMm1Liu6Cw4ts3S/BQnjOKO7lDPvkS5FAkSbFX4M1CA8VB6nNpHhtJNNQ94ezL4Lvegc8XS+T8C//D1qa0AKsnoqJE5xAAwy5FmVAvCdQcAnjF7pgmQSvOB/qlvj42+FdpBRrlTBSikyfL22f/jkA70kJ/f1BKx6cifhxBFRhpPKWZolMrpXOyz+EmHZznVVIeEwOL9nz4/lb58+w1sTOLiuUhtkXyi/wC8D7SPGxOilZ/5gESiDwC+bJibwKac1BnRxEroccZ3Nzs0wuKZJqxLabAiP1SMNByYPSy6kIiZNXgDVztNWkI1EHGYgTeAhiRHJWnDC+f1OdXF3V9z56WW47uIUuQ0p7DMln4Xt9DJKYyfjuSXngBPOhmMaAO+Pgi3Pb0UqZ070Va/br4QmlSHLBqRIqN8MDyMdyOi0t2xJo2IYPvi6VO5+TxgXvlYbLvycTcuCZBkpJPom17nYyYtWRNh6okrau5LDS1FYgyt3put1QMAPJa5WFT7K7KFdyGk9IW22l5MAbesfksrhWJgtJb+ADiuxtFGN89GNzM4hmYQQ0euBXUZf9BhSFUaQzWGCnohb7Pcfy/ojoj8mTJPipfwUwYVDfsUvMOqzlgWsi1xJq2iKhjr3SMatCcjt2iLxyAKIEE97yjyPkDDQ3j2GNDdHJqVXZffoK62c9zzCMzqkxTOUOh/KI1+etmopu+cnVURGmFoB6IwCGYKcUgRjwWNl0aQtUSqRstia7bvmenxM5Km/e+BQUFHLkcEmVHINN3TFEOdifWygXINq40XQEPjy3Wm0OV8+RyIyT0C5wxxAFm+OjE0MCbwskKoxskN8jmXG7YWVJsRxFGKVt7aY0IkJDiOXg/yrEcywAx90Oru84li2wrCeLkdfE2t2cc94mu7Zthj0gwOvwFoieW6Rl4sVy1vFnpetFhGmqXiThRdfIG6d/1vIeMxUanqyPT9EeoMnBdbObrYPHtsyUM6fhHU5B5O6o0MJ1uz9ivY9uxgabxhzYUcTUWQXvDPgQaNybFnG2yAEGi+GqdKLGzlSmUKfCVKqgBmEirkK14vjBqEgprXokyZzp8pLcyjo10DW7VOUP9PyQ9AfeCbOxCZG9mxGhGyCEtTKjEmJIh3kBfWYa8+dav9wH7rKcNEfmnQGnxwslDBG6Ce1DJXI6MrHGOjQa90vB1z4Azu0mCS++IJqlJ0q35u/PVt/DRNdSBZ90OxwrPAalrOsBzEs3PyOTG6HMRaURKMK07nlOtoyfKaunnSrHGSHBRiVdbXLr5pXSnV+IsD/zpRlRHkryIZoEWIUD3bIfRuLvNaHUAPAz+RNEWThxTHKeRWT2+YjKgOu7l11uiTzJga5HxIKTiuLXIbccaZZX4LvzUCSqbtIBbplA1gFgrMC6Hbm4duw3w+dtByer+OYJgHkYB3ZAwtMwGX4cDx2RksZm2NBfhCWLHHl070G5Gtzn9mselQceeEBuv+V26QL4mz2cXCu48VQiYFs3ZP1uW8MrUnZSq8Wt5Y+bhW3vel2ixofLL4DI8w3hul3d7s2JsmU0fcyBHXuv4arFMvmnq+GpIrp2Z+9RerJQ+bw9nfsmPrbcT0MsBUpkEK0fweWXX26FslEwtC5y/KFoJhEgOrJ6PhwsjtFzBUZYxkHtj5YTErkH4sndu8WE8kWgIiqeNNs7LPBjxILAeWdL4J021XuIHQu+e5uEp84Bt/CmWG+prVwswbZjVk6RbvxyVq+U4J7N0vm2m21n+7/L9TS62aIIie8hOT32l3MS9s/H3pD3PfRtaaiaLgcrpsm+qproTdGWwOE6KUaUhg+8/HtpRGTz3y26TLrB+U1vPiDXblgp6yfOA8jkWvnLynqlKPuR94pIlBuIawHEsxH8AtvXw4sMJC83fFYg+LWy2xKWwwAAQABJREFU1B0/YQEY19brYMrxWFtESgBojJKOqYWsP94eBTgAGY3hG8nBdUYQRDcAzylRgBNsowRDeQBjEOdexNp9HiYWpwHcDwEUG6Exem7khPWNU+mF9nycyNItGcWylMz41NsDBeNPld++fFwonnzHe94hf/7da70nsffawSo5CQFb7bT4jPPkN488J21Y45uNgLpDQWMS7LoQ4+r4GdOtyMFBmCKEe+T57HCu2VmaZg4jWgNyfxP5gqfUJH0uZOk5aFBdOZXnj8GQU5PT4v111k7wZXu8HidtnMtJzrhHMmV6MqFtNZ9fJ+EHHpLA6Ysh5jq7ZziOnjWKiyHqBmc2b47lD7D7k/8uwU/eKsaEKin41kclPH9p1H5MC8OWA3gywGPW8JzTJQCwy135I+m84p9sV/dvl5wb4wdy8OYETycGdrDLffgnEtj9uoSWXSor9x8BIOT0thWRyCFwleNwHL1xAgK0wuvLJ579qfxh3oVy+dZnZN0U2Bu6VO2AkSOToZSCQDkuZ9FOTDhNiDlzYHaQ88T/SddF11v5igBq4ZZO2YR4gWsgplxYghBG4Krb8FsPzcuJudAMBZaRkwuT28ZVueAiu1wlOIg5SACElOYoOPLugkL5JpYoJoIT/OyRnXLF9dF78vu5++67LbAjWPviy76P7CMf+QgmS1EmgGPanx1Z/rBxbh+wW7RoEXSwvmZ5peGa7lBQX9ZmKO46Au5x5M1z5cRizJYPYs3AUR/OeCmqIOdlnTt4VCLQ6Mr9+NtiOWtq3A2iNfAjOT+KMjkr9EIEqUyQcpb9KYt1sNdjNB2z3XTQ7Kw/gV5n4tzy/ECPWx59TCKPPSGdS06Xo3hHCFQkbqllaD9uzsuVDgBi+H/uFON7n5WjE2ZKGwZ7Z369xjqR5A+VVRijLvj66iS5vJ/iJIg/u7hX7R9zHv+lGAd3IvLAmVIE0HgvNCBfBvcErImROWk6lGyiHFpLbpG8Andc1766UjZOnOsKdPvgJTEEjcnLTCjrOIjr5fwFYf+WA66u+9QLEdtunQQ3r7NyTgEwvXCsDSYFUXEmgS4CkSSBbhLOEeha4LnmCH4lWMekkgpBj98wRZsnEni1GQcjdIIiwe8wMl5j89fICYDb2ruj6mP+kCCXaPLe1OoOZsw/VEDHBzQmOTt9MxsuO8n6IMc9u1O6EbU4Ai3LSA7X5eDyCSIQ4wh8C3bA0dGM8RIYh3W+s+fppZYT2l27dlmGz0yk+je5CAKc2l7ZZ4WxCxPscLCxz6gTZEuZrAOVZuTHqjN2piU7dnJpXo7t4OIlv9aL20zmJ6jx41EO1q18Hdi1Dv05HgcRZeRvz4lx1hLhCpudG+N+omNj4Sx431kvxVctEkv5oudae36tV6otwSf3oe9J28JlyGpNx1JdkvQ8wd/eb8wcqNsGQF0j4ZPPjV07MTck/zC5XH55ADZzkHJU4Rhh2CVSCRHukUNwL1Ym8w5vl0PF42XRwc3yIjg7JaxkylZEB1iAGHLLe6Ic6DluObHkJDMfk4PAwV3StfRS63QYa3e5v/+WtN3+CykPBWU9Jp3nlPYOnq8B6MajHuyFNnB0x8EVFgK4lIoBeK0ERYBdE75pUi7SIlYaIpTjBAGxNj9XxsPEaD9CA81ZvVX2nTtfi4ht+Y3y+7G/87GT/o5rD7Sn0Mx0vWiQEsc02LFPGwF4nRBrVjy+WcL56A58NYA66S7Jhcp3hRQdhDbWZGjKfeLKPo9AQc1+wr5Gxw/D66zQCUL2Mv391D3gHKxTX9G/HOEf/VSM009N++LgGy8hCneVdL26W3IW1/S5Pl3Qi8xcJKFn/yTd5/Z9L/sUniKBQOOk3AfulLBLNGlySx+prpS/Np+Ql8BlVYOjqkI8OxNAU9gERRpomB4qrJA8rOOVtzUL1+bqDHxLuMFV3Y1SGYZGKsSnjNNHcSWXDShOpRiVJg2B/dulExydAREp68U8+bNOkZynfiMfm3CuzMgNyDGAVimA7xjFlfhWc1CWBWZYbyO42cliQvFnKsCZ4sxWXFMNUCOpokqvFZ/IFABnPQDvnxDa60cuEU74nfrkvQfqjnl3vuG91P7ljH8z+lfGqL/q+Fk1sueTK6SjepyEjiIMCESbefuOSggaXrmfeocr0A1mo1XTM917kLMcaqqtrR3qWya8H2fcKsZlX/TnOGHhOGGCAzIgHtOAq8nyxp1jmB0YRhvFhRKGQbQbuYlAnSJR+3ErVPiNv/4+bZGs9o/Wgf2kA7j2WdvhA1Z9j7dGxbIKhgwnxDrw+HzYnX5gXK5MMcKyHdzWi0aBlLUflx35WK82QrI1H6JRKKlQK/KK7ib5UCQKdHrfPtsWfG9wfH1i8Zv7BIONVEwRY+2j8iLusxxanNuhRdkCkfG2E+0yjpIYUGNnl+QD9JQiADb+TuD+5PzINRrQIO0AF1cCxTQ6mA7guTAaHz286I/PoRZz3pUNx2VrU7P1Dul3xb7jO9XSkp67QK3TWN7Sq8pw05jn7PQBmPC2QC6PPyWKLUonjNfDIduqLV663ArXGccqcSBSMRP7wLl+kO6xWz+aG18Xo2a626mkaYFmiPhgfE0yIIKLtMOxMt43O3GQtdu9JROJ8jqeD0Kpohy2YqR0RbK8huJL1cDksfZRcMPfYaQ+0wphw3QlejSxU1lJqZyNpLN7EnN2w4/s5FnwO1knAYQXAtrI2wNwZq3n1fdnzzE1IYNtxyRwqEHC0+ZBO/U8ydPM2JLbU83onZPnyqJcQyZVTJB/BIj9FI7buaJOeMOhdOFXBOUSJfrtPIH7V+YGwfkhFdwjqRjg14Z1uUKbmQeN2+3EYXkb1gW/fPC43LOwNnaKkwJO7pwThlgGfydhD1BT0+5CLGHGQTzhg12Szh3OlzpdoGMz6JllqIkz3ZHA3Sl3MqjtrwPHA01LktEG13KbYYDc0AglCSbAKwdHXaw5GTMxQFZPtfJZeY9DVR22ZqRAEYZSuLwSB9ilK8ZkWeY4cHcnmsUs8z4h4zutfZXoHQsc2mtFTOA9PBMigJswEjdo5F41DTgHkeSBHZaCi0AhRSCWtNzes6/AVRldMM/IBfDDi0kXQA4dmPBWnAhsyq+SakROp4vmYiiSvBNeVP5w+BhEjmG4DQMwAji5IkdxaSdFo3gekwB0TpdiOQDBTjynQmqzJKFx4P7+1uw+eWT/DefYkKTaI+7USODotFN8sNOecNnyhR7uwZwiFPvs26WaVh0Zb0xn5m55sj1NBx8dyPvTXtXSTAQCJjhnRhc3N7wGd1fwpFM1XswZ1bFhGlAHBMJv/0ExEbUgsGwJIliC9eHADvdSFmEQNeGc2En9ATtB+BujHcbOHsGO2qqqwOSmlKJ1on0bVf/tpNHR6YyaGnTsI/q4ZLij8847D+AF0SLWzOj+jOYMFNuaiGLefdqbrX1yeRbosVAqkLiE9bHfj/vqus8Kajt+shR39HKJtIebU5hneUV5GfavRT1rdRRqhtDHXBN0I67PUSElFZVT1Ik2NOI+jNRO4jtGJTJ911KVMVbP728uke8/d4bVfIIdJ+F/2AgPNjnR957nh4N8sEvR63yxCTjDBSS8b7KPi+dqh1G0wnuPBKI2JmkgYMcBnM86EdgZmFCYq9dG/VpORfgnt4ZjjDXHAYTgPSWy5gUosyxGQm9OKyKCQ4mCxei6mIrt3Irum+Y+oPfNF00h0BHkuO7G9yZRO8lx0TsKI6YrzZ0719qlaY06oWZIIa6FEQjnTZ0oEYCDXdlD6E1GQcfSkCQUpSb2BevHZ0lvK+wT1qSzu0ui/DFMDKC4ktvDndE4vKIHkOylM+gsRfulPcbsbdgP5EDbE6GLGGaIdee9SktL4ewmfgDOx9psGVjGA1wLhPE83y/mpaic/acTI/v9/P1oD3zlv741IrvCBzsPj0Vf7OECPLvYxDmYc6ZJwHGme2hWVmVxRtLub+OSPWOTYkwOsGW9brGa4CZMo4Nz0CwByDGN3E/h9KnSDePz9okFUgwAsSy+oFxhFMRzTawrtQ5JaYEdOB2T4sE0iADnXHtzXh6pqhZqj5rjJjhP9TnmrJ3fxwmY5jiJokovHJxepwDHPrCvX/L8ZLNT6gPlEGJGCS60oziKiUQiLo45aWJAkCsgtwnqwnEEXChpIoCLxJBDTrDjNCIfk5Jj4OyKECLI/n1xnyDqh/axum/U/PE21Ro1zRm8ivKDVtAbvLskLpkfmM7I7bnsH6E9faj2KeYdCcR+GNS+gJcNREeNakP0NLitFYbP4A6mVsOgFj+GrOm2iSiPIcpBM8SeBW34zCAaJEWOwpQFnvidRFGdJa5znrAdk6uye/Bo3L5ZvvuLX1m2nvfee68tZ/Jdqvqr30u3nDRr4HqbV1q8eLFs2b5DghGbeJZOnCHG9Eq/OhGQq4tOkprQAqkOnSQnBefJrYGpstvi6RCup7tFNoZ6y+N0QcWRyZy3U/mEzyiMH6kNTHakDaJWm9eO6XB47SQ6nA5B1BpQztSWgeNAtgIdJw7JJg+2bhjW3f7U0we7NB4ZRVzDCXjkOpwDOsUqPkXXU8gZDJQSgXdk5cNiLD5ZBM6MlcjR2bkkcnMqjqSaPsGvYsokaF+Cm0MYHoFILFCOAdtlACU3k4yro5IGyz948KDeXorgcuufb/tXy5aTnJAXkxW+w6n6yURAVbCaQAUbeMXu2neH643jJky2Qg/pWQNRvMM16K8kxHq8TN+IwQXym7JaOTPQIR8MN8nN4QZ5LyIlmOinK4O18oHAdCk41ijF6CMql5AqYE7Q2mMkjuE5yV0g2oZSETmxqC8VhvdJTS24D7nAcS7iUfZhtpEd4Cg61mWBkdhO1o11VLLXXdPctr1XuJ310/r0gJfBwn6R5QIJTmmpgWfy1/OB2vOku0/A1Q8u1cCVbtnp5qcIdSQQP4DB/EDN9RujmpgnL0AYmEbPTe7sANBBvInRVrr34bpTp1sx0hQUtSAeO9P0HLd79uyxxNXcJ/AZRw/JhryJPLTAi1y/pRhipST+Q1AsDsOBM1yOBXa9BrX/PZYCjfOKzqtvleCmNc7khMe1s2ZFVfyZA2trVnieikkJ8/PE2vwKeXfeHLlOjsrScIvkUWvTRlWRLnkXQI+pZ5Uuke/MnSyPIFQPicbfjT3uv6ic0rsqap2O+6PrfscAYDOwcENwbsVERYliTCc1YWJyCMbldFGmxG9NvztNy7YtgYP9tQ1hdwbze+pvv7FOrBvr6BXk9F7+mp32RBpb1dB0cln2IsJb6qT7J0/CEfBROAAeJwZCkxDozCPgPiDKCq5YJDk3LocSQNySvr2IhPtcd+HAyI+PP74AiZQNEhaSZScytWaXELx7mAdjymQxEWhVmlssToscXAFElSRyely3U46PXvIPMEp3BZxCt4+TvGlBeOnJlTZMVuwcIa9NtWbHCQ61HzlQ79+/X+Y2viF/LzpFnkJoKSqKUCMy2Xoj75Hz1/ul/JnfizF1VlSDk06dERzVqN+NSMbF0nHNv1nmDMwbQVy58LyllhPoyIyFTLJIlVN4UIFo6vwphWbMk1BbiwTq66TrrMs0uc+WWpZNAJL3FZ8k/xRpECMZUuHqOdIBe7yjctfhNlleUSQvwUXYIng7OkqRMUw4JhD4UF4hNCgTUQRhl/Ix4SjGcyyAfSInDPt6ODTn+iC8BSJKQkD2wR5Sg8BSkzXbSYGO4vTDhw9b7xnHGT4vfT+Hqw9YJ520UAJCMXy6gOeDXT+fniqGuF3e+Z8PAOSaJXBqDSJE4gdDVnJ1Bj5IYxKADwoK5tFWaX//tyXnY5dJcFlU082trERpI0V8qcCfqJ5DlZ5s4pGROthU5QNwF2a+9IoUYs2uDR9d3b6oWItAF0LIGaUAOI7x5RUSBuCFlp8PzzxPS9Ds7iOKZv5k63V81yjCZCQNUs7+bdL95iul66W9lgiTQHjPPffIxRdfbJ13+5P/o09bkRaaFy2PA1qzuFxkwnSIWBF1AXk6r/wwojLAZALU9dYbJXfVjyW49UU4g46qkruVrWkRBFoNvfgEYtBdgUr2VcLRfBTvfrL8ZHk7QvwkArowBliutVnriy1NMCaH+joij/xmwWT5L9jWrYXR92JMII9gAlkFe7qdUPxxgl2IgyJ+dA7Nucri8WhrD1XaQFrTdFuHSCgnwaxhYXFvGziRGAtcHSVRBBH2O8GPW4JdsnVR7bfB3CoQs24KfLxfOtxd75c5mDUdK2Vjhtr+0R9JYOZECSydLSaMUiN/2WBxdEYptMEwA7XsjRA/S+BXMLBgqnT98hm4smiR4KWn97uXKMIa9MG+37UbmgtVnBvrB8zc5QhEYHDtZH0QUGCRinIxwG0lo4TgjRmunSz/mIhXVwmvKiZD+jBQK4COgWUqwMkZ4Lal/rDkYaITWLhAjLPPko7KiyX/ro9K0ZlvsRdl7Sdbr+M6HVX/ydUZcKnV2FIgr09ahOui4jdy9bMgRrTb0dlvkPfzL0gEIsVjoSJrhs7ZOu9HrpQzdvZZDrQ6j8xdJiUPfldOXPfvkj9jrlVe7fLrpHT3Bgk9+B1pGz9NAuAKcwoQIst2bS4ie0feWC/tJZUSPOftEjy8TxpyEUkAyiFW2Y57Me0Jo0RuOrwRxvmMOmJY/UYTDROmAVgAtAK6cqANEg072iQPXOMKaEZ+/3Cr/BzfzZ0Ix/O9uiaLo1sCrzR0Ss0o5Pk2Y/EOHB8FGE5C6J/ptjBe9r5x7lMnlhzjZjy335zcq7iSTMTsLGM0HxNMCG4EFH43CnK6Ha62KahxyzqSdOu1TgYaERMirF271ut1Yz4fP1inyKvj//1GDKgpGwiFEtmyHz+4TZpeJabtA4zrOIo026CeXZArOf96pQRdHM/G5U9wwBlnKhFWgkuzJlkVh8a9vkXCf1wJsTHADfHjuLVecSooUPyIqAWBq66UwFlnurY9EdiFv/5NMebMIgvW5zoTnIocBtd1otXi4gl6AjdeBpWHEIPNfHWjBP/1XwQqgAh2uk/yfvwZCZ+6HPERMQGyEUVrBLREFEC4HQNiwvab/jNRlj7p5MpynrlPDo+bFidy7JNRE2Bfx7W69tu+Z4nI+Z4rMaxQCD4qGZXAmrThhFlYYnGC3We/LWbcnv/tW+VoRbWUTKrWS+O2Hft3yFvHnSkXtR9Cf/auiUUzccYI432s30Um1UIkuku6MTmwbP+Q4deQmGw8a7aV9TgA6cYNu+Wp5nYphY/Mo+DgGGGPYX8IWpXgrKcB5PJcnln0Xn3/boS/zbng6t5RVSL/Uj3e6gOKjbNV+7JvD0RT+M3YoCFRtmFJJ+Ap+KWqwNKlS2NZfLCLdUV6O06wC7+wXcK/fVYMiC7NPfD199oerI1grSYFGRC/mFjDo/1W/s8/liJ35k7fhbWeFStWxDxq8FiJWn3f+c539DBjW5b78MMPxyJBrFy5UubNm2eVT9X5O+64I3Yvntu+fXssb+xEgp1WgE3oW9+TIEIsGTNrEuRCMsZSE+ViYU0Cn7hNjPzknJ4WZK7fIJEnnxJjNgAvHeKgAVu74Fd728Z1sryffV7M/GKJ1CxEaRSygaMAh+5cP2I6PZoEtrwgEYgSOy/7IJM8U/53bpUTMxbBW1kvaKW6mDZ2Hdd8UszyqAJMqvx9zsPBcv43b5EIQhCZiDr+w8B4+aYxXiDEl6KuNjkOfcgjOYVywYkDcmZHU+xychQka8YO0wXjeJPlLzMyvhc070YA2Z3nxIv9P7W9XrbASfR0rOPdf+i4LLaJH1NNIGI3x842aM1OwkSFsfF+UVvhe0uxdc5wA59XcLNV2dq1gx2moD71pwdUM4viIAJf4EePSehNGLggOokA+IzZyTXR9J4muDoDC+EEu/DaNyS4dI6eSmtLzkbFRqkuPLrngMyNFEv9qtWysL1AjMpiufXDH7HErI8//rglEktVhp5PxAnpeeeWyhQEMrfwSAx0u2wZY7SJBXTOaxMdm83NkvvV/wG3hrUmcFJJCbhiARYUeyKfu0OCX/wcOK54DoucMkHHztUYiyE2vP9BMSGepCcVr2S+tkkC178nLju5ofaP3CnBV/8muY/fY3F4kYkz4E4J9cAgT7daNMg2ECOOXFSkcop03AhwrJgcV46XAwJrUqDDWl2gcT+A5Qi4Uih8wGsKDdVDrzwtJw7WSdm+16J1IgfGuuEXqV0kXedfDWfRte5VgDJI+8d/IK0/+bycM+/dMh8wd30E5cM5NO/VUVQuvyuZIdtyS2VNIRw7H31DChDehwNaBNyaIJICfX5G4GMzsAOTDBvYIUsf+vqsifLxNw7IqwA8cmS/h8/Mk+GDlA6gk3HK9oI2Y02dbsEoDv3ehDzLBZ/9/Fjf7y/YjKR+88FuAE9DRWcGxCfV8MrQ1HBYinYfkRx8cH2FXYlvZJZD1IaPtfuP4AD6CXZctyHnxIgJiSiyfpd03rlS2o0uOXs2DHYbDkrr6k2S2wonvpgdd4zLl+0Tjsotn7wtUREDTl+yZIkFZM7FfqbTaJpgR9BbuHCh5XfRyw0j//k/EHWdJgY0W51CsYTXY4JiLDlDwgDJ4Jf+Iy4bRcJqvG0HvMBtH5Xwf35djDedS/Yj7hq3A3M31PqhvWmcfJLbaQmf8iZpw48De2DPZsmDA2Zpg2o9lGEi5bDPO/k8aEVCZNdH1OdaXN9EAFO3Q1QaywRgC238uyUytHxr5kGjlEoljCm3D5MugEwxfG5avi1tyjm83gBo5T4Ezh/I03HD51ydRtcdaZYLTrtJrmnbL2VQqIlUTpJAwz4rL8Iky7FAjpzUcUQqwh3yg3Fz5V+ObMI3A0PuLoibw4hVjigIuAEAGLaJMI+IQImGdm9zMTl0o2/OmSz3Hjwq/4EQSpdVlshfsA7OmHdTuU4O6rTWKRnkNR4tqeDCkEHMe1lJnlzT3YxnD7G0T1nXA6m/2KxrcuYbFGqGJ43xUFAA5dQdlQ5MKdNd0LZCvwBwBkLJgK7rF09J591PWCYP24q7pQPBaUMlhVJ3FKrfCMYZuGChbDl+SG58EWrGWGv0SrW1tV6zxvLdeOONcv/998eOdYdR3jmBIOidc845mpx0G/ntAyKzZ8LAuDupUbZrIeACjalTJPKnh/ucVm1XTiDIxZOD3d/eZq29Rf76rHRw/S8BmdReg7NoKSuV4AduSJCrN9lE8NPwgrPk0CkrpOuSf4AW5Pul+5y3SWTGgv4DXU/x6jmk927YQ4DVnNV/ghgVkyxqYlqA2AMs+7biJUawVQCdgfOh5/4U5fhsBXCtkdHSI9MXCMWkgZ191fI/gaDHFxbmSGHtSdK17LJoO/CMjFYopNB5dc+aUB7AbHZbk/whH5IQcLPk4rqrpiO+XFQhyCzFu7n7devuG+Dw+SZESk9EN0DTeQMUwwogJWG0A0ZHWN/SIVvAtcEgQk6gTPCuiGYekW0AuDUwYdgNzctLAI5/mlFqAV2isv300d8DPthl4BkG2hBRGR82yaAYBkSwo/0b1yH0Z51I9AeL4gY+zv4QB2PlMt2u73pojURe22uZOByC/YxdjZ32NCQ68y2dMkFyLj9Dur50n5g9xrtu5Q00jVwoObd169bFFXXhhRfKqlWrhKBn56jiMtkPoEkYeeFFMSZO8Cyusl9u7YPzijz1V3A0MT2tWBbWgRMIbgnq5PgIjsGvfxkKEKZ0P/03cMQ74EYMIrpmcAMAQPPl9SIvvCSBd0Ir8cbrY2V52eGaXUYJjpnzAGxOopKJJYKkw+cYQWu07g1wXgQTvIcAPAO2dyb8ZIZe+HMsl32HoNe95K2Sd983oEiyO3aKXk42doRlOoLVWgTOlJxZZFIN7gsbPwDaW81jsr2gAuYQRVICMfK+okrpnlhrcZfBHq6Z5gdcYzUgamV/rwfYvWtiWew+bjs0MP/evCmybdkc+RaM0D89Y7xcCjCrhYu2CZjclIODW4Bv7Z+rK+RvZ8yU/Vj/u3dhtZhNUbMOtzL9tOzoAV+MmYHnaMmz8YGTaJCqRDsh/pSSebgw8JH213Azmc0fQjpL5A/rJHDRKVY17GrsTCDI7du3z/JKQJAh+IVKTTn5c7+S4u/folVPuE13zU4Lok0Yw8PYiWDS2Ngo73rXu+zJCffNrW9AGQUDJMjr2oxbYQzIau7cjbJq3E73STOgEl/8T1AUAUCeqNsvYaxDMn5aN9ZvQ9AALUxiw8VJCSdCyjnaNWndlFP63DzNBDp1Jsekdm/B7euheDIBYtj4T984sLMnQjgEfVCI6S6rAkeHWHEQbVLJJACOL1IdrxgSrQrajTA+eT//f9L26Z9bSTuwBr24OD9ONdxyCg0jdgtIgyGZBVHmepgV1Bt5MhH81iS4PmsC91Vl+UthWMBecaUJsPxt/TH53cngQnuIE7wHH3zQel/43nKixPeH68GcNPA9ogH8bT1rwHodtzTRmD95vmVDxmMVWXPfp+ztAV8bMwPPNnSkVaoehJ3RtHIp/+t2aa9W3+zxhVPLLNGgbEAj04Tac/69mV0v6/ruIxbTYmBdMB2KvLBNcj/9TssIPtl1/QW7ZGV6PRf5w0rEhkO8agyM6Wjd9SmfNnkwCA9ccnGfU6kSOOiSg6dyELf0wchBl8S+4WSH3CH3CXDMQ1KPN7ye5ImTtXJ6+8Ny+ZsUPiG5939TwgvPti7M+fuDCJg6J74QiBWNJvjcBCdHBRQamHfCpo6k9n8GDdnPfUf8dbYjBnyNTKmVrgveLc/gXX4ISiJ5EPuqpxij8YClnGIPG8TLfx8YJ1ixBOCFZaHZJjWIbmCnOoQgXxUskx+fsUBW2N5hgho9ynCNlxOIZ5991tLs3bJlS0z56Wtf+5rcfvvt9uKsfT4L7fc+J/2ErOoBuzamL8bMwKPtLiuQnMMtVkndVHumE10XojiTrqQ4MKuatWajN/zAwugAo2mZ2IZXb5W0gI7iPHCpxpwpEl63LWUVKN4bLjIbm2KakezTfhNt2xCMtT9EkCpHvLQigN04xERToGNZ7BtdR+W+lRciXAU65mEaf+TwuD7oVNxhnv4QyyS4bmnpltWH8G5xLQ4gxkgE5HrIzZPozaTr4B45AYlhG6IBWJHPoRlqeS4BBxsjS3mlr6hXz0cmTIuu7+EdD8AI3KRmJzU3KYokMVI7FFuc9E74vjxPWuUNI1f+ZhTL2kCRvBookKcDJfKT4Hg5BsWZjeu+Fwd0LOPcc8+Vp59+Wqg9TKJ2L4FOTVmY5gZ05OJ8oGPvjD2yvc1jr/EZazHNBkohtumKSDvscwp2NEpXec96heMmujCvnAi5Pa7zMahn6F3R2bfjkqSH/HAptrEPsnEXePEcgVl4eOMey2eniTUNilRNrofBLVMERrs510FjsAair5FGtklFIo7Za5Wtwdlr5p58kXUvivn7PyCYK3xMFoNzBtdmwmsLA7YGr30PlDK86+QmfH5p1skt+0OBaqlthycRGJibAI82aCoq0RRkJqa8ubA3NFuOSSeBDmt9Nml8NCvX9yzThOjatF6vW+PoYWhpIor5nR+WmqpZcqDqDDm95aCljMK1ujDCBtG8wSzqK/WYE2mX8/AdfD1ywBJnUvBP4/BCiDSpzGLUzod3zHjihIFgRpEkXaXRZjQVkcv2RZapeil7z/ucXYaebcNVp0rh5oNRkAN3FIBro1Sk3Ehk92EJQJszMHdKqkv6nKdYLNlaYDJH0yaMaMOPvizhV+CZg6FnZk0SYwbWaqCdacwAuE2tkACcWHd844/S8R+/xtpP3zZRJDRsBH+Rauw6ELAjsBsOW7tUbYr84G4xn/mrGMvgLHnJ6WIsmIcQQIgDt/xN8PqP+Gmfhko+OM/+UCb6lFyiEs06ftEOBZDz3i6RpnoAChxWA2BotD05BxMtgFgXVPAF2p8hKIyQuH4ct4acRHkquO1ly39mBGuB4dmnSc2UafJSATwHwS4wMmW2xVHmrF6FqBFQLnFRmOH9XjEKZbYJTygQZ8KbqAV0TA/AwL2T2qnoU7sSFjk6csGMvk7t3ieffFJqamos7o7XkSjGtNPevXvth/7+GOsBn7PL0APvmFQibXOgFVjXLMdOq5Zxq3dKF+ztIi7xsOy3DO+G4TAScr9ynT3Z875dJOZ6EQ3W3QiuyiJPwTdhDQYlcHNOARVn9gY8SZgFORI8C4oJyN/+j9+R/G/fBN+F6a3/ud0+E2mMQEANSAFXpZxyf8o14OdR5mBQ9kiR30BbFYOvAX+VbmRQQQW+MGnDF/rvr6Aj+/BJbpdlNI1iSDtRiaNp4mzpCBRL1VkXyqaXXpIzF5wuIRiwhzc+J82RoLQBPKqrodACIrjElQERqIDjcxLDBBktiD1HRRgGqIW9Kd/n98CIfFMgX2paj8LOH55iJsFVGpRgDLMRa4azkKN3nv2akS/XIn9vSvQuFL2G5y2xPLmwNVwX1XrRNEUVVJibSk3kjnft2mUFs2Xa8uXLubGIQOmLL7U3xuY2/osYm32QsVY3vO1kmfirdVIAwDt6dq2UvVJncR5dZRBpBuMHvCDsfHIaoJQCoOn45OVSUBG100u3MvyIkwIejGp5ZzuYmQBAC+hgiKuckfO+VJaJc3cG5YDg8pOl/WN3R92aQdRJ4lrUcJGB2HKRtevEgKPlgYCduRtmGW9/m6dmGFhzpQ2dQW8tyQiamcaCuRJ58I+WGUKyrM5z7FPl7rR/3Y5VKYbrc1QksXvQ0eu0bGor/vEvf4EnkzbkzQXvBFtQ/HaDM58Prq2yvFLq6+stBRtKCiwnzDYxrAF/lWpITztIlj9hHJR6ENF8b3eOVNMigOtzPcD+9ch+WRKcC8FCPkL0gAwYio+H6QZAMwDfmFzjk1Ce7A7AW4nkyW/Cu7Wq1ja4E55TYGPXdek/xNIZMmnz5s0WN8c233DDDbFzuuPmmYeiS198qT00drfOydTY7YkMtbz++iXSOmu8lL60T05g2zq7SkJQ/8/fd1TyYHDObe5BGNZiPay7LF/2/csFsq+4ZxG/H3XgAJdMqSH0Nhj/Qkxqp8jTPRydi22Z5jOxjicw0o0jxA4LnDlbOv/7objk4TqwHC03gyvDINtfMSY5NP5oAO6Fwi/Bjm6uQ5sxwYVGFRTpn12d4GzyZIIJf0pux+RkmE5FFL4HdnJyMczbiPW5SM1JlhIK8xIgC4oQxbv5iKWwQoBTkXhcyCE4n+a6G4mTCo2YHtzxqpiV4K6VuqFJCVdhSmvCW6UZhumPBkrlBMBOuO7XAtOLZZdLK/xnPtoRkAZEGFjd/irkpoBeeI+hJ5nQmoel+/QV0vmeT2hR1pb1s/dJ3EmXA/YBxbk+0Ll0zhhM8jm7QXjoR5fPkWPLaqT8L29I8StwkWRAulNRKAaUUAII79NVWSRHkKd14aS0767rFrTV4sdM26xkyg2hK5dI+33PSRDrcELFk0OIIUaxJX6JyABXJzDeNXpcLdnzGVhbDP9tr5gNAOzxpRYHks4AZC8rE/uBD1wvkd/9XvLpu7IfZL7yqgQ/+H7vV+7dJ4ZHYGShBtYVo7YfeAnSIHJy6fQrOR07UWmJadQGVY3QW2+91dKIDP7vzbBBu9TKPrV6muTsfkEKpkTFl1oGvfyTk6KfzgDCCnWd+3brlEZMZ/2Mhv1iTp2tlwBEj1leWTSBM+k/dO+QdViP+1pgoqwLQOVkcoUE64/L6TVnyDcml8iSQ4iYXo+6W95TpkrkjIuQZ6YW0WfrbGefDD0JPjeXqGfGbroPdoP07CPgghovW2j9ONgZ+GeJDBMs9OvsU2fk3OqHbd/nDJ6zb87KCXS060oqxkT78u54r3R88XcShGG5CU8qApBKSFBaofeU4BVnJswSXDRDuh94XnJufkvCPEN1wpg3F2YS4Da3vCG587xxXFo3c9s2YSBWY8Z0TUq9JRdoAMDsRNFm/SFwLbCZAzhIPs4zdl4l1u4oCiQHPcTrdnw3XEXc8HrSce2nJO/+O6V78XLUD8E5ERjVUhzJgQlGD1kmAzAdYFih7lPfjPpHhUB8TzVievgIzusFFJSzjQ4/mixnzrH98sA4iEFBxrFGi2uLzIAYExSuxNomXKWlQ1y3U3Gm8zp+K2MxJI+zH/zjvj3gg13fPsl8CgYBa80syYDHQUTFUl4rwA+bIkwC3pQpU2Lg6LzeQDDZ3M+8Uzq/CMUKRkyH+yQnke8wGyAShFZe4LLTnafjj6GgwqC0ArCrtYna4jMN3VHgve+Sju/+UHJe34z1u/mebmytuwEkA+/wtlYXK7Qcol1EKIeLDytMUGQN1gzpGQTcnomJiPWIu6EUtAMeSV58ORrLEGr16dJA+5UTJZ0sOe/NqAUd7/u85N3zxagLr9qTJfjyX8RE/DiL4Aw6vx2cOwIMd59xcYxb4zvKaOwaMT1CMOwp3ICWZ3jOac5bWV5UYrZ20cJja399MntMoDiTolv7JJCXsn78+eT3gFsPBL8A0hPJ1n40j78dvB7gR8zBxCuRy+NHz/UqzmYPHIC4CeJNtzIociS3Fv7TCzCgBqiBg5MODMoQWRLkGFMvOL9aAvAX6CWcR3hTneRcvcxrVQc9X9ucWVIAwImsfBSKD1DKQfRwJzdl0m/pvjroub8qgavfARdqF6ZfL/R1ZPXzFrdmrn1BqBFqlkABiWJhzhhI5N5htxYoAQAebxETsfYC/RSzRgvs319+z27vAkszi8fBIwpEk+DEQpvXSAAcl9EMWzmsqXEN1IST5zDi59k9njC+ICOmT5w40fJfamB9rR1hicIIIxSG4slLxyLWxIuan3biGp8SIxiETzkf3lqiYld6QnnkkUcs59/Mo9qgBLKvfOUrQg8YzvVI5iOQMw+BlOfZVhrL++T3gL0H7Es8Pmdn75lh3qfYieKnRDPyRNVjfl2X4cyWhrYkPmi7iNMIYR6ONbfg2fOimnPhHtETNSt1oE50E0d6oMekIt21JUcxGTu02rn0TAkhbI/53PMSoZNmelghBwYyOxCHrmq8BC68QIyP3tzv+xrTq+FaC4Cwazfs0qbFabk6C40cPGhFRDeh5Rh57EkJvGWFM0vSYw7g9o81aWaXk+rqy+VULIlhhvgj5f3iC5YSCZ02H4c5hpP/P+WUU6x8+ieI8EOFJ45LUY4p3cuulLMcIkzNZ98GDuwScxxsOUH6nlpriThmAF+NZ7hhwwbrnX7uueeEflTdiM+cCigUq+patls+P83vAfaAD3Yj7D0gWNUOQDRITo8/EgdLulCaNm1aFEQLoCQDLVCLKFpTGVQ0Ja2/kU6sXQ2A2E6tp5taPYvWfvBynrN7CxggRzTOPVuC+A0WmVgzNRAw1oDIN6GiTz1CJ02bKnAOKQZ+kcf/gjBK5wFRerUVU9VP/WimypfovPZvovPO9I73f0Fyf/e/wkjl4fE1ztN9jk0Eeg0egTQBgVyda3X2zFSW4SSO8ey6T12OvNGZFW3i7O697KYENG8gCN51110JwY73oPhe3w/7Pf19vwecPeCDnbNHhvmYohnnWkR/q8TBnz+WpwPCzOOIFt3fAnuu41AVKI6KphSQnEW6zbTtXGYzwEIHY2cZAz121iWdY4rVKK6jG60KGIfPmjXL0kqkdiJtuOp27pLcAwel8oLzJfL8GksBxYBvTMnBp0Tx3wms5+HaQM0UCeTBmm3XRqHXfqN6gkT+/LgErrzCc3Wc/eD5QmR0VU7xUADV/YNwK1bx0PegdVohkYk10WgInBwxgjr9Zx7ea0VQ71pxnYRPv1BCz/5BwvOTK5nQ8NyAfV3XNf/mWguCGvucgEdOjUSujSLRZBwuxfc++T3gpQf8qAdeemmI83CQ8yrKJIgRNLzmb/7sL6WtFIoUiOlFj/ReRF3O5tMGj0ouOe+7wHnKOia4chDSQYuJVKJxcio0YlaxlWtBw5jIwVfFa6wGj+ml49l7filvb4d3EWpgQlHF4lHoo5NrdjTGDgIMIoi2XQpNTDo/pmiPGpowyg7vhzeRsyZL57s+bjlkHqzmERz6Iw531sc4eggRy18Vo36vFZ3cCupKF2AzTwEITo9lD637s+Q8fR+0KpeiXU7hpwk7z83S0tIsX7jkU3IAonMTtjhlcLIwFXZ1pZtekY9ce41VFvv4sssui3P5xRPkDO1cn96Y7z7fNZ/8HkjUA/aoBz5nl6iXRkE6P3Tl2gh2XkCv5INvkfy7Vkn4tPHWtQQgKhBoKBYvzaZz6Py7Pmhl5YDj5EA4OBHo7JycfV/vwfo+//zzsmjRIs9grdcO9fbG66+XHV/6qlyOwTqItSITBuPwfRVbswu2H5dQ004oauRJBLHijDwoYGjMOBpUF5bB3hIAOW6i5N/5EQDeba7ai/Z2KXfs1nf2fM79TACdclPdp1/kLL7PMQO4hucvkdxVd0vwVayVQvmFJg104lwP5+j/PWeF1J9zvlTDXGZeblSESe3kA0ap3Dtpnnxv1XNy3a71shhcNMWSDzzwQFzEAoIg33PnhM4Huj6Pwk9I0gM+2CXpnOE61Z91O6+gF4AZgpTkS+hEpzX7ZxvpFYP3JHFAcQ4q1omeP2ZdkwThRUUQnDMRcZD2oljB+5CzI+DNnDkzJtZMVO5wpZuHDksh/FySGqsqZSrcbZkAOqVABzRZj+yWcDEAEGSQe9m9RywPL9QKtZFZWCLdSy+R3D/9QDre8VFwSYtsZ+N3CXIEnXTBLtnzi79D4iMnF544Z/SMWVIhHe/9VPQAJgn74ZLu/Ff3yMUwUykGVzsjP6oopOUQ8ibCacF1tVPlGDjjn1SMl58umGq9e87QPHYOW6/XiYAe+1u/B1L1wECXb1KV75/vRw8QuPr7MSvokeNiGW6z39zPvxvq81ujpgeoH00XyGXxR1VucmZuv+a9B6Vjy17Zd8lcaw2Q9yBxa/+lOzgT8Ai2HNhHGpmIcxf+2v/K+oI8mb10Cfxhn5Au/JSIeaHG7RIpsqnbQ0RnjMM6HlXhT/SG0xFbuKXuxRdI3m++Dqvq5Io+XiYNWhduVcPRntaffb4L/aUWSG3PXb9Hrp1QJtUOkHMrsxSG9x+cUi4f3rJf1sO1nhfi++mT3wPp9IDP2aXTW0OYlwM/NQyTzdLdgEyryHN6nm6f1DSB5xnNIO9bH5T2W38iwSWz44zME4kzydFFdjVJ3vc/LCUubsT0vv3dMlQLAZODNfdHCoW//g3ZPXWSlMILCvum5uSTpGv1GgmVA8xAweZ9EslLYBtZAq4OXKExo0AibV0Smh7l/KJtQwxE2LHl/vkX0nlZVCQcTR/Y34GAlP3Oyd47ez63/asRG/Eq2HXm9xjTU6yakjBpuHbiOLlqwx7ZcfbclNn13U6Z0c/g90BPD/ic3Qh+FVS0mKiKXpVLaKzuJKOiWAp+9lG4uGqX8N83iTS3OrNYyhdURgnDW4pRUiD5P7jF1V9mnwv7mcC1P3KFmeJO+lkN6zKKziIIzEpXZLXwL0ljalIJBu7CUvgN7Qb7Agq0NkETM4k5AcSYkX37JVJ/VILz4JbLRmb5RAmuf9qWEr9LzjxdDt8N7Dhx4kRCAYL7qcjJZfNapjnLch4/smOPHGvvQFy6aP/QXi/Ve6x1wcqmnAux5517wREnoXT7JElR/imPPaBBp4dr67GaSbP1HQWTZvdPDmUPcIDhQOE2gLEeuqaTqk5uHiisa6BBmPvvV0sEzqHDv4ch9pMbxKT9HI3PEajVwLpc4Nz5knfnP1pgl+o+mThPsR05Aa7jDbemJiMWBC6IGlzb22aceZpE/vqsBKYDvBCmJinR+XYnotDPHG854HbmpcIKFTlMRAdwUsLnhoxUy6cNpTOkDdMffvjhOE1SpyiUkwq+W8m4N+eaHd9DXuckZ9k/hoR3xYRyyenh6sgNJ5IWOMvi8fyCXPlOXaPcNg1iYWqxcsplc7PHelOz16fB7QEFtcG9i/fSLb/CPdnp4cmLlydn6T7YOXtkhB0nAztWlQMWB4CBUABrK4Fb3irC3wggtomG8OQanIPpUFXP3A6v/jNmuN8OYmFGJTdfRYgbBLdNRpHjcMmGATwYcB+gzTIM6rBBExewSwZGie5JY+xUtml8X7jmlax8nWApKOpxovtq+suQFJwBKYAb6TqbijWpGMVQQnYJRdWR/fJ/L/xGCv6CaCFQ5iExll57fgl8tv4D3ALN62PC4nYvP63/PaC+TLlVkNFt/0sd2JUKbtwGMJFifbhNh3ywS6e3himvDjhut+fAkQrsKPYZLtBwq7OXNNaX3N1w1dvc+oYYk6G5moCMCVVinAb/kS+uFxNiu0ARbBdD1DEERWBb1hGWSEuX5EwplkBlgZj79pFH6UuI/g1j15gJgz1DumCv78Hll18uq1atcrVNY/lcw1XAsd/Pvq9ASHtJcnR6bM9j3+e9C2BnWErXcwnIfk8dUMlBEux4fOnTP5e5DTvkb5MWSMvckySINAXC4w2HZfwz90klubxrbpedA5zgJajimE9WgKPpUE1NTaz/R0rH0Pfvrl27LGfkrGs6gOeD3Uh5iknqkWwW7lWUScBLV0sySZWG5NSwcnfQwkwV0NUoHSf5M0zpCsKG7ngnAC6qWcl4gcGqPMmp7VW3N2h47kYUYea6m3E4RYlul9vT6E+SgMKoBMmcInMNl2tpBD3uM2QOvZcoEdgoUWBZ9BxD43+GlVKxKuul8RQVYHltJWwP8xKEsNKydctByh5w97qnfiShSLe8PnsJQtt1Y76AfgXnR+6PYtDy8VVwYYYJxvFGqfwJwG7Fh+PEm1quv+1/Dyj3RhAZiUDHlnHyw7rx/aRUgHVWri9Vy32wS9VDI+B8qjUKDk72QcetygTM0QZ2w8ndmZhBunJits6NhPIhYoOPzEqsu+WHkrthM9xLCzQdjBph28rVXQUXPU61pQiT7s24lkdRZrJ1T5a9d+9eC8DcFD5aWlpi7xTP8x0k8CWjhsOHpbk9aHFp6cy4z9j6LGzxjsvOyVEloE4MYDkYyAoBck4ySyolUo2AtOt+L28shU9OnzLWAwQOAl0YEzPlqDNWeAYLYt1YRxVp+mCXwc4d7qJSDTKcgacCu1Tnh7uNie4/bNwdwCAl0RUY/V5C8xArCMmzYyDpQzC+NqnJCW8jbpRKhLtu3TrLjyevPeussyyAU4UVPu+77747oZIPz+vP7d7FDmP4VO8gyyCct6Gd5Cw5sUo2YJJj44DFidpb1t4vaxcuZxEWNUM5KpRgcsAMZvkkKdrxmoQ6EW8v1319MFqS/zfdHlDAS/e6oc6v4tZ07uv+laVTgp93SHogmRjSqygzlbLLkDQkzZsMF3dnTIRRNUV7tlhsblXvmH6O5O5dI91l091Ox9JMiAudvF1wx3rpuvymWB7nTrLnRbvJO+64I+4Su/YqQcTN84hewLIHg96Ua8pR+L6EzUQfwKPokyDXBr+iSqWIn3e4vNckg1OCHIhCnX2l+XXbOW2ejKvbJA21KQIN6wX+NmkPqAiTmQgkI53sdfQqykwxHR3pTR479VNNtkQt9qItxwFuNHJ4dCVG2zuvdadiB1Xw7V5ddJ/pXsiYN0fM/QdSZg2XTpEIApgGO5oT5jUg/gtMnhx33mg6APFluYThVDkRMTIEie3mZMdN3Gi/NtV5zcs1usGiD8H39VoooJJYH13b45ogj+1AxzwlTfulLr/X6Hwv3IwtL493scZ8TqJ7sqLGkedxx1nP0XZM4LAD30itf3/q6XN2I/VpOurFAY8DNR3lctbuJIIdxUYc6JMRB30v2nXJyhjqc2wb20wFjFQ+NNl+DqqJvLCw/ck4Jm2bMR2BWffWiTFrpiYl3HbMfasUvvYgzMIiEiko75PPhNsw45zeqO6M62Zgra79w/8by8vna1f84AmKDp0G9mwf+0L7hG3lREgnAlyLc3s/YjfqKdd+nMn98fCfdhasMXZGDKkNmCkBOq+7Q9rgKDsMpZdwKEe6MNjOgalGKspHbMaOLm+uxVKV5Z8fGz3gc3aj6Dlz8FMORQc3e/UpzuQgn2qwGywRlr0umd5nmyimI7fjBAC9VyqgYz4C/Y4dO/SSpFvjkovF3LM3aR492XrSVTA9yJWcpu0SCPcqchhdnYj9h8kJNB9pPB7cgKgA0L5UoONzZHv4XFl/5b7dnq/ei+eYn9fxGnveVPHdmHewn/8ni0w5COXT/R6kYZ1Y88yFf9D2cEQ2wUbvOrgM80QwOM+DNqxPfg947QEf7Lz21AjKp4MdZ/VuxAE9meblUAx4bvXKRBrXqnQdzz7IewE6vT9DCiUCTM3DbfAtK8Q83IBgfL1rTPbzzv322vOlfd6l8D7TKrmHXpOchq0Sqscvp0VCax4WAzHdOm78D+m86mPOSzN2zAmRG5jxXUk2UcpYBXoK+mlZRI5g7e6lbqy+JVmAaygsl8KWRtnVGZGr82Bu4NE7inHimOTVLsh0tf3ysrgHfDHmKH64HOBJbsBGQKBYzA4I9qYmSrfnGan7bC+5PAIWOT6K7pKJLp3t4DX8ERRSrXWGPvNJCX/ui2IsgSJECmUV3ieSVyIdsy+SDog0TTiMDnwIrtZm1WDA7zuv5DMgAGWa2C43wMv0fVKVd2dJRJ4Ak3tXa0AmQKRZi2gQpegGGtGfgCbKXnB+OwIV8tnjB2XKpBlWcewTrvPZDdDd7hPY/bp0vfm9Un6sNaWo1O16P23s9UDfL3Ds9cGobrFyNG6NIIdHw2E3GkwlBbf7DUYaRbYEOtqAJVqjS3Rf9o0ncSbCHwW/9B8SeW0T1vD2JSouPr3pSNR35kduFmP2zCEFuviKDP/RRXj9/lQekW+UmvKOfFNOC5lySo4pbwUX94ViUx6pQEipBedJUVNv3+raZaLaG3CvZpZWillSLhMnJvZyk+h6P31s9oDP2WXBc0/G4VGhxY170PU/DvqjmVLZoiVrm4ozUwJlAYLdfvHzEnnkMYk8/hf4zJwmgalTsPbWq0hhGaHD64q5A5zagvkS+u+vQA5KP/59abA4ur53GjkpZRBllgHo3OjAgvNl3P4tkn+iSdqLKqwsNFFws9MzOlsluOl5afvEj6189ABDLn00Syrc+iRb0m6++ea4pvzwhz+MOx7KA5+zG8reHsR7EfDcPngOBIkAYSwOuvZHoOJMt8mAPZ/uBy59i4S+8TUJvO1yOCkuFLOxScyD9dF1PYgpjfPOkeBXviDBD9zgCnT2dTMt099Ge2DTig9JEEbiZfXbsMQX9eLh7JvAgR0S3PwC4jB+F8Z4vRONVKJoZzn+8djsAZ+zy6LnnsiHJte4KOpzU2hRwBvtHF5/HyPbzbU/9gPBzwsZM2uEv1TEMvmjBik5aZ+S98DW82+UMnB40175s+REOiU4DsFu6dm+9bgYne3Sdf7V0nHDZ/sU4vW59bnQTxhTPeCDXRY9bq51JCIu+LuBHfP7gFdriXpTijMTda5LOm0ifYBz6ZgUSc1T5gl/E+BUekIFbBapyQnzBDhCTHolJ3SJ3u+kF/onx0wP+GLMLHrUBK1ElGr2y2t17S9RGdmanq4400s/uEWH93Kdn6enBwhuFFXCdjEV0PGKVNqbfr/6PeBzdmPoHeCgngwQOTPmoJEKGLOxy2r7Ic5M1A/sx2T9nOg6P723B+zKKeSS7733XqmoiCqv0Ok1nU3PmzdPaHdJGovvbG9v+XteesAHOy+9NErycMBORqnAjtdSWUNdUY21AYT9x/YPRJxJoBurHHKydy/dczQpsdOSJUtEIzowfeXKlfbT1r6X97vPRX7CmOkBH+xG8aMmKHEG7MUfIpvJ/OQ4UnEdapDMwSMVgI7i7utTdbaXaz9UWOkv4PlA16dbM5JA5St14q3cnLNgSiVSvdvOa/zjgfeA07wgWYnJ8g62WYK/ZpfsyYzwc4gj8cwAAEAASURBVPywOTinw4ERvHiNT+49QDMN9qcCvnsu91RfQcK9X/qT6ozywcjrDErLXyJiRHOf/B5I1AM+2CXqmVGQTrAjF5LuIKsDeqomjtVZMicE/QG7VBHlU/W3f763B5zvNCOwU4xpF2X25o7uqYG5M90/9nuAPeCDXRa8B85ZsJcmeTXE7c+g7+X+Iz0P3aylC/Y+2GX2qToBz1n6Aw88IHfddZf103O+Vqb2hL919gB8ssIraw+tXbtWd/3tKOsBiibT1aRMxxaM5SfyxDLKuspTdQl06SqrkMv2KXM90N8143Te68zVdnSXpMFQ6TOX9qErVqzISIOca3SZWpd78sknLb+/5OYNmKnw50ZLly6NJfucXawrRvcOZ8EcnPnzypHQb6ZXYvljSfkinXVQ9mEqLsRrP/v5enuA73F/+rWsrKy3EH/P74GeHvDBLsteBQ4Q9gCeyYAv3Zlzfwae0dy95GTHEsCPxGfF/h+rovSR+DxGc51804PR/PQS1J1iCLsoh6CmtnPOSxTwOKAkA0a9TstleV7X/fTa0bal6Jbaf17Et067sKFq64EDByyxE9cYJ0+enPS2r7zyipx66qlWnl27dlnb8ePHS3FxcdLreFLz19TUpMyb6Qx8N2li46ZF3IlVmG/saZTf1jfL0TDCo2NRZiKCTbwjZMgVCCPkk98D2gM+Z6c9kWVbu19GghjFm4k4MwU8L12g5XoFRy9ljuQ806ZN88RZsA+HmghAVLcnAHGrgOS1HrzOC9C1tLRY6yPDAXTaFjclrEcaj8u81Vtle1uHvGtCqdw0uVxumlIuFxbnyjPwu33lkYDUAf988nuAPeCD3Rh6DygSIuglonQH7LEgXiJXx3ZS+SSVSDPd/kv0HLykE4BIClbcaqBecnt6nlse24mgSPBwA0em6Y/X8kfXXJzkOMuxlznY+5yw2QMOP9bUIv++/RDArUJq8uO9rXQj0vlcyKwuyRO5qTkgDYiI7pPfAz7YjbF3QLk8t2anO1h7EXu63We0pdGbinpUIeglAr50+28g/XD8+PEYuGk5qcSYmo8cGjV3nZwawYxiTaZzS5AjiHLfi5hUyx+sLdtM6obo8uYt+y1uLtm9ciDTvBTR0T9+3B/mkvXTWDnnr9mNlSdtaydBiiJN5xqI3fmuLXvCXS9rWQkvHoUn2F5tM7k8NTUgEJDzUc5qKJpGsaUO/sp9kVvTNbn+1IFtUMAkyG3btq0/xQzaNWwf39kf7GuSC8Z5ExsXoDa5AL06cHdTfcwbtGeTqOBMmRokKj+ddB/s0umtLMrLwdoJdukoWZCLcV6fRd2Tsil24NPMybhmzZPJra6fEpj4o/hxoETgZFkjkdi/fG9/fahDLqnwXsf5OYasRajHq8Dl+TR2e8Cf64zdZ99H+5IA5lUUp9zhGO6+Pk1n3w0Vd0dA4r0IcLq2phUi10cRpHJ8mp5qq6JLXkeR5sSJE1NdMuTnKZGog0JKwDAS3tsZxLgYnN1+f90uYX+NlRM+ZzdWnrRLO92ATcPcEMxSkSpsjGUOz95H7A/ltuzpg7VPkSOBieJM1crkvZQzYzoBTMkOXvZ0PW+/juXpsW4133Bv4fbJUrBxcw3W3t7ep3rEOcQ692mM94APdmP0BXADOu0K2s8l09rUfNxygKdPyHRdldnLyIZ99kMi047BbB+ByA2M3NJ1PY71cbtG093OuaUNZruSlT0LdnQtnZ2SD2DLz8+Py+oGdg0wP3gTNDN9Gts94Isxx/bzd219MiB0u4CDPMGRPy8coVsZozmNpgnDAXSjuc8GUvf3FpjyereIE9i6YHLgFGHyPq+GDVmW46/XDaTPs+FaH+yy4Sn2ow2pAC3VebdbEugIePSyMpZoKAGeYkuu0zkpUbozn/24P9fYrx+ufQJXs2lIE7g7amjqT7VT7fXaDRnmkpAphS5LfFzz9EXw9t7K7n0f7LL7+SZsXSozA7f1kISFOU5w3WooAcBx+yE/HOq2cnB3GnhTIYXp6RBFk7SpG430/ZKIPNFhSH1Hp8XNkaOzG52zTbsihhwAV3d7sTtXV1hYaJmS+IA3Gt+A9Ovsg136fZYVV3BgTDZID3QASFZ2VnTgMDaCExG7Igw5NCeR+9MfzzGPAiTTeWzn7HSf5zQfr9My9BqmjQQqwcj1+3LYz2E97i8wKzgITq8diiutwLXdALlVcBdWLhH5SVliNUyd0Ol2JLTLr8Pg9YCvoDJ4fTuiSyYYUeRIUQ4189zAjaLM/oLWQK5j1Aa3OlE8qrPxdDuXBuDUNO2PeDbdew1Ffj43AhS5M9W6VM6OYMX+4znm4TGVU9QcgfXTc1pXnlMuj/l5nZareZmH+yOF8mBScFepWAC3vduUJgAeZ+8TAxGpLTIlx3CRXdoqzz4k6dZ2yt/Nwh7wObssfKjpNIkcAjUJCXxOGsiMl2BHgElXcYNAx+jTd955Z1x1WEem33///XHpXg/uu+++uNBHXq9Lla+/oJ6q3FTn1ZaO+fgM7SDEYwLTLnBp3CoXSACkVxQFtUT3IDCyPHu5PFYwTXTdcKVzPW4RbAsuyDXlTfjRL2YqoGNd9+7da4k+GQDUp+zvAf8pZ/8z9tRCDtoEPHI/SuT2CDIDIV7PQTJRiKFEZTc2Nlr3VvdcTz31lGtWJ7fHY+UKCbQc7OfMmSM33HCD2IPVsl40meA5OznLs58bSfsEH7aNXJgbZ6Kcnb3O5NQ4gVGO0H4uEZC55bVfN5r3+c5v3rzZeuf5ng30XR/NfeGl7nzXhoPsJjMDub8PdgPpvSy7lh8/B3uCgor76ACZ6VQA4IDI/XSJ1xBI1Zmyl+uXLVsmL7/8cswXJetlByaWeffdd0tTU5NVnAIa48/de++9cscdd8g999wjlZWV1nXkCm+99dbYvl5XUVEhN910k9U+Ozep5Xmp63DlUU7N6Q+T6QRCEgGOXCCJnBq5OnJ8dk6Q52hwzsFMOUbmc5ZjN0rnNdlCfK8JdnSX5ybhyJZ2DrQdmQKdgdajv9f7Ysz+9lyWXscBkR+8HdQIfOTyBhqsNZ2BhAP4unXrrF5Wh8uzZs2K9fqDDz5o7RPUbrvtNnn++ectkemFF15opRPcCGhXXXVV7BruMB/TP/WpT1mAyP0NGzbIqlWrhMDH8niO4Mq8I40IUgQhEvdnz54dq6KCkeZRoFNg0+u4VY5N0ziQEeh4DYGO5CxntA92VqNc/qio3f7Ou2Tzk0Z5D/ic3Sh/gINVfQKTU6GDoEfA628cOw4mvNYLaKr4kkDHCNtLliyJayrFnAQqgpqSiiwvvfRSi7u75JJLYhyqPQ9BTTlXghtpzZo1omDKc8yj3JFeO1K2Cl6sj33fDkZMt5/zum/Pp+U700ZKP2SyHgS85ubmTBbplzXCesAHuxH2QEZSdQh4BB27puZAwI5tI9gRTBRsErWXQEOAe/LJJy0u60tf+pI8++yzcdkpajzrrLNiabomR+Aibd++PXYu0Q7Xaajh6dPY7gF/vS77n78vxsz+ZzygFnIQUDGPFqRclx6nu6XGpRc699xzLaAjqNkBl9euWLHCOkcOj7+HH37YKpKcIDm+z3zmM9bWKYrUMh9//HFLTPnVr37V4uAImhSbMv/KlSutspnXJ78H/B7Ijh7wObvseI6D2goCHhfvlRsj8PRXWYUV1XVBu+anNoBcFsGNW96HiiqqgKHrS8yryi7k/KiEQvBj/SjyPO+88yyOlFuq2rMMe5lUVCH3V19fL7fccot1jucprtPymMcJsFpHf+v3gN8Do68HEC0Dbgd6aO3atbrrb/0e6NMDCjBce0tH2aRPQT0JBJOBcomJyh6q9Ez1xVDVd7Tch+YUtH/TCZZdecS+P1raM9LrSRjgjy7XOBnl5HEkEyel+o4YhiH8udHSpUtjyT5nF+sKfydVD+h6WyaAjvdS8ehoB7xU/eaf99YDXA8muCnAebnKDnw0j2HkA6bZ072U4+fJ/h7wwS77n3HGWthfLcxkFSDgcZByE2kmu84/lz09QHCbNm2axcml2yo7MNr3OSHzAS/d3szu/D7YZffzHRWt46DEwWk0Ah6B2qf+94DTvEVLcuPOCGZ2QNO8bluWy4mUr2Xp1jtjM80Hu7H53Edcqzm4cXAabUohidxsjbgOHmEVosgykb0lJQhOKQJF3V6BTpvKd8n3iqK94W99sPPfgRHTAwSO0QZ2HIB9cVl6r5AbN0fFCHpvSaTly3S7RrDXO/L5qMs7XqOAyYmVTlT85+e1N0d3Ph/sRvfzy6raj8ZBJ1UQ3Kx6QBlojB3o+LzJwXl57sxDUTc18GiC4jYposjSzbk3q60gRzdwJJqaUJmFRBAl+PmU3T3gg112P99R1zoOajowjYbKc6D0yVsPqCiSXBzD63gBOWfJVIsnqPHH94TgSaLbuLa2NikoKLC2H/vYx1zfIzoKJxHsKEZlXWjiYNcI9tf6rC7Kuj8+2GXdIx3dDRptYDeagHm43wxyXeSmnOtx9nqxP71yWgqW9HpDoLv99tutohj14rnnnos5tCawKUen96IHHTq+psMBEj3vMBrEvHnzLCBkmq/cwl7IHvLdhWXPs8yKloxGZ7w+4Hl79cgxJQM6lsK+JJdl57RSlU4/qurwgHkZu/Diiy8WcnHKydn36RaOHOLTTz8tBD0CIT3v1CDaA4GSIOdz7Kl6ffSd9zm70ffMsrrG6kpMDYxHQ2MpSuMgnmogHw1tYR0JOAzyynUxck/6o8ivrKzMOp8pxwLOPuG9NKST81ymjulg/IorrrDW/ug27pxzzrGKplcOEjlQgi3b76/lWV2SFX98sMuKx5hdjdDBdTRxTARncqUE69FC2r/2rbpg0jbwnJ7XNG4J8IMBeHz26RIVVsilEcBI5M40tl+ysqj9Sb+qTz31lAXu5AjtIaMIeAR9TmL6U69k9/bPDX0P+GA39H3u39FDD7gNsB4uG9YsVHQYDWCnXMtAOmukPB+CENfdyKF97WtfiymoMGgvo2sQ+GhiQFGlxkSkGFPT3v3ud1vdcN9991lpjJhhf4ZsJ4Gd9/FBz/2Nufnmm91PpJn6wx/+MM0r0svug116/eXn9nsgYQ9wYBzJHAC5T/4yQRRpjgQiABGMGKWCa2120wMqpjCKPdMuv/zyWHUZuknT1IRBt4x07xbf0A565H5V3B4r1N8Z8T3gg92If0R+BUdLD4wUbsetv1i3TAEdy7dzP273G6o0Ti7ItVGUSZEjf8qFsc38uSmbONO8KsToM1ZzBV9jc6ie9MDv44PdwPvQL2EQekAHlUEoetCKHI117m9njCRlHAKvG+h44bL5zAiQBL90n59ygzSn4G8wlVlYN7fJSn9Fq9pWcugjZeLS33fR63U+2HntKT+f3wMeeoAcgtvA6+HSQc2ig1smbkLFFC9Akol7DXYZbIe9LeynRMDiVhcFPJ6jUkx/jeXdyranKdBxHVKJYlpVFLK3Qc8n2vIa+/tAzri9vT1R9pTpg73WlrICHjP4YOexo/xsQ9MDmVCeGJqaut+Fg18qw2n3K0dHajYBnVuPK/gpuLjlSZRG0eZgKrOowk1FRYVlRM960FMM70lSbzDcZzvsgMY0O9EQn/aJ1GDl9cFgUCKRiPXuErCzkXywy8anOorb5FxLGY1N4UA52GKt4eqXkaKYMpjt7w/Q2eujnOFgmGYQ6KiMQ6L2KT3F0BMMPb9wokUQs+8T0KiQw3MrV660DOdbWlos7VVqnqrHmNWrV8vhw4eFkb2rqqrszcmafd+DStY8yuxoiF1MM5pbRA412cx6qNuWqbpk+/oOuZyBgB0nA+SqBntNk/egi7TJkydbwEVQI9EEg/sENu5Tc/TOO++06vToo49anmKKi4st+0L6EaVijz3vt7/97Vg0iKF+Rwf7fj5nN9g97JefVg9wMOWMWEUzaV08wjKzDdku9hthXT6g6hDkCCK0wXMLystzSmp8T0kEI1/wnP285nNuFUh18sFrEgGj5uGW9yNxfe2jH/2oVFdXW3aDdJOmnl/s96IXGubRyYlOImk4T9oFP6CNjY0Wx0e7w+uvv15mzZplmWQQJBcuXGgvLiv2fbDLiseYXY3QgUM/9tHcOlWFH842sB8z0ZdeBvPhbOdA750IdNzKJYjwl06fEOgU7LRMPhcFWQIs7f+o6ML1PzeiUoqKMe3nFdTI7Snx3aOYkr8pU6Zocp8tOTy9nkDP67KRfDFmNj7VLGjTYKx3DEe3jIQ1yExxyW7cznD06Wi9J8GUmrpuAEnQ47oa+zgR0DnbreBMjoweYOgtRsFu+fLlQo6NXBrTnUTxJdfsuMbHvPfff7+sWrVKtm3bZq3bOfNnw7FhgrQha9eu1V1/6/fAsPcAB4BMDdTD2ZjBdmycrG3sv0xwdbwHB+rBtCVL1o5sPOf2bJKJ8AmS5LzUAJ7HKk7ls6HnF3KG5Mz4zPmsuH5Hro7HFIGSM1TSawiyBD4qqMyYMcMyQ0jGCer1w7ml6FbbbhiG8OdGVLhR8jk77Ql/O+J6gB9zNqx5OUVXQ9XRvG+mgI519oEus09OOTN7qZQEJJoc8Vkq0PEafbb8TghwvFZFkHxWPFbQYh7uc0vQ43m9RvNS2YVguXv3bnuVsmbfXTCcNc3zGzLae0ABjx82P07OQkcb6ZoM2zJUxFlvJkF2KOs+VH003Pdhn9pt41gf2rgtWrTIc9VU5EnOTMvT9bdkhZCrsxMFfPyxPl6ut187WvZ9sBstT2qM15MfMn8Uy3C9YbSBHkVWQ8ml6ow+U6+Nv16XqZ6ML6e+vj6OW6NZgHJs8TkTHxHwnBMbX+Tct798MWbfPvFTRnAPcNbJD5nAN9qIgEdV8Uzb4DkHx0yLL9nPXCvyKfM9YBcNZ/Kd5js22iaEme/d+BJ9zi6+P/yjUdID5JIIHOmQcoe8hgDhBIl0yhpIXg5COhCxTly78TLQaX3tddc01od9QnLO8q3ENP+wPvayvdQvzVuMmOyq6JCpNrLfpk2bFjNNoDcdcsZu5fPe2tcbNmxIS4Q50A5kPd3qNNByR+r1PtiN1Cfj1ytlD3BwJ7fklfhx88fZNI1sySUO9wyY9WEbqDTgXCvhOVUi4H4qSqcvkpVFBQkOwiyPfazrQsmuGa3n5s+f79o+ggABimJz53NJ1VZeyz7jz/ncdE3Mmc4yKcL0SiyHIlC+y1oWFVKokcmJFM/buUa3cu3vC9frGLmd16n5gts1oznNB7vR/PTGeN05qHBg5seeDigoZ8XrKZ7jbzBEf+k8Hq6xEVi0Lcr5pVPGQPNyoNu8ebMFdFRR52DJgT7dwX6g9RjK66kQYh/09d58DvzxOfA98cp96/XMr2UwTd81XfvkOTvxmBMvvgN2iQWPeW0y0vPc8pl5ETk778/ymUYulE6hs5F8sMvGpzrG2sSPXD94Np0DlM5wk3UFP2796HUWrMfJrhusc7y328A7WPfTcglyHPTJKagTYZ7zMmhqGaN1y/eGwJRM9KvPJZFJgFvbWSaJHLLbZMH+vtqvp5NmJed7remptonKTnUdzyezWfNy/VDl6U89+wV2Njv0hG1LZOSX8IJBPuGs80ir3yA3f0wVT+Dij4osHGwIfJw1J6Ph4KTs9eEAlWmgY5nKSdjv5dxnP7H9y5Ytizs1kEEzrqARfkBgon9LigHt5Gw/Qc+ZZs/vtu8GdG75NI2iTL67fB7qz1LPZXLLdvz/9s4D3ori+uPzkKaoJGJBJYq9RRBFjd2IXbFgQSWKiN2osXfFgl0Te4siFlSssURRUOyJoKLYUEGiGPhbg4oFlf3P98C5b+6+3dvefe/de985n8+9uzs7O3P2zOz85pw5MxMHb7b4+fXXX0W7Y3eFuDzKmX9j0qJOt2lT71tZaFteFNgBGAoaeq7XMK9oy5FwvW7Mi5Xj2TivKhw9liMPS6MyJaBmOBqzXL33luYe/spNNJZM08hHNKz5OgP50qj2+wB+pRC8oFUXC5Tl4J82ESBh2TCWIaOzWEmETCZPniw8Ftt+Fwx2ChggP2YPjhqmwiBzfth8GZxV22+xTGl65TjCIz0W5Zk0lT8KtSV5K8f7WRqFSUDNSpUIePSym0Kz5BssJN2kOHwvRi0ngWI1yHJwSltIm0j7yNJhdJYYw1ONrxx5lJoGPMEbnUJ+1O1i2++CwE5BDYADWXULdwbVwzEOCkhV744dO0qvoCUBT/nmw4VnNemgnsOf9qYN8EqtgtX1HIDHD8CrJNALv6FKkWhLaBWV8u6tlQ/aQdpMQAQw4ZojYEd4S5ICsYIxR6iYtjsv2ClgAHQABmun4am1/PLLJ9p02QfpoykfuQ8nf5hB3mIRuJxChX/ADn5Ry6FHHnlEClELtJz5WVqVLwEAb+bMmVW5Eks+6fJub7zxhltxxRUTv8+k53WMKOmehbUuCdBWA24oKQp+SKASwA4+FPQ4V8DjvBAqCOwU6FBpN910U9e5c+dM2qzJhsaEMFhIFK1plVVXcXVt6mRBUVU38wkrjtC54hcalzQouHjPRFVz7qflE88j88J2UhMSQHNhbIQfmlW1rrsZLww0VjqcAFihDi+MDyWZMuNp23XrkAAgQrtYLJg0l3Rom0tpnwsCOzQjGoe11147A3Qff/yxe/XVV0XboxcAoMzfcX7Xe93e0ni8//77WYObCioKMByVaY56jcAaGzcUOkDND/6UQh44D+8pT8pPKULVfOxYHRLA/M4P4KPRr3ZnDeUfb7twzlYxpdESY0bF8Gdxm1YC2g5qLtom63VzH8vRDucFO4AAzQ2vrq5du8o74qnDpoDscIuWByPEQ2NiM0Cu8eLRngH3EBagCfBwHoIJYIkGqON7xGlM3LAgNN9oTr3NGX7IA34h5Y9zeI/zUw5Bk7ZR5UsAjQhC06vEsbRCJVgOwCOvOPgXMsm5UB4tXvVIoBbawLxgB+gAdt26dZOSQcNDo6MhYP4SIJUBFA9iCnAIRwGFMNUOFTi1mFmOB9Mn4KjzOohDPsXEJb2FF15YkmViJj94IG/A7Jdf673L4Iu0FfQWWmihDNB+8803kkYlONgII/bX7BIA8BT0qJfUceq7/pqLITRNHSMvJU8FvPimnfG0APaQ+FYZ+4O4hyxefPFFt+OOO4oMTOsLpWXn1SKBvGCngKVbhkyZMkVARMEAoAOYFJwAEAigoZEAwDhHi+Lj69GjRwbUiAfovPnmm+LFyUcGkRb5FRp35ZVXbuAwwwdKr5RVIUaPHi3AJon7P3hh/TcmTm6wwQbyQes95Wf69OkSRGOHpsc7GLU+CWjdpoGnLoQ7PZdDGtRTvpG4FnnFFVdkkmdc/MQTT2wQJxMhdgJI3nfffe7oo48uyCQbH6/juw3Nn3hYP/HEEwJ2oScr3ysrrxj4xQrALitSAnnBDjAD8JQYzOZjwG0fAADc8PxST0eNp8e3335bZup3797d9e7dW4MF3AA0PnTCx40bJx8OEVgxvNC4LOTKD6Jh+vLLLwUo9QOGP8BNQZh4XPMOONuoNsm8EhoztEPyfvbZZ6VXTTw1r/KsUeuVAPULLalc++kBdAATpFMhODIUAAFW0KOPPiprJtJZnDRpkqx0wrN6Thqvv/668MUqKM8884zwSTpcwzNxWQoMsCa8S5cumTDy4H6vXr0EHEl7/PjxBLsNN9xQjvoXv4cTTNIi1hrfjiaBSpFA/ZorjeQIUOQH6ZFzgIUeIB8SxMcyYsQIN2bMGHfXXXdlzEU9e/YUUAVYOS8kLiCE5xnEVvL333+/pMvUAjQ0JYAu5IlGi56rAt2DDz7o7rnnHvfAAw84NWOuu+66wjv8hM9qmnZsnRKg7gAuOH9wRKspRbPhO1CgQ5KYDdV0iGk/7DxiPqS+Es5YOaTn5I0WR2eSe0899ZRbYoklJA6dRoDojjvukI4cR66Jp+mgQer5jTfeKM899thjcsQqwrcRUtI9OoRGJoFKl0DeWor2BqgAHoADPU9MF6odcR9tjyVcAAaAjXtrrbWWvDtAg91fgeXpp58WrQrnFuLRC+3Xr5/c1zG3QuMy1qbEmAIfHeZVTJT0TOO9Uo1Lvqr5TZgwQRqC7bffXkyhGmfWd7lXGtd4dmy9EgCw+IUUmvnCcM6Ji/WA74S6uuyyy8ajyDUdLSUAh++LbwhLSN++feWWnmP+3GuvvQRwt912W4nH+oo4k6EJ8vzAgQPFBAqAEp80AETOsYowZYhz5WfnnXeWFTTQ2hjzJu4hhxwi+cbvEch93ol2gvi0CQqAhNFZpB3QYQqOoaVFErY/k0ATSyAv2FFZMVnSk+QDw1EFIGGCORWbSs3HyH1ABKAhXMGOD3zhheY6jvAuDLjzMfLREy9c5ZuPItzTKV9cPlAI0yUfG0CnQMmzaUQ+6nADn8orvXamTLz77ruSHp6m+vGmpWXhJoFQAqqh0ZkCoPg2qIvULUgBJXwmfo7jF+NkgAi/JFKwUM2SRRMAtiTim+C74sd5qIlSv+M0depUsZjwjcfTTLoHv7lIO8y0JRDfPjLhmzUyCTSXBPKCHWDGB4JjCmBHRd16663FXAhQATB8MNp747jJJpsI/2iDjIXhCKLEhwEo8gyVfcFO9RsWEhZ+iPnikg7E+AMfUthzzPUB8vFNmzYtA3gANU4ymEJJE3AHSOGHuEYmgWIlkKT1paVBnaeeUWf5JrBYUP/wetbOH98e3xr1k7qrZnq+TQ0jndCKAlDRYaNeww+duB122CGNjUw4VhcctAC7OMXvkS48aMczjM+3v9hii4VBck4HgHcMO6SE8a6qEepDhPNOacSGo7x/2MakxS0mnH39eC86EYUQnRnKjjKkHHhWlyMknLaSsiBe2MaRtvJOPJWZdgy4z2o/yIv2qFBC6eAXJ80rHt5c16zuQz3EGqEUfz/kQz0Aa8pJecEOAVNwjGVhqsQUQq+1T58+GS9KLRgqNk4fWjnRkviIqZBqBt1iiy3cqFGjpPBJl2uI++QBWBYal8JURxZMPy+88IIIiQqn435JwiJfPlLV7hjnwOON98Csg/kT7ZUPDX6MTAJNKYGbb75Z6t+QIUMEAKi/NPw4qOy///4OE7t+YziDAUIKfDSoNMh8M2pOJIx6TONJPJ6hkeH7BZQATm2I9XzG9BkyhrjmmmvKyivkwXdCuqShjT6mTe7xfdBBpC2gk0kY3z5j6Hz3jCPSDjAuuc8++7g11ljDMWTAWL02Yvvuu680yLw/78w3iJWFzjSNPuOFtD8ABCDd3Y9LKvFut99+u2ie8EAD2b9/f3k3jdOYIw47nRbolHnvfGkhD8ZDKS/eBzrqqKPkyLtcd9117uyzzxbHN2SgbQ8RDj30UFEmRo4cKZ0DwBsz9B577CHPn3vuue6ss84SwJOAAv4ob5z+AFnKAOckZHnEEUcU8HTTRGGOJmW63377ZWVw0UUXueOPPz4D+vhy4Im/3nrrZcVr7EVesAOsFGXxrOQcUwwVbLPNNpP8Z8yYkZlwrgzxYvSOqMSYXEBzAIjndt11V6nY9DK04r/zzjuZngvnVPp8cfnI+LCYeoCXGWMPAGuYLvzwDvyUyHPixIlSAfig9957b6kQhOuWKHy0jAMamQSaQwJ0qliVaJlllhHAowMGsKimQwfx4YcfloUcBgwYIA5fNI4AAd8LDeQpp5yS8eoEzAijkaRjt9pqq2W+LzTDa665RsCQTivOYxdeeKFoEAwJ8D3cfffd7rXXXpPG97DDDsuYUwFdtD5643R8SZvrPffc0z355JMSBvDwDN/vSy+9JN6fgN0tt9ziLrnkEvnmcSJ77rnnxPGGRp13BRTgA7B7/PHHpbGjHUAuOJ8dc8wxmaIgL9IHXCD4hg/AG96uvfZaMQXT5gwaNEg6C7RHOOnQRvTdsa/bcqst5dnbbrtNtGjAGscjZBbSmNFj3JNPPSntHu+pbUQYJ34OGKs3bPweHXQFMu7RPsLvxRdfnGkPASo0X9rPUggvXH60j8j6yCOPlGTIa9iwYdI2oyAwBotc8KXAegdA46hH+4fywLjv6qut7h5/4nGpWwcffLDInbKjDOgI0ZnRzpDyOvqp0W7Uk6Ok3R08eLB0sq688kqpk3QM4vH1ufiR8qKthg9Nh44IHR06bmCJeuPHn41f59WLAQkqOC9F4vQYqMChKq4rq5A44RQUrtDEp7D4YUqhJ0hPEVABmDhyjbCp0MTnx3m+uKSJSYXeIs9D9IY1XUyTkKr/oQmAPGgMcI5Be4MQplbizz/7XD5EGprwOYlofyaBJpAA1gTmgyrRUNLg8H3QOPPNoRngKHLnnXdKNBpDAA2AALDC54nw8ssvC1hdfvnl8l1o2tT7P//5z45wnuE7Il2ABSDlW6UjCSButNFGYonRZznyva2//vry7RGfZxeYfwFZTpDVleAFIILGjh0rc1k5R8vgm4dwRgOgADk6qxANqDrnAKJqwuXIdUhoK3yzSgxl4LGKhnnTTTcJL5deeqkABp103gftisYaMBs9ZrTEBWBpPOkooE3Ezbe0Rc89/5w76aST3DrrrNNAFpp//EgngulLlF2cyO+hhx6SH+0X70abRIeHMuWHDEsFunh+4TXlTXtOnSEfOkrIBjmcd955ojTQJtLpGjp0qJQRi/rTSUHJee3V16TO0fHCEgH4U59CQtF5Zuwz7vTTT3cHHXSQeLqjyeKIuPHGG8szYfy0czRl+ELzQ5nBrE8n4vrrrxerB2VJp6xQKkizIzEFPMAPYdDzxAaNqYLKSEUmnF4VQALIoDUBGBQiz9Oj5KfzlChkKjz3KWziQzyTFFcBjLjwwYcOGFFhAEd6dXxMPItJh3zgi3QRHD0X4sMvRwp5rP8YeQ+d54SDAeZUniEtAzspEvtrYgnQkABoNNbUVT5uvguIbwdwoqMJEOG8Qt2HunvTHnV0qy23clddfZWE6R/fBI0u3xNmLBpZ6IADDhBLC9oS3wBje6HlAwDafffdpeeOZoB5MSS0STWDEg5YkgdhgLMSbQSgBmhDNFTKt54rGAAyAPyZZ54pcdUBh4uQN7np/3ieHwQoA7JYdAAtzLWHH3643Edbo32ADwCRRhxC40NjoHPOOR12fvHvHYsU7QVWHu5xXQgRd5dddnG33nprlhbHs8hLx84ANN5V3wUQB5SR44EHHphxniskz0LiAPzIAdAjX67R+qlvtINKaF6UKXUBzYn3QZMnPuVM+3jvvfeK6RqNKyQ6Q3ScSI8f76blHMbLdw620Jaj5dMZJC06H3wPWB0g2mrKEEzIR3k1OxKgsvEjEwCAhKk8CAuw4gPkyDXhVA4KEYHwDELT59AQeXGe4cg18TkiRH6qRSbFVVBE+AiRniCDnWh0NBIUBh8nhQTxMcMH/JAPP9LQa30PPjZ++g7EgRf4T/rYJHH7MwmUSQLUZcYoADzGdGikqYtKF1xwgXTc6PFT9wFFnuEc6tBxroejxufImDb1OE7Dhw8X6wuaEA0K6YREpxUtkmeJEycaPxo0ABpAIz0aacJoNCHAh1VXaAjp1KJF8B1qo0cYedMp5vvCjAdA8c1B5K0gq5qP3Jj3h6ag4M041KmnniqNHvIATPi+IfKkk4y8COMI0SYxTgk/xIc/2goIuQPKs3+eLfFpu9q1nbthKOVCXCXS4xpw0s4JRzoEzHOk/XjllVckTeISj045jTdpodXi68C7ch/5oXGjZWrHAH4oy6R8Q76Vp1xHbQ95f8qPfHIR8tT2T4/Ep1OCZn3DDTeIiTmeBuWqRJlShmlEGYWdJGRHGHI57bTTRA7nnHOOdPaQCenBPz/GcsPvJC0PwgsCOyLyovwU8KggaT8qB/FUULmeA9B4MQWVYuJSqbRS4wHKjx4FA/qAH0QvDz7JR3/wR578CIu/RxJPkpj9mQSaUAKYeBibA2xoKJVoCPmgceZCI1Bw4sh4OcRYE84lIdGQodVAdEaVGDPB/ARo0Svmm+Ob0EaDZwBVTJh8I3FCS6QB32677eS7xbzHN0NjTWcS/q+++mpZ4ozGlW+UHx1QrCs0VoAhjS150rgzTqgdVPLj/fl2oSmTp2Q5dBDGu/LOau1Rz0PaHDQQOr7kiXZLurwrMlDAwXy3bPdl5T0BaQi+VQbw2L5de8mHZzbdbFPRkkkHwoKl4Eg+yEnLhfvIk3AWBEAzgWiciQeP+qzc8H+8D50cLFHcU6Ajb8qHNopnuYZIS/MNgUJu5vhj5xqeQ+NnqUSAt1jC+sV4MWDNOCrmxZCoO8gdAozpCOXKh/qj9ZR3p9zRNkmXdHbaaSe32267CdhRtpQR3wrvQOcgBNaQj/h5XjNm+ABC5wfIcMxF8fv5ngvj54ur+QOQjEsgdHqJeJ2FxAdFpUzT0sI8w+f0PN99jWdHk0A5JICZBlNavLcNwBGOVx6dOOqlakiY4hiDosHDKSQktAc0JrQ00laiM3jGGWdIz5m0MGPizMBiEZimADFWShnix2TIWwFFn6ehxRSK1xygQCNP487kdQinAhptVmchfRp3eAfQuIdHHo0WjRzjdJgGadxxpKAhYxyQb5qxScaNsL7gBBES5kgaQcae0ADID7MhxKR53gMgB4QxAQMSvDc8ISs0VrQq7jPkgebc3ZuEIfhVQu7kxfgf7Q1y4oiTBx6E8KuanQIlz6KdEI7c4QeNXYlz3lnzOe6442Rs66qrrnLnn3++gBFtFk49pEl7B5iTb0ikXyxhPaAMGAeDx7hcC0lPh4fglfIF0ENCZoAQ9+lA4CBEnUkjlBSchOiEUTaUK/UJUyomanxAqB/qxYlTDc48lB31k/RVlml5EF7nBTl3YMBf0FurBqIC8IEhAAqcikCFpBCoJPQ86MUp0CEUKgoFw8/IJNBSEkCbKZXo9YaNBo0WHTxM+dRv6jngEye+lXhDqePSPAPxHfE9qQZBWDw/wuJEHBoafjyv+QPGnGv64XNJ/HAfcAoBg7C0uNxTotHm/Wgo0VqUeEeAknfTcM6Jyw/e0ZYYB2IcC1BnHBNwVL71Wd6HtoX3xHSLtk2jS3mEZULe+gzntEEAHmCrccmXn+ZBPO5zjQzhjWt44504hnmEz3Mef2/Sy0dhWeWLm3Y/XxqFlF2YNuVInYkDF+GAX5zy5U/8cFGGdLiNp1xB1wAWFQJSrQ2AQ13mY+EeQsOkgpC4NqCroAI0VkqSQNjghQnot0ADSQOgdV7j6H2uaYDiQEc4YMCzpEEDyjM0ojTACmDEixM88RyNuprZiM/zYWMePhfyo+HwFQc67iXF1Wf0qA0h/MI/PClIaBzeCYJX+FQiPuvi0mGGX7RD+ND4Gk/lQdpopWgjxAfYlHiGMPLgPJ6Gxks6ki5pwZvKgTCId4FIT8OUR70nEYr4y1WmhSaTL41Cyi7MS8sxDOM8LTxf/vF0qlKz4yVQSPWnBc8HQxg9AwStPwO6eLHbdUtJoDGaXZxn6jt1O94Tjsfjmm8BQMNRAG0nV0MEAEA0JjTcAIFOJZAb8/7InwaatNAI4YVnCacTWgyRDs81lhRkAAUFBtJUENT0uReCR6g9hCClaWiYPqPhYdoaRhyNx/14XoSF97mGwuc0rbTwMC5xwvhcG82VQNVrdryGAhjgxjkfnIKf3gvjzX11+zcJ1I4EcgFW/C0BEkxxaA75ngs1MuICeEkEQAGgYXrhs0nPJIXBWzmAjrRp9JMa/iS+wnih9hCGK78apkcN5xhPmzjxePmuSSfpubTwtLjEN0qWQJZmlxzFQk0CJgGTgEnAJFDdEqh3O6ru9zDuTQImAZOAScAkkCoBA7tU0dgNk4BJwCRgEqgVCRjY1UpJ2nuYBEwCJgGTQKoEDOxSRWM3TAImAZOASaBWJGBgVyslae9hEjAJmARMAqkSMLBLFY3dMAmYBEwCJoFakYCBXa2UpL2HScAkYBIwCaRKwMAuVTR2wyRgEjAJmARqRQIGdrVSkvYeJgGTgEnAJJAqAQO7VNHYDZOAScAkYBKoFQkY2NVKSdp7mARMAiYBk0CqBAzsUkVjN0wCJgGTgEmgViRgYFcrJWnv0WwSYIX+559/XnZi/uijj5otX8vIJGASKF0CBnaly86ebKUSuPTSS92mm27qbrrpJjdt2rRWKgV7bZNAdUnAtviprvIybitAAmuttZb76quv3Mcff1wB3BgLJgGTQCESMM2uEClZnKqWwKRJk0QTW2SRRdzAgQPd22+/Le/Dbs9HHXWU+93vfueWWWYZd9FFF2Xec6ONNnL9+vVz++yzj1t00UXdwQcf7GbNmuW22WYb99Zbb7n/+7//c8stt5z73//+l3kmPDnuuOPcSiut5M477zy3+OKLux122MG99957EuW///2v23HHHR38bLXVVu6xxx6T8EceeUTSPOOMM9yKK67oll56aTdy5EjhcbHFFnN77723+/TTTyXuF1984fbYYw/XpUsX17NnT/fcc8+F2du5ScAkEJeA393bqAkl4Md3onHjxkU//PBDE+ZiSeeSwOabbx75HbWj/fbbL/rtb38bbbHFFhL92GOPjfz3EHnAiVZffXU5f/nll+WeB0C59ubKaIMNNpDzhx9+OLr22mujhRdeOOratWt09tlnR3637sSs9913X3nGA2K05557yjn5QX369BF+zj///Gi11VaLllxyycgDbzRixAiJ16lTJ+F1/vnnj+rq6iIPxFHfvn3l3mWXXSZpbLbZZpHfITvy4B3BqwdWCbc/k4BJIFkCLjnYQsslgaeffloaqSuuuCKaM2dONHz48Gjs2LHlSt7SySMBb26M2rZtG5188skS85Zbbom8dhZ9++230RJLLBH9/ve/l/CZM2dGbdq0iQ488EC5BkAAQOidd96RMjzhhBMy97wpU87T/hTsPvvsM4lCXuuuu66cv/LKK9HEiRMjr51FJ554oqTtNbMM2N12220Sb7vttpN706dPj3788Ud5j1122SX65JNPJPyggw6S9xg2bJhcv//++2nsWLhJoNVLwMyYcVW3zNeYwx588EHnGz/nwU7MaFdeeWWZc7Hk0iTwwgsvOMyVHrgkyqBBg9wTTzzhZs+eLaZIxt8gr6255Zdf3o0ePVqu+evQoYOcd+7cWY7fffedHIv50zRIX5//8ssvHXx4jc5dffXVkhwmUqX27dvLKc9AXhsVXgj3IO08UEo4DjILLbSQpEXAs88+K+H2ZxIwCTSUQNnAbtddd3U9evSQBp1s1ltvPbf11ltLjv/+97+dNx05Gg3GPHzPVMLTxkX+85//yNjF0KFDJd5DDz0k1zq2kZaeRI79+e6MjJswLrPmmms6r2GhzUqs6667zq266qquW7du7phjjnG+dy/h3szktt12W+H1N7/5jQDUTz/9JPdoPHk3xkoGDBjgfK9fwr/55hsBNMJ573/+858SPn78eEmbd+jVq5eE0dj2799fxmtUZvC09tprO29ykzj2Vx4JqMzVmeTDDz903hzpvLbn2rVr56ZOnSoZAX7E8ebJ8mScI5WTTjpJvhPG3S655JIcMefe0vqqERnrg7x51Hmzq/xeeuklGQfUOHY0CZgEsiVQNrCjh0yP880333Q0KH6cSgbOGcjfeeedZXB+t912cy+++KI799xzhQtAD62HQfeVV15ZXLm92U964jRCeLxB9Ii5pvebKz2JHPtj4J4Bfwb7acj+8pe/OACL3+GHHy4gSqPxt7/9zd15553yNO7ko0aNcgAYIOnNSg6w8qYkAUFAEQcEHAqGDBkiz/z1r3+V5wErGs299trL+fEceQbeSQsHA2jZZZd13kQl4IfMAESOr7/+egYQJaL9NVoCdGQAPG/qc96EKU4ddFL8eJiUJR0nnEgOPfRQ0fb82Fij88yVwM8//+xwUEHb9OZMd++990p0wLZQwiGFOvTkk0+6f/3rX+6ee+6Rusw7GZkETALJEigb2PmxBMnBj0c5fhBhTz31lAAUnm6Y79BoVOshDuYlzC8333wzlzJZV05S/vKlF38MQJpvvvkcIMo5IIM2hrcbvWEA7rDDDnPeKcDdf//9mccxaXEfUPROAsIjZkjy54dZcp111hEtgYaLtNdff31JwzsauD/84Q/ujTfeyKTHiR+fkWvvlOD2339/B/hDmibnGsa5UXkkQN3zDkJu8ODBbsaMGY7yQau75pprnHc+cWeeeaa7/fbbnXdgES28PLkmp0K+3jFFvgnqEJ6ekHpqJj+VHeodU9x9990nHTEsEjfeeKNYGwg3MgmYBFIk4E0kZaPu3btHXouLfM858u7WEZ6IOgDvs5dBdD1+8MEH4kXme92Sv9fu5L4HnshrhnKu3mu+IZJr34PNmV7Si3jTYOSBq8EteMOJwJsdI7zf8HrzYCXxvJYZefNm5hmcFUgH8mYnSc+PxUS+4RK+vLYpxwMOOCDzjJ6MGTNG7nnNUTzueH/v0i63cVjxGmeExx9OE3j4wZdR00gAZ5UkwlnFm6mTbuUNwyNT67Qew7qTlgDel16bS7tdcDiONaRlZBIwCeSWQFv/gZaNMFdi8sOcgjnIe7fJXCIyuPDCC513l5a8PEtuqaWWSs0XTQzC5BMnHa8oND3Gwe644w4xGzFOw7gf5kxMjfTmucdcKu8tF89Krhmr895wMk8LreC0004TDYGxP8xhmKFwJEBT1HEh5l5hPsXclIvQGJnLdf3118sYEtoeMjNqGgng6JFECy64YFJwQWGYwL1HZ1ZcnEbyEXVc63m+uLnuqxNLrjh2zyRgEnCurGCH2RIQ+Prrr8WEiYCZTAtAAIJMjMXcBxhiSkojxiMAQ8ydNCSXX355Jmqx6QG6f//732WMjcm9p59+urvgggucmnwAMMxAjA8yvqPkNU95BuDCTImDDXEZW2HMjvESxh8hwsjnhhtukLE/HUfBeSAkgAwZYN5kTBBnHcDuqquuEmA3E2Yoreo4x8GJn5FJwCRQ4RLIrfgVdxdzite8xCwYTqLGDIlZ04si8mMUkR8rkYQxDyaZMbnpAUDiMikXsyjPYsaE0tKTm7E/+PCOIZHvRcs8JUyImK08IEfemUTCmc9EPpgzMS1ixoTPLbfcUsyb3ms0UhPYIYccEnmwjrwXpZgf4cs7OURTpkyReVRce00hOuuss4ST0IxJgPcwlee9Z6jcR2YeAMWc6jVZCbM/k4BJwCRgEiivBJp1bUy0JzVDelDIS5gx0YbSzD1heuecc47zAJOVJj3ud999V8IwR+JgEvdYw3EhHrbKKqtIvjyLJ2jczIVXpmqGWRn6C7wucXZJ45n4eGliUmXeFJojJlBMwOqkE0/Trk0CJgGTgEmgcRJoVrBrHKu5n8abTee8aUzGTlh7sFgKwa7YZ4uJ/8wzzzjmJwLEmD7zjfEVk7bFNQmYBEwCJoF6CdQM2NW/kp2ZBEwCJgGTgEkgWwLm+pctD7uqYQlc8tEM1/uld1yHUa/Kr/eL77hLpswo2xtjEvcLRZctPRJC6y+V4MfIJBCXAA53lbTpMPOMm6OuGtjFa4Jd15wEJn//k4Dcie9Nc6/O/N7NnhPJ79VvvncnTprmAD3i5CImnuv6mmE8PlSmpkCM7x5xxBHh7aLPw/Q+//xzx3J1jBEXQ3gbs/0Q5niWvWN5uqYg3ht+japHAgDda6+9JmBXCYBH/eGHJ3tTA56BXfXUU+O0RAn0nzBZQC7tcUCPOGnkfcJkpR20rFdffTUrGtNqWOatXBSmxzQVFo1Oc4ZKyhPNkpWAmP/JvE+WymMPv6ZoSHhv+DWqDgko0KnTHUshtjRtvPHGsiA6S+g1NeAZ2LV0aVv+TSoBTJdoc/mIOMRNIpaNY44ma6myEIESC4szZ9KvnONYVDxOzBNloW/WZWWTWNXQWJ6O9Th79+4tm8bqPNJ4egBdOGGd9Wb/+Mc/SnrHH398ZuHyMF/486u6SNqEs9g667TiAAWxcS0LlTPBHq1PN4PlHhqhXwVJNNhwZw7eEW9hdmlgE1sWsMZzmPfmHhqkUWVLIA50LLaBR3hLE57wrEtL3WpqwDMHlZYu7SD/CRMmOL8nmRQ6W7lAeJQywZ6FsnU7muARO80jAcboCgE7klln4QXc+I3mbgUUJsvHyDQWJv2z4wULmNNQ0ENmVaBTTz1VFhVgsQFAEU2QhRUAOQBvjTXWkMUDADlW6yEdPIcfeOABWczAz+d0ft87WYM1LT3SJh12TNh9993d0Ucf7fz+eM7vsZdhlak11Bd2UseMGScWUsfjlzVAWa2HqTpMg2EhaVYWOvLII2VdW8IASeojvX/AEbADNJEFAMw7/+Mf/xCAZG3b+PSceN523XISqFSgCyWC5YGVpDCN0975+cwNpoSF8Us5N82uFKmV+RkaFXZdoPFgbh8NGw0XP84J4x5xiGtUuAQmflu4k8bE7xrGZXUcFl3eY489pOFfYYUVMuNUNPDMp6R3qnvQKWcs48WKO37hAgG/TTbZJGvsDE2PBcEBFYAUzStXeuzOQB4AEr1glsuLL0sGmAFU8XDliTToRDH+6Hc/l5WJGC9hPiuAC0gCbswTBRR1PI5dO9BKeSdWI2IBaxa09ru/y/sb0KmEK+9YDUCH1JpDwzOwa+H6+fjjjwuQAWr5iDiAHs8YNY8E0Hj4ENk1AxMha6iGpsw0LgDBW2+9VcyJzKVkKysaHqVwDVTSzzemhsaPJqfErhxoWSEBOozvsdRdEjEXld04lDBlookCtIAX219hSmWMD3On8nvXXXcJ/2iqjAHqTg2ajh0rUwLVAnQqvaYGPAM7lXQLHAEt9jQrlnjGAK8wqa25YOF7vCXFBdgYx8IcyQ9QYPNXNTOnccG+i2wt5JeLkzVUASYW/i6VALoQxGjIGDsLifQxdz///PNhsJgg8chkCyr2mlQCYPHIY2F03olztDuAfcMNNxR+sS7ghcpWV6z1ysbKmJiMTAJNJQH9ThgOKCe1GNjpYH38ZfiIMcWkUbkFkJZPPBwnhZtuukkcC3Au4JywUglzZClAp/nxbGNMmmny1/Rr5dh/ybm7ehfyPvG4jLsBEiNHjnRoN/zuvvtu2cdQ9z7EtJcEfHhCUlf9VlAyV+7RRx+VBcPz8ZGWHmCHWRS3cQiT9kEHHdQgOZxo2MkD3iHAlmcwU7L/IrwSBm9sZsv4CMvVAaTkTTi8U78w4TIuiQaIKR0T7o477ph5jzReGzBlAS0iAcaVcURB46ccqQeqrbcIQ3kypfOFRyaOKpjq6SCi7ZWLygZ27D6OvT/8YarBWyskvLj4cDGXsOp/uMQXm5v6/eWkJ83uBtqI8AGytBaD6niQNSex/ia7IjB+QSH4/ebkxzlh3NOGpRi+dIPbYp6Jxy0lDXr9jCPh7ILbL714JQaI6VWFP943iRgfYncKHCbiBAjzoYXaJ2VJ5aVhZZeH5qITlu8qjif58sM5hbghAXKY/fjwQmLHeTVlcs442tVXXx1GkTpOXUVGLFlHGpMnp09v0IfT0uNbuvjii12fPn0cJkx4Uy9OfZbjgQceKM4yeEgS79JLLxXPSfW8Y1cSHE34TmlYAGHKe9CgQeIkg6kSc+ZKK60k/AJobHJLncExhe8XUyaEsw58kY9RZUqgWgCvqYGO0mkyb0x6EX/605+ywIxJsniUTZw4UcY+8AbDrMJu4ZhIiM8+cEykxWuNwXsA0G+YKmYUGgye1a11mqN6AWY6aTgtP/jCJbtQAgwYeysH4SVXjJem32VCzGt42LFNEc4K6pauC2njup6PKJfhw4dLBwRznRIdE5wxGB8CENgZnjC0CnYFxwSGO35zEhPGc821A+hGrr2CW37+DiWxRa+ZsTIFlDARNOhi5snxbK70kCWLjXfu3DnMpsE55kcaEJxNkog0ALI48Uxab5oOS5LzC4uZ880aVa4EKnn8rjlKVQKqAAAWrUlEQVSAjpIpm2YXL2Z6kPHVJBjHYP6ObpTqd+h2kyZNkkcBOTQ9epZ8oP379xeA4ybu1YAD95uTMFPmAzr4IU4xJk2cDcpFxaSFlsa+ggAdxPjOm2++mTFtoK2Ge/ql8ci4Dpo2GoLa1zUunQMAFY1G71F2jC9R9nR2mptWWKCDG7/h6u7iVbuJlte+TZ3jB8hdvEo3mW5QKtDxLpiJkoCOe8UCXb70kGk+oCMNNK40oON+EtARngZ03EsCOsIN6JBCZVOlanjNBXSUTpOAHaDGYD7zeULCDEIDqcQ8I8yVEM9gwlRiKyDGKMpBaFJoh/yKGefCI61QKiYuoFIuKiYtPAQxHwM8zI3C/IZGqg01oM0KHDReSY4O8IxmwbgQJjR9Tt+FuWKEs91SSJhO0X4BQBpMnied5qYTlusqwPbTNus4fsypi5sum5sny88k0FwSiANeKcMv5ebV7wPaZGN0cV6bBOwY+0EzS+sJwgRjRZjRMIdBunedXPg/eqblGkxlbA2nF346d0jzyXUEgAulYuLqWGShaeeKV0pauNPjXo42zSoYSphEmaw8fvx4GWfSstH7HHGnZ7wHU2Wc0MBZ2QOHhpCmTZsmpjfyQwNmnCi+7FYY385NAiaBppGAAh6dXpaja2nC0kNbVG5nlKT3Kvt6MXhwAXah40M8Y1ycmZjK+n1qasFrjbEKJcY6cplUNJ4di5cAlYsfHoU4PADUdC5C7z6cIZiDhbbGEWL5Ksb16DBQVpQ1GhplxYRltGacT7iHyRQTBZ0Y7h977LEZR4ZddtlFAI/lsoxMAiaB5pUAgFcJQKdv3VxDG2XX7HDNhnlWh0giGkI0iKFDh8pcHo2DCzRjQUqc69iehpV6xBuO1R74FbOZazH5FxM3l8Zb7DsWkxYelCNGjMhk0a9fPwEkXM1xaOAeR0jlFWqOTIxGO8ZxqLufe8ZqGqwJibkajY91FvHM4x7lB6BiFmUJLMYGlRgvKpfWrmna0SRgEjAJ5JJA2TU7HFPUNVkzxgmFxo3JqXhcbr/99uLFp/c5omGcf/75sjYkk1yZ37TnnnuGUUo+x1uxGI9FzQjQLnRMrJjeCcBeyIopykeuI2kVSmjRzBFk/IwFhZkozNwpwAnCexINm7UbkT/xuK/lh1s7P6XjjjtOJlmzdFWc8L6kQ4P7PZ6ZlDlmTsCZCczM8TIyCZgETALNJYGygh2NJ84Pffv2zeIfD0DMWgAannmMCYUaxrBhw+QezhI0kniwsdrD/n5eXUsSq0igoeTzyARwiFso4fzBJN1yEGkVQ5dddpks4svgNA5BmCuVmCvJmNspp5wiq2owRwvS8ksCNX0211EXUWbKAR0ZxnMp52anp0c6N2Gsc/+dMjfrJZd3rtfmzm2Rv1PF9j44+MSdchr7DkylwRGrGItDY/Nsyed/GXOJ+/W1e9yc6RO9t5Of+7TUmq7t2v1d2z71C1oXwx/lQgfNyCSQTwJNNs8uzJixGbQ9zJf5iDEeKnClLC4LKDC2mAZ4AB2r0MedMvK9JytgNFa7wwWdCcClEOZITJVJFJ9rVUz5JaWnYU0FGJp+6vEL7/1623nOfZIy5eN3vsOw3+nOLdpQS2YcEm2YvduYm7b55puLVlqM+TjOF2OeeCajOTPGidMOq7M0JVF/6bi1FKhGX0x2s4f1d3M+yd4PUN+5ze/Wce0H3ePqFl1Bg+TIPFA6ZLQHgBomdDpkTGhn3i4LWvONFjLFA1nrHFLKkoW19TkcpvAWNqpdCZR9zC4uKsaA6MkXAnQ8y9qDlQJ08AOIoXHSSABs9O75cU4YTh3FAh3p0mg2lhqTRhrQwVPoGFRs+eV6JxqrcmtGufLL3MsFdEQCBImTQKxowoo/LH7A2Cb8l9rB0OTDDVo1rKmPLb3Rai6g490BQeIk0YABA8RiNHXqVAE7zOdQsZvbMtUGyxM/zPh0OPXagC5J8rUV1uRgh5dfuOdWtYoPMyXAdvrpp8uP82JMl/H3ZgyR3mmpxLOljEMWm1/Vlx+myzSNLhQGcYgbIzxOGWtmMjedALQ8GkolNAX2jmPcE2ccJTQ39r2D0KKJg1cqLt/xDV9ZgYSdEWi8WWEGzVqJ/NBeWL7rkUce0eCybLSalDar4gAu1C/GZxlv1T324I8hinBB6gxDOU4wXaZpdOFjxCFuGtERZsoLwM2wSHxzW8aZGWNGYx4yZEhmA9u09OLhDC3QgaXzSidHvcNZJIEFEShD1pokH6Pqk0CTg131iaT5OGYprVIAj2d41qgACTBGVyglxEUboGPDWCeNH40pTlYQU2zY6451KlkbkzFPHYtldwD1OGV6BloJR5bFAwhZb3Lw4MGSDhP8ATmWbWMuItcQ61Ayxs3CzYyfsvkrxDxJFiInLgszALgKrHQsWSEHkyXmPfLBWxb+yFfnN6aljXkPr1umigAYDCuQDwsNANI4OfFsMcQYXaGUFBcv31GjRskC1yxIwF6AWFewOjCNSQlwZo1PfAKQB2VQKNHBYEoMP8ZR6YCoXwEaPUsUsjgCHQHkYlR9EjCwa+EyA7Qw8RayBBRxiGtAV0ShqTNKIY8kxMVkyXQaxm1ZSu3kk08WrYLkaAwBIMyc7AbA6kB4muYiTPQ01GiJuuEr2hJeqwApR92ihzVjmeSP1og3K6ZzFk4vx0araWnDO/zwLrp0HPMsWWCA/NF4lL9c7xneE2eUMCDHeVJcVifCyxuA5xx5xwkNFC0cywtLDh5zzDHxKDmvx40bJ/cZsmAaEaA6evTozDMAHPIAUAFTtHSj6pJA2+pitza51akROEOw1iXTHXR+G44QNDJ4XTaH2bI2Jdy4t2JsFK2Lxg/wQ9tB06OBZXFrJTyIaZCTdoLQOElHTMVKgKCaMdEwaHzD/ePYegfvVjROHFsAIgBAtUgcXQBIFucGsDBVJlFa2sQN+Ylfh/wlpZsYVszKcAlx0VRVm0TmuuRdmBdyCT18MTvzK5SQB7tShOt88t0pqUx4f0yoAKs6t2gcO1a2BAzsKqh8FPQqiKXqZ4XpBdP8eFwhRNyAMF8x3QIvPrQxNCq8A/EsBux0M1TGdCC0LqZWQDiyKABJQAl/jB3RyO+0005ZTz/00EOZjVa5wXgfDTtmPd1olYYbUyRAmeTpmZY271puYnpBlOKFGc+LuLkIoMfCwbhh6FQCAF5wwQW5Hs15D3kwNUb3C8wZ2W5WpQTqu5RVyb4xbRLII4Fem+eJENyOxcXRAaBg3zd684AX42lq3mN8B4cOxrnQxgEhde1H41NzX3w9VlaQUc09yL3BKbt8kDfpQ6xWg7t9OTZaTUu7ARNlCGAeXaGUKy7yZ6Ue5BdqcaTds2dPkY3u8RiXeb782YEFrVFNl4wFsgmuUe1IwMCudsrS3iRJAkwY71bAxPtuKzWYXI73H+BGA4tJizE11gpVr0tW+EGDIxwvPcxt+89bCIHtrTAhoq2zHRKkOz2kbdAaZ5/dIzCfocHgjYmpDjNbOTZaTUs7zkM5rpkwzjy6fFTn4yRNLmd8EU9QFiBnEXGWqYubKJET8mY8m3mhONPE4+TKnw4M5UzZMGSgG+/mesbuVZcEmmVSeXWJxLitOQnkm1QO0O1/pnNdsnckD+XAOBrglzRPkDVHk+YQAm6M7SSt8IFnJ2M+SemF+XJO+uStDi16H54YQ0oiNMekie/xjVbT0k5KszFh+SaVA3QdDhjp6rpkm5KLyZN3Y/4oIIdWhtcq3rLFUlxGxT5v8StTAgZ2lVkuxlVTSKARy4U1BTutMc1yLxemMsTMzOoqzH2lA4A2iLOQmpU1nh1brwQM7MpU9j//GrnP/A5FM/18YPnN80zu3NG5zr7zzW/xBZ1rN1/hHmJlYs2SqQIJWP2pgkIyFqtaAuaN2Yji+/r7yL3pl12c8Kn3xPObqs/+NXdi7edzbvWukVtraed6eK/m3y5gwJdbYrV91+pPbZevvV1lScA0uxLK4+OvI3f/G06AroTHM48AeLv1dG6Z3xroZYTSCk6s/rSCQrZXrDgJGNgVUSQzvoncg34P0lc+Tn4IM2WXTvPMlt58Cc305kzMml/OcmLmnBua/b/eMn6uVA/nui5soJctmdq6svpTW+Vpb1NdEjCwK7C8nn4/ciP87iR+aC5DLNCwhp9DjFmyp9fSFl0wN1h98V3k3phn9nzbmz29s16GGMrbx3tnb7Fy7jQyD9hJVUnA6k9VFZcxW4MSMLDLU6i/zIncneOdG/thdsR152ljS5aojU2fpyWOi2mJm6/o3IDefgWONgZ62RKvziurP9VZbsZ17UnAwC5HmX73U+Sues659z+vj7RcF7/Pp1+Htvsi5QGjqV9F7ja/Bu1HX9bnsfJizh25qXMLdihPHvUp21lzSsDqT3NK2/IyCeSWgIFdinzokV8yJhvoNlrOuYHrlX/6AG7nw19x7sWP6pkB8E7oYxpevUSq68zqT3WVl3Fb+xIwsEsp4+GvRBnTJWNz/f1av9us2rSa1qj3InfP6/VjeZg0B67XtHmmvL4FN1ICVn8aKUB73CRQZgm0KXN6NZEczgThGF1zAB2CA0zJSwke4MWouiRg9ae6ysu4bR0SMLCLlTPu4XhdKmG6LEWje2eG97z8dO5vyheFAxZ5kacSvMCTUXVIoLH1B/PnR19G7sUpkXtreuSnrESZBaQLkYDVn0KkZHFaowRsBZVYqTOPTqcX4IzCGF2x9M2Pkbv0mXpz5FKdnRu6Q+GpkOd//a4uOK3ACzwdtnHhz1vMlpNAqfVn0meRu2+Cc1O/cu6XOdn8d2rvXL8ekdvcr1fdBpt6HrL6k0dAdrtVSsA0u6DYWdkinDCO12Upa1k+8lY90AXJF3xKnuStBE/wZlTZEii1/kz2mv/fxjr34RcNgY43njXbudv99JehT/ol6X7JXw+s/lR2PTHuWkYCBnaB3FkCTIl5dMVOL/h0ZuSufDZyo9/XVEo/kjc8KIW8aZgdK0sCYRkVWn8we17mrQA//pL/XaZ4Tf9er/0VQlZ/CpGSxWlNEjAz5rzS1kV5ucRSxPJdhdAHn0fuln87961fFoweeDkJHsZ/MldLZMFpeLTFo8sp4fKlVWr9wQnph5+z+VhhUed+71fm+eYn55719/0wXoboSG2+UuSW7pzfnGn1JyM2OzEJONPs5lUCwESJJcAKXRnlew9wM/z4WrmBDl7gAV6UQh41zI6VIYGwbIqpP69Py+Z/1cWdO3lL53bpgSm7zu29dvZ9rsIFCBrerQ+x+lMvCzszCRjYzasDbNOjxFqXlUIhLyGPlcKf8TFXAmHZhGWWSz5zvMr2xazsGH1WyV5IYL1lvaUhO4r75OtYQI7LkJeQxxyP2C2TQE1KoK3fwj7+LdXki+Z6qe2u/KDDEous8JVvVRYgHos6F0or+pVOjoh5Sj7+rnOMr5SD4OWOeQlNmOa+3/6qDxd5/KiVvIHLqFIkUGr9+c5bBUITJe+zxELZb7VQB+c6+MGGcEzv+5jZM/uJ7CurP9nysKvWKwH/GRktssgyKyjQsU1Pvt0LQol1al/negeOJNx73c+vKxfYwcviC87dBR0ehVe/V2zIg523rARKrT8Ld6xzl+wUuXCmQRfpbtW/z6TPsoGOO3FArI/d8MzqT0OZWEjrlICZMX25t5nTJjMyxn50lUYhTyGvlcZna+UnLJOwrAqRx1wwokMz9zdfsNvF97MjN8w7P8Wp+yLxkNzXIU8hr7mfsrsmgdqSgGl2vjz9RN0ltVg7z69nlXMMeQp5rRwOWzcnYZmEZdUYqbD34V/HNtzwd3m/0MHvlyxu5CHkKeS1MfzZsyaBapOAgR0lVleX0ew6z9thvJIKMoungNdK4rFV8xKUSVZZlSiU16ZF7uZ/OYenb0jt53PuT36vw2Ipi6eA12LTsfgmgWqWgIFdNZee8V5TEpjjt64f6Xe9GPVew9fq6L9U9jhcrktxWl3DlCzEJNA6JWBgR7lH0QyZSe5PZ/5YeRUhiyd4NaosCZSh/vz4c+Sue9G5cL6eviRrqx65iXNd/bzLUsjqTylSs2dqTQIGdr5EfY96urcQCc38Yd5JBR1CnuC1glgzVrwEGlt/ZnlHlAtHOzftfw3F+Ue/+PNeftun9m1LAzpStPrTUK4W0vokYGDny3xOmzkz5nNz4e7L2CTfSqgSIU/wWgk8GQ/1Emhs/WGX+jjQsdPB4D8416tb6SCnHFr9UUnYsTVLwKYe+NL/6quPJ7vIfU9F+Ow75/CEqxSCF3gS8jwKr5XCnPEhEmhM/XnlP5Eb93G2IJnrOWS78gCd1Z9s2dpV65WAaXa+7FmRZOAdc0b7PvROVIU3/DqZfVaujEoBL0oegkfb6ikqjco5Nqb+PP1Bw/egc8N2Pn4wueFNH9Krm5N1MxNvxgKt/sQEYpetVgKm2c0r+jo351GtBZW0hmDIS8ij8mrHypBAWDZhmeXi7lu/ye/7foWUJPqfHzvO9Ut6Jiks5CXkMSmuhZkEalkCBnbzSvfHn356TAv6bT8qNt3vM9bSBA/wohTyqGF2rAwJhGVTaP2Z8W2a7laed7L6Ux45Wiq1IQEDu3nlePfgThgM/8mln+7kHnxz3o0SDm1jUm0Xuy40SXiAl3n0z3k86rUdK0gCpdSfH4pY0Dl81ULrk9WfUGp23tolYGN2WTXgl9Mi13Y7P3ZXh9PAf76K3LJ+x/BiadD6dW7Q+sU+lR1/qs9bHRc83kV17pfTsmPYVeVJoLj602OpOjdsn6Z5C6s/TSNXS7V6JVCizlG9L5yL81sHtJ9QF0UjNc7wcc79/Gu9aqXhTX0kz9t83krwBG96bcfKlIDVn8osF+PKJIAEDOxi9WD2zz+f4Z3gxMDEjtDMgWpuIs/MbtSeF+GpuZmw/EqSgNWfksRmD5kEmlwCBnYxEY8Y1PGDKIqO1uAXP2KtwubT7siLPOspOgqe6q/trJIlYPWnkkvHeGvNEjCwSyj94fvOd50HvOv11j2yOG/TAx5AR15K8HDrn+bL8KHhdqxsCVj9qezyMe5apwQM7FLK/a1Zrx/lPSGf4zYekXe/5tzfX/Y2xSYYwyNN0iYP9b4kb3hIYc+CK1wCVn8qvICMvVYngeJdDVuRiPYb/k2XuvkWfKCuzvnNVebScn7zzIHrupK8NDWN8IjXHM4omTE6fxOgi379rt9tAxf2o4ZG1SqB5qg/eAzjSGX1p1prifHdXBIwsMsj6XVuGN9uzU69rvJbAB0SRl13Ged27eHckiVuu8KEX+ZB6fSCTNpRdMPEWa8f+eohvUuchZVJyU4qQAJWfyqgEIwFk4CXgIFdgdVg4O2/HlZXV3eFl1g7fcRrfG6Nrs6ttbRzPZdybtEFc4uTRXlZq5AlnFhlQ02Wkp63kOIYw3iPpm/H2pGA1Z/aKUt7k+qUQO7WuTrfqcm43mfYjyu1b9fu3Kiubk8vuAayY7X6Lp2c6zy//3WcywYbZ7KfGNusZHYvCDj0w4ER8+hwWTevy0AwNXhq9acGC9VeqWok0KDBrhrOW5DR/e+cvZZzbYd6FrZvJBt+ebJfTrMJ442UYpU9bvWnygrM2K0JCRjYNaIY97p51lIdO3TYIXJtdvSC3NLregvkTM7vR+c1Ob+V0JxHWTjY1rrMKa2av2n1p+aL2F6wgiRgYFemwth/2Ecdf2631PJt5rTp2qaubknv0OJH8zxF0Yw5UTSd3azZ5NP2oyuTwGssGas/NVag9joVJ4H/B9udRQjuifEqAAAAAElFTkSuQmCC;clipPath=inset(0.75% 0.33% 26.12% 0.33%);" parent="1" vertex="1">
          <mxGeometry x="64.32" y="557.06" width="305.68" height="177.94" as="geometry" />
        </mxCell>
        <mxCell id="ehg9ZRiTmpM_Ezbu78ZU-42" value="" style="rounded=0;whiteSpace=wrap;html=1;fillColor=#d5e8d4;strokeColor=#82b366;" parent="1" vertex="1">
          <mxGeometry x="20" y="30" width="1100" height="140" as="geometry" />
        </mxCell>
        <mxCell id="ehg9ZRiTmpM_Ezbu78ZU-43" value="" style="verticalLabelPosition=bottom;shadow=0;dashed=0;align=center;html=1;verticalAlign=top;strokeWidth=1;shape=mxgraph.mockup.graphics.simpleIcon;strokeColor=#999999;" parent="1" vertex="1">
          <mxGeometry x="40" y="51.5" width="200" height="98.5" as="geometry" />
        </mxCell>
        <mxCell id="ehg9ZRiTmpM_Ezbu78ZU-44" value="&lt;h1 style=&quot;margin-top: 0px; font-size: 14px;&quot;&gt;&lt;font style=&quot;font-size: 14px;&quot;&gt;Fecha Inicial&lt;/font&gt;&lt;/h1&gt;&lt;p style=&quot;&quot;&gt;&lt;font style=&quot;font-size: 12px;&quot;&gt;DD-MM-AAA - HH:MM:SS&lt;/font&gt;&lt;/p&gt;" style="text;html=1;whiteSpace=wrap;overflow=hidden;rounded=0;" parent="1" vertex="1">
          <mxGeometry x="947" y="35.75" width="150" height="65" as="geometry" />
        </mxCell>
        <mxCell id="ehg9ZRiTmpM_Ezbu78ZU-45" value="&lt;h1 style=&quot;margin-top: 0px; font-size: 14px;&quot;&gt;&lt;font style=&quot;font-size: 14px;&quot;&gt;Fecha Final&lt;/font&gt;&lt;/h1&gt;&lt;p style=&quot;&quot;&gt;&lt;font style=&quot;font-size: 12px;&quot;&gt;DD-MM-AAA - HH:MM:SS&lt;/font&gt;&lt;/p&gt;" style="text;html=1;whiteSpace=wrap;overflow=hidden;rounded=0;" parent="1" vertex="1">
          <mxGeometry x="947" y="100.75" width="150" height="65" as="geometry" />
        </mxCell>
        <mxCell id="ehg9ZRiTmpM_Ezbu78ZU-46" value="Infraestructura visible - Reportâe Operativo" style="text;html=1;align=center;verticalAlign=middle;whiteSpace=wrap;rounded=0;fontStyle=3;fontSize=26;" parent="1" vertex="1">
          <mxGeometry x="250" y="57" width="660" height="93" as="geometry" />
        </mxCell>
        <mxCell id="bdOlgk4vPTGBi4dy4KTN-1" value="DistribuciÃ³n de Vuelos&lt;br&gt;por Tipo de Trafico&amp;nbsp;" style="text;html=1;align=center;verticalAlign=middle;whiteSpace=wrap;rounded=0;" vertex="1" parent="1">
          <mxGeometry x="885" y="739.95" width="170" height="50" as="geometry" />
        </mxCell>
        <mxCell id="bdOlgk4vPTGBi4dy4KTN-2" value="DistribuciÃ³n de Vuelos por Aeropuerto" style="text;html=1;align=center;verticalAlign=middle;whiteSpace=wrap;rounded=0;" vertex="1" parent="1">
          <mxGeometry x="549.05" y="739.95" width="170" height="50" as="geometry" />
        </mxCell>
        <mxCell id="bdOlgk4vPTGBi4dy4KTN-3" value="Mapa de distribuciÃ³n de Vuelos por Aeropuerto" style="text;html=1;align=center;verticalAlign=middle;whiteSpace=wrap;rounded=0;" vertex="1" parent="1">
          <mxGeometry x="121.99999999999994" y="739.95" width="170" height="50" as="geometry" />
        </mxCell>
        <mxCell id="bdOlgk4vPTGBi4dy4KTN-4" value="DistribuciÃ³n del Total de Pasajeros y Total de Carga transportados por Aeropuerto" style="text;html=1;align=center;verticalAlign=middle;whiteSpace=wrap;rounded=0;" vertex="1" parent="1">
          <mxGeometry x="400" y="490" width="640" height="40" as="geometry" />
        </mxCell>
        <mxCell id="bdOlgk4vPTGBi4dy4KTN-5" value="Seleccione AÃ±o" style="strokeWidth=1;shadow=0;dashed=0;align=center;html=1;shape=mxgraph.mockup.forms.comboBox;strokeColor=#999999;fillColor=#ddeeff;align=left;fillColor2=#aaddff;mainText=;fontColor=#666666;fontSize=14;spacingLeft=3;" vertex="1" parent="1">
          <mxGeometry x="52" y="231" width="240" height="46" as="geometry" />
        </mxCell>
        <mxCell id="bdOlgk4vPTGBi4dy4KTN-6" value="Seleccione Aeropuerto" style="strokeWidth=1;shadow=0;dashed=0;align=center;html=1;shape=mxgraph.mockup.forms.comboBox;strokeColor=#999999;fillColor=#ddeeff;align=left;fillColor2=#aaddff;mainText=;fontColor=#666666;fontSize=14;spacingLeft=3;" vertex="1" parent="1">
          <mxGeometry x="52" y="343" width="240" height="46" as="geometry" />
        </mxCell>
        <mxCell id="bdOlgk4vPTGBi4dy4KTN-7" value="Seleccione Departamento" style="strokeWidth=1;shadow=0;dashed=0;align=center;html=1;shape=mxgraph.mockup.forms.comboBox;strokeColor=#999999;fillColor=#ddeeff;align=left;fillColor2=#aaddff;mainText=;fontColor=#666666;fontSize=14;spacingLeft=3;" vertex="1" parent="1">
          <mxGeometry x="52" y="398" width="240" height="46" as="geometry" />
        </mxCell>
        <mxCell id="bdOlgk4vPTGBi4dy4KTN-8" value="Seleccione Tipo Trafico" style="strokeWidth=1;shadow=0;dashed=0;align=center;html=1;shape=mxgraph.mockup.forms.comboBox;strokeColor=#999999;fillColor=#ddeeff;align=left;fillColor2=#aaddff;mainText=;fontColor=#666666;fontSize=14;spacingLeft=3;" vertex="1" parent="1">
          <mxGeometry x="52" y="454" width="240" height="46" as="geometry" />
        </mxCell>
        <mxCell id="bdOlgk4vPTGBi4dy4KTN-9" value="Seleccione Mes" style="strokeWidth=1;shadow=0;dashed=0;align=center;html=1;shape=mxgraph.mockup.forms.comboBox;strokeColor=#999999;fillColor=#ddeeff;align=left;fillColor2=#aaddff;mainText=;fontColor=#666666;fontSize=14;spacingLeft=3;" vertex="1" parent="1">
          <mxGeometry x="52" y="287" width="240" height="46" as="geometry" />
        </mxCell>
      </root>
    </mxGraphModel>
  </diagram>
</mxfile>
